solid 14028 - drzak hadice
facet normal 0.0 0.0 -1.0
  outer loop
    vertex 21.4 10.000000000000004 0.0
    vertex 19.4 -10.0 0.0
    vertex 19.4 9.999999999999998 0.0
  endloop
endfacet
facet normal 0.0 0.0 -1.0
  outer loop
    vertex 19.4 -10.0 0.0
    vertex 21.4 10.000000000000004 0.0
    vertex 21.4 -10.0 0.0
  endloop
endfacet
facet normal 0.0 0.0 -1.0
  outer loop
    vertex -8.250874739028845 6.3311188616906975 0.0
    vertex -7.93155889099048 1.0442095377604192 0.0
    vertex -7.999999999999998 8.085144796918883e-15 0.0
  endloop
endfacet
facet normal 0.0 0.0 -1.0
  outer loop
    vertex -7.93155889099048 1.0442095377604192 0.0
    vertex -8.250874739028845 6.3311188616906975 0.0
    vertex -7.353910524340093 7.353910524340095 0.0
  endloop
endfacet
facet normal 0.0 0.0 -1.0
  outer loop
    vertex -7.93155889099048 1.0442095377604192 0.0
    vertex -7.353910524340093 7.353910524340095 0.0
    vertex -7.727406610312543 2.0705523608201712 0.0
  endloop
endfacet
facet normal 0.0 0.0 -1.0
  outer loop
    vertex -7.727406610312543 2.0705523608201712 0.0
    vertex -7.353910524340093 7.353910524340095 0.0
    vertex -7.39103626009029 3.0614674589207214 0.0
  endloop
endfacet
facet normal 0.0 0.0 -1.0
  outer loop
    vertex -7.39103626009029 3.0614674589207214 0.0
    vertex -7.353910524340093 7.353910524340095 0.0
    vertex -6.928203230275506 4.000000000000002 0.0
  endloop
endfacet
facet normal 0.0 0.0 -1.0
  outer loop
    vertex -6.928203230275506 4.000000000000002 0.0
    vertex -7.353910524340093 7.353910524340095 0.0
    vertex -6.331118861690696 8.250874739028847 0.0
  endloop
endfacet
facet normal 0.0 0.0 -1.0
  outer loop
    vertex -6.928203230275506 4.000000000000002 0.0
    vertex -6.331118861690696 8.250874739028847 0.0
    vertex -6.346826722329879 4.870091432069765 0.0
  endloop
endfacet
facet normal 0.0 0.0 -1.0
  outer loop
    vertex -6.346826722329879 4.870091432069765 0.0
    vertex -6.331118861690696 8.250874739028847 0.0
    vertex -5.656854249492378 5.65685424949238 0.0
  endloop
endfacet
facet normal 0.0 0.0 -1.0
  outer loop
    vertex -5.656854249492378 5.65685424949238 0.0
    vertex -6.331118861690696 8.250874739028847 0.0
    vertex -5.200000000000003 9.00666419935816 0.0
  endloop
endfacet
facet normal 0.0 0.0 -1.0
  outer loop
    vertex -5.656854249492378 5.65685424949238 0.0
    vertex -5.200000000000003 9.00666419935816 0.0
    vertex -4.870091432069764 6.3468267223298795 0.0
  endloop
endfacet
facet normal 0.0 0.0 -1.0
  outer loop
    vertex -4.870091432069764 6.3468267223298795 0.0
    vertex -5.200000000000003 9.00666419935816 0.0
    vertex -3.9799076965969373 9.60834713811738 0.0
  endloop
endfacet
facet normal 0.0 0.0 -1.0
  outer loop
    vertex -4.870091432069764 6.3468267223298795 0.0
    vertex -3.9799076965969373 9.60834713811738 0.0
    vertex -4.000000000000001 6.928203230275508 0.0
  endloop
endfacet
facet normal 0.0 0.0 -1.0
  outer loop
    vertex -4.000000000000001 6.928203230275508 0.0
    vertex -3.9799076965969373 9.60834713811738 0.0
    vertex -3.06146745892072 7.39103626009029 0.0
  endloop
endfacet
facet normal 0.0 0.0 -1.0
  outer loop
    vertex -3.06146745892072 7.39103626009029 0.0
    vertex -3.9799076965969373 9.60834713811738 0.0
    vertex -2.6917180690662192 10.04562859340631 0.0
  endloop
endfacet
facet normal 0.0 0.0 -1.0
  outer loop
    vertex -3.06146745892072 7.39103626009029 0.0
    vertex -2.6917180690662192 10.04562859340631 0.0
    vertex -2.070552360820168 7.727406610312544 0.0
  endloop
endfacet
facet normal 0.0 0.0 -1.0
  outer loop
    vertex -2.070552360820168 7.727406610312544 0.0
    vertex -2.6917180690662192 10.04562859340631 0.0
    vertex -1.3574723990885391 10.311026558287628 0.0
  endloop
endfacet
facet normal 0.0 0.0 -1.0
  outer loop
    vertex -2.070552360820168 7.727406610312544 0.0
    vertex -1.3574723990885391 10.311026558287628 0.0
    vertex -1.0442095377604144 7.93155889099048 0.0
  endloop
endfacet
facet normal 0.0 0.0 -1.0
  outer loop
    vertex -1.0442095377604144 7.93155889099048 0.0
    vertex -1.3574723990885391 10.311026558287628 0.0
    vertex -1.6724475556637022e-15 10.4 0.0
  endloop
endfacet
facet normal 0.0 0.0 -1.0
  outer loop
    vertex -1.0442095377604144 7.93155889099048 0.0
    vertex -1.6724475556637022e-15 10.4 0.0
    vertex -1.2864981197413089e-15 7.999999999999998 0.0
  endloop
endfacet
facet normal 0.0 0.0 -1.0
  outer loop
    vertex -1.2864981197413089e-15 7.999999999999998 0.0
    vertex -1.6724475556637022e-15 10.4 0.0
    vertex 1.3574723990885356 10.311026558287628 0.0
  endloop
endfacet
facet normal 0.0 0.0 -1.0
  outer loop
    vertex -1.2864981197413089e-15 7.999999999999998 0.0
    vertex 1.3574723990885356 10.311026558287628 0.0
    vertex 1.0442095377604117 7.93155889099048 0.0
  endloop
endfacet
facet normal 0.0 0.0 -1.0
  outer loop
    vertex 1.0442095377604117 7.93155889099048 0.0
    vertex 1.3574723990885356 10.311026558287628 0.0
    vertex 2.0705523608201655 7.727406610312544 0.0
  endloop
endfacet
facet normal 0.0 0.0 -1.0
  outer loop
    vertex 2.0705523608201655 7.727406610312544 0.0
    vertex 1.3574723990885356 10.311026558287628 0.0
    vertex 2.691718069066216 10.045628593406311 0.0
  endloop
endfacet
facet normal 0.0 0.0 -1.0
  outer loop
    vertex 2.0705523608201655 7.727406610312544 0.0
    vertex 2.691718069066216 10.045628593406311 0.0
    vertex 3.061467458920718 7.391036260090292 0.0
  endloop
endfacet
facet normal 0.0 0.0 -1.0
  outer loop
    vertex 3.061467458920718 7.391036260090292 0.0
    vertex 2.691718069066216 10.045628593406311 0.0
    vertex 2.826135570732252 10.000000000000002 0.0
  endloop
endfacet
facet normal 0.0 0.0 -1.0
  outer loop
    vertex 3.061467458920718 7.391036260090292 0.0
    vertex 2.826135570732252 10.000000000000002 0.0
    vertex 12.900000000000002 10.0 0.0
  endloop
endfacet
facet normal 0.0 0.0 -1.0
  outer loop
    vertex 3.061467458920718 7.391036260090292 0.0
    vertex 12.900000000000002 10.0 0.0
    vertex 3.9999999999999996 6.928203230275508 0.0
  endloop
endfacet
facet normal 0.0 0.0 -1.0
  outer loop
    vertex 3.9999999999999996 6.928203230275508 0.0
    vertex 12.900000000000002 10.0 0.0
    vertex 4.870091432069765 6.346826722329879 0.0
  endloop
endfacet
facet normal 0.0 0.0 -1.0
  outer loop
    vertex 4.870091432069765 6.346826722329879 0.0
    vertex 12.900000000000002 10.0 0.0
    vertex 5.656854249492381 5.656854249492378 0.0
  endloop
endfacet
facet normal 0.0 0.0 -1.0
  outer loop
    vertex 5.656854249492381 5.656854249492378 0.0
    vertex 12.900000000000002 10.0 0.0
    vertex 6.34682672232988 4.8700914320697635 0.0
  endloop
endfacet
facet normal 0.0 0.0 -1.0
  outer loop
    vertex 6.34682672232988 4.8700914320697635 0.0
    vertex 12.900000000000002 10.0 0.0
    vertex 6.928203230275508 3.9999999999999982 0.0
  endloop
endfacet
facet normal 0.0 0.0 -1.0
  outer loop
    vertex 6.928203230275508 3.9999999999999982 0.0
    vertex 12.900000000000002 10.0 0.0
    vertex 7.391036260090292 3.0614674589207174 0.0
  endloop
endfacet
facet normal 0.0 0.0 -1.0
  outer loop
    vertex 7.391036260090292 3.0614674589207174 0.0
    vertex 12.900000000000002 10.0 0.0
    vertex 7.727406610312544 2.0705523608201655 0.0
  endloop
endfacet
facet normal 0.0 0.0 -1.0
  outer loop
    vertex 7.727406610312544 2.0705523608201655 0.0
    vertex 12.900000000000002 10.0 0.0
    vertex 7.93155889099048 1.0442095377604124 0.0
  endloop
endfacet
facet normal 0.0 0.0 -1.0
  outer loop
    vertex 7.93155889099048 1.0442095377604124 0.0
    vertex 12.900000000000002 10.0 0.0
    vertex 7.999999999999998 0.0 0.0
  endloop
endfacet
facet normal 0.0 0.0 -1.0
  outer loop
    vertex -10.311026558287628 1.3574723990885453 0.0
    vertex -10.311026558287631 -1.3574723990885247 0.0
    vertex -10.4 1.0510688235994551e-14 0.0
  endloop
endfacet
facet normal 0.0 0.0 -1.0
  outer loop
    vertex -10.311026558287631 -1.3574723990885247 0.0
    vertex -10.311026558287628 1.3574723990885453 0.0
    vertex -10.045628593406315 -2.6917180690662024 0.0
  endloop
endfacet
facet normal 0.0 0.0 -1.0
  outer loop
    vertex -10.045628593406315 -2.6917180690662024 0.0
    vertex -10.311026558287628 1.3574723990885453 0.0
    vertex -10.04562859340631 2.6917180690662232 0.0
  endloop
endfacet
facet normal 0.0 0.0 -1.0
  outer loop
    vertex -10.045628593406315 -2.6917180690662024 0.0
    vertex -10.04562859340631 2.6917180690662232 0.0
    vertex -9.608347138117388 -3.9799076965969196 0.0
  endloop
endfacet
facet normal 0.0 0.0 -1.0
  outer loop
    vertex -9.608347138117388 -3.9799076965969196 0.0
    vertex -10.04562859340631 2.6917180690662232 0.0
    vertex -9.60834713811738 3.979907696596939 0.0
  endloop
endfacet
facet normal 0.0 0.0 -1.0
  outer loop
    vertex -9.608347138117388 -3.9799076965969196 0.0
    vertex -9.60834713811738 3.979907696596939 0.0
    vertex -9.006664199358172 -5.199999999999986 0.0
  endloop
endfacet
facet normal 0.0 0.0 -1.0
  outer loop
    vertex -9.006664199358172 -5.199999999999986 0.0
    vertex -9.60834713811738 3.979907696596939 0.0
    vertex -9.00666419935816 5.200000000000004 0.0
  endloop
endfacet
facet normal 0.0 0.0 -1.0
  outer loop
    vertex -9.006664199358172 -5.199999999999986 0.0
    vertex -9.00666419935816 5.200000000000004 0.0
    vertex -8.250874739028857 -6.33111886169068 0.0
  endloop
endfacet
facet normal 0.0 0.0 -1.0
  outer loop
    vertex -8.250874739028857 -6.33111886169068 0.0
    vertex -9.00666419935816 5.200000000000004 0.0
    vertex -8.250874739028845 6.3311188616906975 0.0
  endloop
endfacet
facet normal 0.0 0.0 -1.0
  outer loop
    vertex -8.250874739028857 -6.33111886169068 0.0
    vertex -8.250874739028845 6.3311188616906975 0.0
    vertex -7.999999999999998 8.085144796918883e-15 0.0
  endloop
endfacet
facet normal 0.0 0.0 -1.0
  outer loop
    vertex -8.250874739028857 -6.33111886169068 0.0
    vertex -7.999999999999998 8.085144796918883e-15 0.0
    vertex -7.931558890990483 -1.0442095377604033 0.0
  endloop
endfacet
facet normal 0.0 0.0 -1.0
  outer loop
    vertex -8.250874739028857 -6.33111886169068 0.0
    vertex -7.931558890990483 -1.0442095377604033 0.0
    vertex -7.353910524340109 -7.353910524340081 0.0
  endloop
endfacet
facet normal 0.0 0.0 -1.0
  outer loop
    vertex -7.353910524340109 -7.353910524340081 0.0
    vertex -7.931558890990483 -1.0442095377604033 0.0
    vertex -7.7274066103125465 -2.0705523608201553 0.0
  endloop
endfacet
facet normal 0.0 0.0 -1.0
  outer loop
    vertex -7.353910524340109 -7.353910524340081 0.0
    vertex -7.7274066103125465 -2.0705523608201553 0.0
    vertex -7.391036260090297 -3.0614674589207063 0.0
  endloop
endfacet
facet normal 0.0 0.0 -1.0
  outer loop
    vertex -7.353910524340109 -7.353910524340081 0.0
    vertex -7.391036260090297 -3.0614674589207063 0.0
    vertex -6.928203230275515 -3.9999999999999876 0.0
  endloop
endfacet
facet normal 0.0 0.0 -1.0
  outer loop
    vertex -7.353910524340109 -7.353910524340081 0.0
    vertex -6.928203230275515 -3.9999999999999876 0.0
    vertex -6.331118861690713 -8.250874739028832 0.0
  endloop
endfacet
facet normal 0.0 0.0 -1.0
  outer loop
    vertex -6.331118861690713 -8.250874739028832 0.0
    vertex -6.928203230275515 -3.9999999999999876 0.0
    vertex -6.346826722329888 -4.870091432069752 0.0
  endloop
endfacet
facet normal 0.0 0.0 -1.0
  outer loop
    vertex -6.331118861690713 -8.250874739028832 0.0
    vertex -6.346826722329888 -4.870091432069752 0.0
    vertex -5.65685424949239 -5.656854249492367 0.0
  endloop
endfacet
facet normal 0.0 0.0 -1.0
  outer loop
    vertex -6.331118861690713 -8.250874739028832 0.0
    vertex -5.65685424949239 -5.656854249492367 0.0
    vertex -5.20000000000002 -9.00666419935815 0.0
  endloop
endfacet
facet normal 0.0 0.0 -1.0
  outer loop
    vertex -5.20000000000002 -9.00666419935815 0.0
    vertex -5.65685424949239 -5.656854249492367 0.0
    vertex -4.870091432069778 -6.34682672232987 0.0
  endloop
endfacet
facet normal 0.0 0.0 -1.0
  outer loop
    vertex -5.20000000000002 -9.00666419935815 0.0
    vertex -4.870091432069778 -6.34682672232987 0.0
    vertex -3.979907696596957 -9.608347138117374 0.0
  endloop
endfacet
facet normal 0.0 0.0 -1.0
  outer loop
    vertex -3.979907696596957 -9.608347138117374 0.0
    vertex -4.870091432069778 -6.34682672232987 0.0
    vertex -4.000000000000014 -6.928203230275498 0.0
  endloop
endfacet
facet normal 0.0 0.0 -1.0
  outer loop
    vertex -3.979907696596957 -9.608347138117374 0.0
    vertex -4.000000000000014 -6.928203230275498 0.0
    vertex -3.061467458920735 -7.391036260090285 0.0
  endloop
endfacet
facet normal 0.0 0.0 -1.0
  outer loop
    vertex -3.979907696596957 -9.608347138117374 0.0
    vertex -3.061467458920735 -7.391036260090285 0.0
    vertex -2.691718069066242 -10.045628593406304 0.0
  endloop
endfacet
facet normal 0.0 0.0 -1.0
  outer loop
    vertex -2.691718069066242 -10.045628593406304 0.0
    vertex -3.061467458920735 -7.391036260090285 0.0
    vertex -2.0705523608201855 -7.727406610312539 0.0
  endloop
endfacet
facet normal 0.0 0.0 -1.0
  outer loop
    vertex -2.691718069066242 -10.045628593406304 0.0
    vertex -2.0705523608201855 -7.727406610312539 0.0
    vertex -1.3574723990885644 -10.311026558287626 0.0
  endloop
endfacet
facet normal 0.0 0.0 -1.0
  outer loop
    vertex -1.3574723990885644 -10.311026558287626 0.0
    vertex -2.0705523608201855 -7.727406610312539 0.0
    vertex -1.044209537760434 -7.931558890990478 0.0
  endloop
endfacet
facet normal 0.0 0.0 -1.0
  outer loop
    vertex -1.3574723990885644 -10.311026558287626 0.0
    vertex -1.044209537760434 -7.931558890990478 0.0
    vertex -2.962161570131378e-14 -10.4 0.0
  endloop
endfacet
facet normal 0.0 0.0 -1.0
  outer loop
    vertex -2.962161570131378e-14 -10.4 0.0
    vertex -1.044209537760434 -7.931558890990478 0.0
    vertex -2.2785858231779824e-14 -7.999999999999998 0.0
  endloop
endfacet
facet normal 0.0 0.0 -1.0
  outer loop
    vertex -2.962161570131378e-14 -10.4 0.0
    vertex -2.2785858231779824e-14 -7.999999999999998 0.0
    vertex 1.3574723990885056 -10.311026558287633 0.0
  endloop
endfacet
facet normal 0.0 0.0 -1.0
  outer loop
    vertex 1.3574723990885056 -10.311026558287633 0.0
    vertex -2.2785858231779824e-14 -7.999999999999998 0.0
    vertex 1.0442095377603886 -7.931558890990485 0.0
  endloop
endfacet
facet normal 0.0 0.0 -1.0
  outer loop
    vertex 1.3574723990885056 -10.311026558287633 0.0
    vertex 1.0442095377603886 -7.931558890990485 0.0
    vertex 2.070552360820141 -7.727406610312551 0.0
  endloop
endfacet
facet normal 0.0 0.0 -1.0
  outer loop
    vertex 1.3574723990885056 -10.311026558287633 0.0
    vertex 2.070552360820141 -7.727406610312551 0.0
    vertex 2.6917180690661846 -10.045628593406319 0.0
  endloop
endfacet
facet normal 0.0 0.0 -1.0
  outer loop
    vertex 2.6917180690661846 -10.045628593406319 0.0
    vertex 2.070552360820141 -7.727406610312551 0.0
    vertex 3.0614674589206934 -7.391036260090303 0.0
  endloop
endfacet
facet normal 0.0 0.0 -1.0
  outer loop
    vertex 2.6917180690661846 -10.045628593406319 0.0
    vertex 3.0614674589206934 -7.391036260090303 0.0
    vertex 2.8261355707322484 -9.999999999999998 0.0
  endloop
endfacet
facet normal 0.0 0.0 -1.0
  outer loop
    vertex 2.8261355707322484 -9.999999999999998 0.0
    vertex 3.0614674589206934 -7.391036260090303 0.0
    vertex 12.900000000000002 -10.0 0.0
  endloop
endfacet
facet normal 0.0 0.0 -1.0
  outer loop
    vertex 12.900000000000002 -10.0 0.0
    vertex 3.0614674589206934 -7.391036260090303 0.0
    vertex 3.999999999999975 -6.928203230275522 0.0
  endloop
endfacet
facet normal 0.0 0.0 -1.0
  outer loop
    vertex 12.900000000000002 -10.0 0.0
    vertex 3.999999999999975 -6.928203230275522 0.0
    vertex 4.870091432069741 -6.346826722329897 0.0
  endloop
endfacet
facet normal 0.0 0.0 -1.0
  outer loop
    vertex 12.900000000000002 -10.0 0.0
    vertex 4.870091432069741 -6.346826722329897 0.0
    vertex 5.656854249492357 -5.6568542494924 0.0
  endloop
endfacet
facet normal 0.0 0.0 -1.0
  outer loop
    vertex 12.900000000000002 -10.0 0.0
    vertex 5.656854249492357 -5.6568542494924 0.0
    vertex 6.346826722329861 -4.870091432069789 0.0
  endloop
endfacet
facet normal 0.0 0.0 -1.0
  outer loop
    vertex 12.900000000000002 -10.0 0.0
    vertex 6.346826722329861 -4.870091432069789 0.0
    vertex 6.928203230275491 -4.0000000000000275 0.0
  endloop
endfacet
facet normal 0.0 0.0 -1.0
  outer loop
    vertex 12.900000000000002 -10.0 0.0
    vertex 6.928203230275491 -4.0000000000000275 0.0
    vertex 7.391036260090279 -3.0614674589207485 0.0
  endloop
endfacet
facet normal 0.0 0.0 -1.0
  outer loop
    vertex 12.900000000000002 -10.0 0.0
    vertex 7.391036260090279 -3.0614674589207485 0.0
    vertex 7.727406610312536 -2.0705523608201997 0.0
  endloop
endfacet
facet normal 0.0 0.0 -1.0
  outer loop
    vertex 12.900000000000002 -10.0 0.0
    vertex 7.727406610312536 -2.0705523608201997 0.0
    vertex 7.931558890990477 -1.0442095377604486 0.0
  endloop
endfacet
facet normal 0.0 0.0 -1.0
  outer loop
    vertex 12.900000000000002 -10.0 0.0
    vertex 7.931558890990477 -1.0442095377604486 0.0
    vertex 7.999999999999998 0.0 0.0
  endloop
endfacet
facet normal 0.0 0.0 -1.0
  outer loop
    vertex 12.900000000000002 -10.0 0.0
    vertex 7.999999999999998 0.0 0.0
    vertex 12.900000000000002 10.0 0.0
  endloop
endfacet
facet normal 0.5555702330196033 -0.8314696123025446 0.0
  outer loop
    vertex -4.000000000000001 6.928203230275508 20.0
    vertex -4.870091432069764 6.3468267223298795 0.0
    vertex -4.000000000000001 6.928203230275508 0.0
  endloop
endfacet
facet normal 0.5555702330196033 -0.8314696123025446 0.0
  outer loop
    vertex -4.870091432069764 6.3468267223298795 0.0
    vertex -4.000000000000001 6.928203230275508 20.0
    vertex -4.870091432069764 6.3468267223298795 20.0
  endloop
endfacet
facet normal 0.44228869021899997 -0.896872741532689 0.0
  outer loop
    vertex -3.06146745892072 7.39103626009029 20.0
    vertex -4.000000000000001 6.928203230275508 0.0
    vertex -3.06146745892072 7.39103626009029 0.0
  endloop
endfacet
facet normal 0.44228869021899997 -0.896872741532689 0.0
  outer loop
    vertex -4.000000000000001 6.928203230275508 0.0
    vertex -3.06146745892072 7.39103626009029 20.0
    vertex -4.000000000000001 6.928203230275508 20.0
  endloop
endfacet
facet normal 0.3214394653031627 -0.9469301294951054 0.0
  outer loop
    vertex -2.070552360820168 7.727406610312544 20.0
    vertex -3.06146745892072 7.39103626009029 0.0
    vertex -2.070552360820168 7.727406610312544 0.0
  endloop
endfacet
facet normal 0.3214394653031627 -0.9469301294951054 0.0
  outer loop
    vertex -3.06146745892072 7.39103626009029 0.0
    vertex -2.070552360820168 7.727406610312544 20.0
    vertex -3.06146745892072 7.39103626009029 20.0
  endloop
endfacet
facet normal 0.1950903220161279 -0.9807852804032305 0.0
  outer loop
    vertex -1.0442095377604144 7.93155889099048 20.0
    vertex -2.070552360820168 7.727406610312544 0.0
    vertex -1.0442095377604144 7.93155889099048 0.0
  endloop
endfacet
facet normal 0.1950903220161279 -0.9807852804032305 0.0
  outer loop
    vertex -2.070552360820168 7.727406610312544 0.0
    vertex -1.0442095377604144 7.93155889099048 20.0
    vertex -2.070552360820168 7.727406610312544 20.0
  endloop
endfacet
facet normal 0.06540312923014367 -0.9978589232386036 0.0
  outer loop
    vertex -1.2864981197413089e-15 7.999999999999998 20.0
    vertex -1.0442095377604144 7.93155889099048 0.0
    vertex -1.2864981197413089e-15 7.999999999999998 0.0
  endloop
endfacet
facet normal 0.06540312923014367 -0.9978589232386036 0.0
  outer loop
    vertex -1.0442095377604144 7.93155889099048 0.0
    vertex -1.2864981197413089e-15 7.999999999999998 20.0
    vertex -1.0442095377604144 7.93155889099048 20.0
  endloop
endfacet
facet normal 0.6593458151000688 -0.7518398074789774 0.0
  outer loop
    vertex -4.870091432069764 6.3468267223298795 20.0
    vertex -5.656854249492378 5.65685424949238 0.0
    vertex -4.870091432069764 6.3468267223298795 0.0
  endloop
endfacet
facet normal 0.6593458151000688 -0.7518398074789774 0.0
  outer loop
    vertex -5.656854249492378 5.65685424949238 0.0
    vertex -4.870091432069764 6.3468267223298795 20.0
    vertex -5.656854249492378 5.65685424949238 20.0
  endloop
endfacet
facet normal 0.751839807478977 -0.6593458151000693 0.0
  outer loop
    vertex -5.656854249492378 5.65685424949238 0.0
    vertex -6.346826722329879 4.870091432069765 20.0
    vertex -6.346826722329879 4.870091432069765 0.0
  endloop
endfacet
facet normal 0.751839807478977 -0.6593458151000693 0.0
  outer loop
    vertex -6.346826722329879 4.870091432069765 20.0
    vertex -5.656854249492378 5.65685424949238 0.0
    vertex -5.656854249492378 5.65685424949238 20.0
  endloop
endfacet
facet normal -0.06540312923014369 -0.9978589232386035 -0.0
  outer loop
    vertex 1.0442095377604117 7.93155889099048 20.0
    vertex -1.2864981197413089e-15 7.999999999999998 0.0
    vertex 1.0442095377604117 7.93155889099048 0.0
  endloop
endfacet
facet normal -0.06540312923014369 -0.9978589232386035 -0.0
  outer loop
    vertex -1.2864981197413089e-15 7.999999999999998 0.0
    vertex 1.0442095377604117 7.93155889099048 20.0
    vertex -1.2864981197413089e-15 7.999999999999998 20.0
  endloop
endfacet
facet normal -0.1950903220161279 -0.9807852804032307 -0.0
  outer loop
    vertex 2.0705523608201655 7.727406610312544 20.0
    vertex 1.0442095377604117 7.93155889099048 0.0
    vertex 2.0705523608201655 7.727406610312544 0.0
  endloop
endfacet
facet normal -0.1950903220161279 -0.9807852804032307 -0.0
  outer loop
    vertex 1.0442095377604117 7.93155889099048 0.0
    vertex 2.0705523608201655 7.727406610312544 20.0
    vertex 1.0442095377604117 7.93155889099048 20.0
  endloop
endfacet
facet normal -0.32143946530316136 -0.9469301294951058 -0.0
  outer loop
    vertex 3.061467458920718 7.391036260090292 20.0
    vertex 2.0705523608201655 7.727406610312544 0.0
    vertex 3.061467458920718 7.391036260090292 0.0
  endloop
endfacet
facet normal -0.32143946530316136 -0.9469301294951058 -0.0
  outer loop
    vertex 2.0705523608201655 7.727406610312544 0.0
    vertex 3.061467458920718 7.391036260090292 20.0
    vertex 2.0705523608201655 7.727406610312544 20.0
  endloop
endfacet
facet normal -0.44228869021900086 -0.8968727415326887 -0.0
  outer loop
    vertex 3.9999999999999996 6.928203230275508 20.0
    vertex 3.061467458920718 7.391036260090292 0.0
    vertex 3.9999999999999996 6.928203230275508 0.0
  endloop
endfacet
facet normal -0.44228869021900086 -0.8968727415326887 -0.0
  outer loop
    vertex 3.061467458920718 7.391036260090292 0.0
    vertex 3.9999999999999996 6.928203230275508 20.0
    vertex 3.061467458920718 7.391036260090292 20.0
  endloop
endfacet
facet normal 1.0 1.4099832412739515e-15 -1.4099832412739554e-15
  outer loop
    vertex 2.8261355707322475 -9.5 20.0
    vertex 2.8261355707322484 -9.999999999999998 20.0
    vertex 2.8261355707322475 -10.0 19.5
  endloop
endfacet
facet normal -3.863985791031692e-33 -0.7071067811865466 0.7071067811865486
  outer loop
    vertex 21.9 -10.0 19.5
    vertex 2.8261355707322475 -9.5 20.0
    vertex 2.8261355707322475 -10.0 19.5
  endloop
endfacet
facet normal -3.863985791031692e-33 -0.7071067811865466 0.7071067811865486
  outer loop
    vertex 2.8261355707322475 -9.5 20.0
    vertex 21.9 -10.0 19.5
    vertex 21.9 -9.5 20.0
  endloop
endfacet
facet normal 1.0 5.639932965095774e-15 5.639932965095789e-15
  outer loop
    vertex 2.826135570732252 10.000000000000002 20.0
    vertex 2.8261355707322546 9.5 20.0
    vertex 2.8261355707322546 10.0 19.5
  endloop
endfacet
facet normal -0.0 0.7071067811865466 0.7071067811865486
  outer loop
    vertex 21.9 9.5 20.0
    vertex 2.8261355707322546 10.0 19.5
    vertex 2.8261355707322546 9.5 20.0
  endloop
endfacet
facet normal -0.0 0.7071067811865466 0.7071067811865486
  outer loop
    vertex 2.8261355707322546 10.0 19.5
    vertex 21.9 9.5 20.0
    vertex 21.9 10.0 19.5
  endloop
endfacet
facet normal 0.946930129495106 0.32143946530316053 0.0
  outer loop
    vertex -7.7274066103125465 -2.0705523608201553 0.0
    vertex -7.391036260090297 -3.0614674589207063 20.0
    vertex -7.391036260090297 -3.0614674589207063 0.0
  endloop
endfacet
facet normal 0.946930129495106 0.32143946530316053 0.0
  outer loop
    vertex -7.391036260090297 -3.0614674589207063 20.0
    vertex -7.7274066103125465 -2.0705523608201553 0.0
    vertex -7.7274066103125465 -2.0705523608201553 20.0
  endloop
endfacet
facet normal 0.9807852804032305 0.19509032201612822 0.0
  outer loop
    vertex -7.931558890990483 -1.0442095377604033 0.0
    vertex -7.7274066103125465 -2.0705523608201553 20.0
    vertex -7.7274066103125465 -2.0705523608201553 0.0
  endloop
endfacet
facet normal 0.9807852804032305 0.19509032201612822 0.0
  outer loop
    vertex -7.7274066103125465 -2.0705523608201553 20.0
    vertex -7.931558890990483 -1.0442095377604033 0.0
    vertex -7.931558890990483 -1.0442095377604033 20.0
  endloop
endfacet
facet normal 0.9978589232386038 0.0654031292301411 0.0
  outer loop
    vertex -7.999999999999998 8.085144796918883e-15 0.0
    vertex -7.931558890990483 -1.0442095377604033 20.0
    vertex -7.931558890990483 -1.0442095377604033 0.0
  endloop
endfacet
facet normal 0.9978589232386038 0.0654031292301411 0.0
  outer loop
    vertex -7.931558890990483 -1.0442095377604033 20.0
    vertex -7.999999999999998 8.085144796918883e-15 0.0
    vertex -7.999999999999998 8.085144796918883e-15 20.0
  endloop
endfacet
facet normal 0.9978589232386035 -0.06540312923014378 0.0
  outer loop
    vertex -7.93155889099048 1.0442095377604192 0.0
    vertex -7.999999999999998 8.085144796918883e-15 20.0
    vertex -7.999999999999998 8.085144796918883e-15 0.0
  endloop
endfacet
facet normal 0.9978589232386035 -0.06540312923014378 0.0
  outer loop
    vertex -7.999999999999998 8.085144796918883e-15 20.0
    vertex -7.93155889099048 1.0442095377604192 0.0
    vertex -7.93155889099048 1.0442095377604192 20.0
  endloop
endfacet
facet normal 0.9807852804032302 -0.1950903220161295 0.0
  outer loop
    vertex -7.727406610312543 2.0705523608201712 0.0
    vertex -7.93155889099048 1.0442095377604192 20.0
    vertex -7.93155889099048 1.0442095377604192 0.0
  endloop
endfacet
facet normal 0.9807852804032302 -0.1950903220161295 0.0
  outer loop
    vertex -7.93155889099048 1.0442095377604192 20.0
    vertex -7.727406610312543 2.0705523608201712 0.0
    vertex -7.727406610312543 2.0705523608201712 20.0
  endloop
endfacet
facet normal 0.9469301294951057 -0.321439465303162 0.0
  outer loop
    vertex -7.39103626009029 3.0614674589207214 0.0
    vertex -7.727406610312543 2.0705523608201712 20.0
    vertex -7.727406610312543 2.0705523608201712 0.0
  endloop
endfacet
facet normal 0.9469301294951057 -0.321439465303162 0.0
  outer loop
    vertex -7.727406610312543 2.0705523608201712 20.0
    vertex -7.39103626009029 3.0614674589207214 0.0
    vertex -7.39103626009029 3.0614674589207214 20.0
  endloop
endfacet
facet normal 0.8968727415326884 -0.4422886902190013 0.0
  outer loop
    vertex -6.928203230275506 4.000000000000002 0.0
    vertex -7.39103626009029 3.0614674589207214 20.0
    vertex -7.39103626009029 3.0614674589207214 0.0
  endloop
endfacet
facet normal 0.8968727415326884 -0.4422886902190013 0.0
  outer loop
    vertex -7.39103626009029 3.0614674589207214 20.0
    vertex -6.928203230275506 4.000000000000002 0.0
    vertex -6.928203230275506 4.000000000000002 20.0
  endloop
endfacet
facet normal 0.8314696123025451 -0.5555702330196025 0.0
  outer loop
    vertex -6.346826722329879 4.870091432069765 0.0
    vertex -6.928203230275506 4.000000000000002 20.0
    vertex -6.928203230275506 4.000000000000002 0.0
  endloop
endfacet
facet normal 0.8314696123025451 -0.5555702330196025 0.0
  outer loop
    vertex -6.928203230275506 4.000000000000002 20.0
    vertex -6.346826722329879 4.870091432069765 0.0
    vertex -6.346826722329879 4.870091432069765 20.0
  endloop
endfacet
facet normal 0.7071067811865481 -0.0 -0.7071067811865469
  outer loop
    vertex 21.4 10.000000000000004 0.0
    vertex 21.9 -10.0 0.49999999999999994
    vertex 21.4 -10.0 0.0
  endloop
endfacet
facet normal 0.7071067811865481 -0.0 -0.7071067811865469
  outer loop
    vertex 21.9 -10.0 0.49999999999999994
    vertex 21.4 10.000000000000004 0.0
    vertex 21.9 10.000000000000004 0.49999999999999994
  endloop
endfacet
facet normal -0.7071067811865481 0.0 -0.7071067811865469
  outer loop
    vertex 18.9 9.999999999999998 0.49999999999999994
    vertex 19.4 -10.0 0.0
    vertex 18.9 -10.0 0.49999999999999994
  endloop
endfacet
facet normal -0.7071067811865481 0.0 -0.7071067811865469
  outer loop
    vertex 19.4 -10.0 0.0
    vertex 18.9 9.999999999999998 0.49999999999999994
    vertex 19.4 9.999999999999998 0.0
  endloop
endfacet
facet normal 0.7071067811865476 0.0 -0.7071067811865476
  outer loop
    vertex 13.4 9.999999999999996 16.3
    vertex 14.1 -10.0 17.0
    vertex 13.4 -10.0 16.3
  endloop
endfacet
facet normal 0.7071067811865476 0.0 -0.7071067811865476
  outer loop
    vertex 14.1 -10.0 17.0
    vertex 13.4 9.999999999999996 16.3
    vertex 14.1 9.999999999999996 17.0
  endloop
endfacet
facet normal -0.7071067811865476 0.0 -0.7071067811865476
  outer loop
    vertex 18.2 10.0 17.0
    vertex 18.9 -10.0 16.3
    vertex 18.2 -10.0 17.0
  endloop
endfacet
facet normal -0.7071067811865476 0.0 -0.7071067811865476
  outer loop
    vertex 18.9 -10.0 16.3
    vertex 18.2 10.0 17.0
    vertex 18.9 10.0 16.3
  endloop
endfacet
facet normal 1.0 -0.0 -0.0
  outer loop
    vertex 21.9 10.000000000000004 0.49999999999999994
    vertex 21.9 -10.0 19.5
    vertex 21.9 -10.0 0.49999999999999994
  endloop
endfacet
facet normal 1.0 -0.0 -0.0
  outer loop
    vertex 21.9 -10.0 19.5
    vertex 21.9 10.000000000000004 0.49999999999999994
    vertex 21.9 -9.5 20.0
  endloop
endfacet
facet normal 1.0 -0.0 -0.0
  outer loop
    vertex 21.9 -9.5 20.0
    vertex 21.9 10.000000000000004 0.49999999999999994
    vertex 21.9 9.5 20.0
  endloop
endfacet
facet normal 1.0 -0.0 -0.0
  outer loop
    vertex 21.9 9.5 20.0
    vertex 21.9 10.000000000000004 0.49999999999999994
    vertex 21.9 10.0 19.5
  endloop
endfacet
facet normal -6.103303001954589e-17 1.0 1.2543827447479257e-16
  outer loop
    vertex 2.8261355707322546 10.0 19.5
    vertex 12.900000000000002 10.0 0.0
    vertex 2.826135570732252 10.000000000000002 0.0
  endloop
endfacet
facet normal -6.103303001954589e-17 1.0 1.2543827447479257e-16
  outer loop
    vertex 12.900000000000002 10.0 0.0
    vertex 2.8261355707322546 10.0 19.5
    vertex 13.4 10.0 0.49999999999999994
  endloop
endfacet
facet normal -6.103303001954589e-17 1.0 1.2543827447479257e-16
  outer loop
    vertex 13.4 10.0 0.49999999999999994
    vertex 2.8261355707322546 10.0 19.5
    vertex 13.4 9.999999999999996 16.3
  endloop
endfacet
facet normal -6.103303001954589e-17 1.0 1.2543827447479257e-16
  outer loop
    vertex 13.4 9.999999999999996 16.3
    vertex 2.8261355707322546 10.0 19.5
    vertex 14.1 9.999999999999996 17.0
  endloop
endfacet
facet normal -6.103303001954589e-17 1.0 1.2543827447479257e-16
  outer loop
    vertex 14.1 9.999999999999996 17.0
    vertex 2.8261355707322546 10.0 19.5
    vertex 18.2 10.0 17.0
  endloop
endfacet
facet normal -6.103303001954589e-17 1.0 1.2543827447479257e-16
  outer loop
    vertex 18.9 9.999999999999998 0.49999999999999994
    vertex 21.4 10.000000000000004 0.0
    vertex 19.4 9.999999999999998 0.0
  endloop
endfacet
facet normal -6.103303001954589e-17 1.0 1.2543827447479257e-16
  outer loop
    vertex 21.4 10.000000000000004 0.0
    vertex 18.9 9.999999999999998 0.49999999999999994
    vertex 21.9 10.000000000000004 0.49999999999999994
  endloop
endfacet
facet normal -6.103303001954589e-17 1.0 1.2543827447479257e-16
  outer loop
    vertex 21.9 10.000000000000004 0.49999999999999994
    vertex 18.9 9.999999999999998 0.49999999999999994
    vertex 18.9 10.0 16.3
  endloop
endfacet
facet normal -6.103303001954589e-17 1.0 1.2543827447479257e-16
  outer loop
    vertex 21.9 10.000000000000004 0.49999999999999994
    vertex 18.9 10.0 16.3
    vertex 21.9 10.0 19.5
  endloop
endfacet
facet normal -6.103303001954589e-17 1.0 1.2543827447479257e-16
  outer loop
    vertex 21.9 10.0 19.5
    vertex 18.9 10.0 16.3
    vertex 18.2 10.0 17.0
  endloop
endfacet
facet normal -6.103303001954589e-17 1.0 1.2543827447479257e-16
  outer loop
    vertex 21.9 10.0 19.5
    vertex 18.2 10.0 17.0
    vertex 2.8261355707322546 10.0 19.5
  endloop
endfacet
facet normal -1.0 0.0 0.0
  outer loop
    vertex 18.9 10.0 16.3
    vertex 18.9 -10.0 0.49999999999999994
    vertex 18.9 -10.0 16.3
  endloop
endfacet
facet normal -1.0 0.0 0.0
  outer loop
    vertex 18.9 -10.0 0.49999999999999994
    vertex 18.9 10.0 16.3
    vertex 18.9 9.999999999999998 0.49999999999999994
  endloop
endfacet
facet normal -3.714115852199062e-17 -1.0 -1.413160653083401e-17
  outer loop
    vertex 21.9 -10.0 0.49999999999999994
    vertex 19.4 -10.0 0.0
    vertex 21.4 -10.0 0.0
  endloop
endfacet
facet normal -3.714115852199062e-17 -1.0 -1.413160653083401e-17
  outer loop
    vertex 19.4 -10.0 0.0
    vertex 21.9 -10.0 0.49999999999999994
    vertex 18.9 -10.0 0.49999999999999994
  endloop
endfacet
facet normal -3.714115852199062e-17 -1.0 -1.413160653083401e-17
  outer loop
    vertex 18.9 -10.0 0.49999999999999994
    vertex 21.9 -10.0 0.49999999999999994
    vertex 21.9 -10.0 19.5
  endloop
endfacet
facet normal -3.714115852199062e-17 -1.0 -1.413160653083401e-17
  outer loop
    vertex 18.9 -10.0 0.49999999999999994
    vertex 21.9 -10.0 19.5
    vertex 18.9 -10.0 16.3
  endloop
endfacet
facet normal -3.714115852199062e-17 -1.0 -1.413160653083401e-17
  outer loop
    vertex 18.9 -10.0 16.3
    vertex 21.9 -10.0 19.5
    vertex 18.2 -10.0 17.0
  endloop
endfacet
facet normal -3.714115852199062e-17 -1.0 -1.413160653083401e-17
  outer loop
    vertex 18.2 -10.0 17.0
    vertex 21.9 -10.0 19.5
    vertex 14.1 -10.0 17.0
  endloop
endfacet
facet normal -3.714115852199062e-17 -1.0 -1.413160653083401e-17
  outer loop
    vertex 13.4 -10.0 0.49999999999999994
    vertex 2.8261355707322484 -9.999999999999998 0.0
    vertex 12.900000000000002 -10.0 0.0
  endloop
endfacet
facet normal -3.714115852199062e-17 -1.0 -1.413160653083401e-17
  outer loop
    vertex 2.8261355707322484 -9.999999999999998 0.0
    vertex 13.4 -10.0 0.49999999999999994
    vertex 2.8261355707322475 -10.0 19.5
  endloop
endfacet
facet normal -3.714115852199062e-17 -1.0 -1.413160653083401e-17
  outer loop
    vertex 2.8261355707322475 -10.0 19.5
    vertex 13.4 -10.0 0.49999999999999994
    vertex 13.4 -10.0 16.3
  endloop
endfacet
facet normal -3.714115852199062e-17 -1.0 -1.413160653083401e-17
  outer loop
    vertex 2.8261355707322475 -10.0 19.5
    vertex 13.4 -10.0 16.3
    vertex 14.1 -10.0 17.0
  endloop
endfacet
facet normal -3.714115852199062e-17 -1.0 -1.413160653083401e-17
  outer loop
    vertex 2.8261355707322475 -10.0 19.5
    vertex 14.1 -10.0 17.0
    vertex 21.9 -10.0 19.5
  endloop
endfacet
facet normal 0.0 0.0 -1.0
  outer loop
    vertex 18.2 10.0 17.0
    vertex 14.1 -10.0 17.0
    vertex 14.1 9.999999999999996 17.0
  endloop
endfacet
facet normal 0.0 0.0 -1.0
  outer loop
    vertex 14.1 -10.0 17.0
    vertex 18.2 10.0 17.0
    vertex 18.2 -10.0 17.0
  endloop
endfacet
facet normal 0.7071067811865481 -0.0 -0.7071067811865469
  outer loop
    vertex 12.900000000000002 10.0 0.0
    vertex 13.4 -10.0 0.49999999999999994
    vertex 12.900000000000002 -10.0 0.0
  endloop
endfacet
facet normal 0.7071067811865481 -0.0 -0.7071067811865469
  outer loop
    vertex 13.4 -10.0 0.49999999999999994
    vertex 12.900000000000002 10.0 0.0
    vertex 13.4 10.0 0.49999999999999994
  endloop
endfacet
facet normal 0.8968727415326897 0.4422886902189988 0.0
  outer loop
    vertex -7.391036260090297 -3.0614674589207063 0.0
    vertex -6.928203230275515 -3.9999999999999876 20.0
    vertex -6.928203230275515 -3.9999999999999876 0.0
  endloop
endfacet
facet normal 0.8968727415326897 0.4422886902189988 0.0
  outer loop
    vertex -6.928203230275515 -3.9999999999999876 20.0
    vertex -7.391036260090297 -3.0614674589207063 0.0
    vertex -7.391036260090297 -3.0614674589207063 20.0
  endloop
endfacet
facet normal 0.8314696123025459 0.5555702330196013 0.0
  outer loop
    vertex -6.928203230275515 -3.9999999999999876 0.0
    vertex -6.346826722329888 -4.870091432069752 20.0
    vertex -6.346826722329888 -4.870091432069752 0.0
  endloop
endfacet
facet normal 0.8314696123025459 0.5555702330196013 0.0
  outer loop
    vertex -6.346826722329888 -4.870091432069752 20.0
    vertex -6.928203230275515 -3.9999999999999876 0.0
    vertex -6.928203230275515 -3.9999999999999876 20.0
  endloop
endfacet
facet normal 0.7518398074789788 0.6593458151000675 0.0
  outer loop
    vertex -6.346826722329888 -4.870091432069752 0.0
    vertex -5.65685424949239 -5.656854249492367 20.0
    vertex -5.65685424949239 -5.656854249492367 0.0
  endloop
endfacet
facet normal 0.7518398074789788 0.6593458151000675 0.0
  outer loop
    vertex -5.65685424949239 -5.656854249492367 20.0
    vertex -6.346826722329888 -4.870091432069752 0.0
    vertex -6.346826722329888 -4.870091432069752 20.0
  endloop
endfacet
facet normal 0.6593458151000707 0.7518398074789758 0.0
  outer loop
    vertex -5.65685424949239 -5.656854249492367 20.0
    vertex -4.870091432069778 -6.34682672232987 0.0
    vertex -5.65685424949239 -5.656854249492367 0.0
  endloop
endfacet
facet normal 0.6593458151000707 0.7518398074789758 0.0
  outer loop
    vertex -4.870091432069778 -6.34682672232987 0.0
    vertex -5.65685424949239 -5.656854249492367 20.0
    vertex -4.870091432069778 -6.34682672232987 20.0
  endloop
endfacet
facet normal 0.5555702330196031 0.8314696123025448 0.0
  outer loop
    vertex -4.870091432069778 -6.34682672232987 20.0
    vertex -4.000000000000014 -6.928203230275498 0.0
    vertex -4.870091432069778 -6.34682672232987 0.0
  endloop
endfacet
facet normal 0.5555702330196031 0.8314696123025448 0.0
  outer loop
    vertex -4.000000000000014 -6.928203230275498 0.0
    vertex -4.870091432069778 -6.34682672232987 20.0
    vertex -4.000000000000014 -6.928203230275498 20.0
  endloop
endfacet
facet normal 0.4422886902190042 0.896872741532687 0.0
  outer loop
    vertex -4.000000000000014 -6.928203230275498 20.0
    vertex -3.061467458920735 -7.391036260090285 0.0
    vertex -4.000000000000014 -6.928203230275498 0.0
  endloop
endfacet
facet normal 0.4422886902190042 0.896872741532687 0.0
  outer loop
    vertex -3.061467458920735 -7.391036260090285 0.0
    vertex -4.000000000000014 -6.928203230275498 20.0
    vertex -3.061467458920735 -7.391036260090285 20.0
  endloop
endfacet
facet normal 0.3214394653031645 0.9469301294951047 0.0
  outer loop
    vertex -3.061467458920735 -7.391036260090285 20.0
    vertex -2.0705523608201855 -7.727406610312539 0.0
    vertex -3.061467458920735 -7.391036260090285 0.0
  endloop
endfacet
facet normal 0.3214394653031645 0.9469301294951047 0.0
  outer loop
    vertex -2.0705523608201855 -7.727406610312539 0.0
    vertex -3.061467458920735 -7.391036260090285 20.0
    vertex -2.0705523608201855 -7.727406610312539 20.0
  endloop
endfacet
facet normal 0.19509032201612964 0.9807852804032303 0.0
  outer loop
    vertex -2.0705523608201855 -7.727406610312539 20.0
    vertex -1.044209537760434 -7.931558890990478 0.0
    vertex -2.0705523608201855 -7.727406610312539 0.0
  endloop
endfacet
facet normal 0.19509032201612964 0.9807852804032303 0.0
  outer loop
    vertex -1.044209537760434 -7.931558890990478 0.0
    vertex -2.0705523608201855 -7.727406610312539 20.0
    vertex -1.044209537760434 -7.931558890990478 20.0
  endloop
endfacet
facet normal 0.06540312923014649 0.9978589232386035 0.0
  outer loop
    vertex -1.044209537760434 -7.931558890990478 20.0
    vertex -2.2785858231779824e-14 -7.999999999999998 0.0
    vertex -1.044209537760434 -7.931558890990478 0.0
  endloop
endfacet
facet normal 0.06540312923014649 0.9978589232386035 0.0
  outer loop
    vertex -2.2785858231779824e-14 -7.999999999999998 0.0
    vertex -1.044209537760434 -7.931558890990478 20.0
    vertex -2.2785858231779824e-14 -7.999999999999998 20.0
  endloop
endfacet
facet normal -0.06540312923013976 0.9978589232386038 0.0
  outer loop
    vertex -2.2785858231779824e-14 -7.999999999999998 20.0
    vertex 1.0442095377603886 -7.931558890990485 0.0
    vertex -2.2785858231779824e-14 -7.999999999999998 0.0
  endloop
endfacet
facet normal -0.06540312923013976 0.9978589232386038 0.0
  outer loop
    vertex 1.0442095377603886 -7.931558890990485 0.0
    vertex -2.2785858231779824e-14 -7.999999999999998 20.0
    vertex 1.0442095377603886 -7.931558890990485 20.0
  endloop
endfacet
facet normal -0.1950903220161255 0.980785280403231 0.0
  outer loop
    vertex 1.0442095377603886 -7.931558890990485 20.0
    vertex 2.070552360820141 -7.727406610312551 0.0
    vertex 1.0442095377603886 -7.931558890990485 0.0
  endloop
endfacet
facet normal -0.1950903220161255 0.980785280403231 0.0
  outer loop
    vertex 2.070552360820141 -7.727406610312551 0.0
    vertex 1.0442095377603886 -7.931558890990485 20.0
    vertex 2.070552360820141 -7.727406610312551 20.0
  endloop
endfacet
facet normal -0.32143946530315787 0.946930129495107 0.0
  outer loop
    vertex 2.070552360820141 -7.727406610312551 20.0
    vertex 3.0614674589206934 -7.391036260090303 0.0
    vertex 2.070552360820141 -7.727406610312551 0.0
  endloop
endfacet
facet normal -0.32143946530315787 0.946930129495107 0.0
  outer loop
    vertex 3.0614674589206934 -7.391036260090303 0.0
    vertex 2.070552360820141 -7.727406610312551 20.0
    vertex 3.0614674589206934 -7.391036260090303 20.0
  endloop
endfacet
facet normal -0.44228869021899864 0.8968727415326897 0.0
  outer loop
    vertex 3.0614674589206934 -7.391036260090303 20.0
    vertex 3.999999999999975 -6.928203230275522 0.0
    vertex 3.0614674589206934 -7.391036260090303 0.0
  endloop
endfacet
facet normal -0.44228869021899864 0.8968727415326897 0.0
  outer loop
    vertex 3.999999999999975 -6.928203230275522 0.0
    vertex 3.0614674589206934 -7.391036260090303 20.0
    vertex 3.999999999999975 -6.928203230275522 20.0
  endloop
endfacet
facet normal -0.5555702330195997 0.8314696123025469 0.0
  outer loop
    vertex 3.999999999999975 -6.928203230275522 20.0
    vertex 4.870091432069741 -6.346826722329897 0.0
    vertex 3.999999999999975 -6.928203230275522 0.0
  endloop
endfacet
facet normal -0.5555702330195997 0.8314696123025469 0.0
  outer loop
    vertex 4.870091432069741 -6.346826722329897 0.0
    vertex 3.999999999999975 -6.928203230275522 20.0
    vertex 4.870091432069741 -6.346826722329897 20.0
  endloop
endfacet
facet normal -0.6593458151000664 0.7518398074789797 0.0
  outer loop
    vertex 4.870091432069741 -6.346826722329897 20.0
    vertex 5.656854249492357 -5.6568542494924 0.0
    vertex 4.870091432069741 -6.346826722329897 0.0
  endloop
endfacet
facet normal -0.6593458151000664 0.7518398074789797 0.0
  outer loop
    vertex 5.656854249492357 -5.6568542494924 0.0
    vertex 4.870091432069741 -6.346826722329897 20.0
    vertex 5.656854249492357 -5.6568542494924 20.0
  endloop
endfacet
facet normal -0.7518398074789743 0.6593458151000725 0.0
  outer loop
    vertex 6.346826722329861 -4.870091432069789 20.0
    vertex 5.656854249492357 -5.6568542494924 0.0
    vertex 5.656854249492357 -5.6568542494924 20.0
  endloop
endfacet
facet normal -0.7518398074789743 0.6593458151000725 0.0
  outer loop
    vertex 5.656854249492357 -5.6568542494924 0.0
    vertex 6.346826722329861 -4.870091432069789 20.0
    vertex 6.346826722329861 -4.870091432069789 0.0
  endloop
endfacet
facet normal -0.8314696123025436 0.5555702330196048 0.0
  outer loop
    vertex 6.928203230275491 -4.0000000000000275 20.0
    vertex 6.346826722329861 -4.870091432069789 0.0
    vertex 6.346826722329861 -4.870091432069789 20.0
  endloop
endfacet
facet normal -0.8314696123025436 0.5555702330196048 0.0
  outer loop
    vertex 6.346826722329861 -4.870091432069789 0.0
    vertex 6.928203230275491 -4.0000000000000275 20.0
    vertex 6.928203230275491 -4.0000000000000275 0.0
  endloop
endfacet
facet normal -0.8968727415326864 0.44228869021900524 0.0
  outer loop
    vertex 7.391036260090279 -3.0614674589207485 20.0
    vertex 6.928203230275491 -4.0000000000000275 0.0
    vertex 6.928203230275491 -4.0000000000000275 20.0
  endloop
endfacet
facet normal -0.8968727415326864 0.44228869021900524 0.0
  outer loop
    vertex 6.928203230275491 -4.0000000000000275 0.0
    vertex 7.391036260090279 -3.0614674589207485 20.0
    vertex 7.391036260090279 -3.0614674589207485 0.0
  endloop
endfacet
facet normal -0.9469301294951044 0.321439465303166 0.0
  outer loop
    vertex 7.727406610312536 -2.0705523608201997 20.0
    vertex 7.391036260090279 -3.0614674589207485 0.0
    vertex 7.391036260090279 -3.0614674589207485 20.0
  endloop
endfacet
facet normal -0.9469301294951044 0.321439465303166 0.0
  outer loop
    vertex 7.391036260090279 -3.0614674589207485 0.0
    vertex 7.727406610312536 -2.0705523608201997 20.0
    vertex 7.727406610312536 -2.0705523608201997 0.0
  endloop
endfacet
facet normal -0.9807852804032297 0.19509032201613222 0.0
  outer loop
    vertex 7.931558890990477 -1.0442095377604486 20.0
    vertex 7.727406610312536 -2.0705523608201997 0.0
    vertex 7.727406610312536 -2.0705523608201997 20.0
  endloop
endfacet
facet normal -0.9807852804032297 0.19509032201613222 0.0
  outer loop
    vertex 7.727406610312536 -2.0705523608201997 0.0
    vertex 7.931558890990477 -1.0442095377604486 20.0
    vertex 7.931558890990477 -1.0442095377604486 0.0
  endloop
endfacet
facet normal -0.9978589232386034 0.06540312923014548 0.0
  outer loop
    vertex 7.999999999999998 0.0 20.0
    vertex 7.931558890990477 -1.0442095377604486 0.0
    vertex 7.931558890990477 -1.0442095377604486 20.0
  endloop
endfacet
facet normal -0.9978589232386034 0.06540312923014548 0.0
  outer loop
    vertex 7.931558890990477 -1.0442095377604486 0.0
    vertex 7.999999999999998 0.0 20.0
    vertex 7.999999999999998 0.0 0.0
  endloop
endfacet
facet normal -0.0 -0.0 1.0
  outer loop
    vertex 2.8261355707322484 -9.999999999999998 20.0
    vertex 2.8261355707322475 -9.5 20.0
    vertex 2.6917180690661846 -10.045628593406319 20.0
  endloop
endfacet
facet normal -0.0 -0.0 1.0
  outer loop
    vertex -10.311026558287631 -1.3574723990885247 20.0
    vertex -10.311026558287628 1.3574723990885453 20.0
    vertex -10.4 1.0510688235994551e-14 20.0
  endloop
endfacet
facet normal -0.0 -0.0 1.0
  outer loop
    vertex -10.311026558287628 1.3574723990885453 20.0
    vertex -10.311026558287631 -1.3574723990885247 20.0
    vertex -10.045628593406315 -2.6917180690662024 20.0
  endloop
endfacet
facet normal -0.0 -0.0 1.0
  outer loop
    vertex -10.311026558287628 1.3574723990885453 20.0
    vertex -10.045628593406315 -2.6917180690662024 20.0
    vertex -10.04562859340631 2.6917180690662232 20.0
  endloop
endfacet
facet normal -0.0 -0.0 1.0
  outer loop
    vertex -10.04562859340631 2.6917180690662232 20.0
    vertex -10.045628593406315 -2.6917180690662024 20.0
    vertex -9.608347138117388 -3.9799076965969196 20.0
  endloop
endfacet
facet normal -0.0 -0.0 1.0
  outer loop
    vertex -10.04562859340631 2.6917180690662232 20.0
    vertex -9.608347138117388 -3.9799076965969196 20.0
    vertex -9.60834713811738 3.979907696596939 20.0
  endloop
endfacet
facet normal -0.0 -0.0 1.0
  outer loop
    vertex -9.60834713811738 3.979907696596939 20.0
    vertex -9.608347138117388 -3.9799076965969196 20.0
    vertex -9.006664199358172 -5.199999999999986 20.0
  endloop
endfacet
facet normal -0.0 -0.0 1.0
  outer loop
    vertex -9.60834713811738 3.979907696596939 20.0
    vertex -9.006664199358172 -5.199999999999986 20.0
    vertex -9.00666419935816 5.200000000000004 20.0
  endloop
endfacet
facet normal -0.0 -0.0 1.0
  outer loop
    vertex -9.00666419935816 5.200000000000004 20.0
    vertex -9.006664199358172 -5.199999999999986 20.0
    vertex -8.250874739028857 -6.33111886169068 20.0
  endloop
endfacet
facet normal -0.0 -0.0 1.0
  outer loop
    vertex -9.00666419935816 5.200000000000004 20.0
    vertex -8.250874739028857 -6.33111886169068 20.0
    vertex -8.250874739028845 6.3311188616906975 20.0
  endloop
endfacet
facet normal -0.0 -0.0 1.0
  outer loop
    vertex -8.250874739028845 6.3311188616906975 20.0
    vertex -8.250874739028857 -6.33111886169068 20.0
    vertex -7.999999999999998 8.085144796918883e-15 20.0
  endloop
endfacet
facet normal -0.0 -0.0 1.0
  outer loop
    vertex -7.999999999999998 8.085144796918883e-15 20.0
    vertex -8.250874739028857 -6.33111886169068 20.0
    vertex -7.931558890990483 -1.0442095377604033 20.0
  endloop
endfacet
facet normal -0.0 -0.0 1.0
  outer loop
    vertex -7.931558890990483 -1.0442095377604033 20.0
    vertex -8.250874739028857 -6.33111886169068 20.0
    vertex -7.353910524340109 -7.353910524340081 20.0
  endloop
endfacet
facet normal -0.0 -0.0 1.0
  outer loop
    vertex -7.931558890990483 -1.0442095377604033 20.0
    vertex -7.353910524340109 -7.353910524340081 20.0
    vertex -7.7274066103125465 -2.0705523608201553 20.0
  endloop
endfacet
facet normal -0.0 -0.0 1.0
  outer loop
    vertex -7.7274066103125465 -2.0705523608201553 20.0
    vertex -7.353910524340109 -7.353910524340081 20.0
    vertex -7.391036260090297 -3.0614674589207063 20.0
  endloop
endfacet
facet normal -0.0 -0.0 1.0
  outer loop
    vertex -7.391036260090297 -3.0614674589207063 20.0
    vertex -7.353910524340109 -7.353910524340081 20.0
    vertex -6.928203230275515 -3.9999999999999876 20.0
  endloop
endfacet
facet normal -0.0 -0.0 1.0
  outer loop
    vertex -6.928203230275515 -3.9999999999999876 20.0
    vertex -7.353910524340109 -7.353910524340081 20.0
    vertex -6.331118861690713 -8.250874739028832 20.0
  endloop
endfacet
facet normal -0.0 -0.0 1.0
  outer loop
    vertex -6.928203230275515 -3.9999999999999876 20.0
    vertex -6.331118861690713 -8.250874739028832 20.0
    vertex -6.346826722329888 -4.870091432069752 20.0
  endloop
endfacet
facet normal -0.0 -0.0 1.0
  outer loop
    vertex -6.346826722329888 -4.870091432069752 20.0
    vertex -6.331118861690713 -8.250874739028832 20.0
    vertex -5.65685424949239 -5.656854249492367 20.0
  endloop
endfacet
facet normal -0.0 -0.0 1.0
  outer loop
    vertex -5.65685424949239 -5.656854249492367 20.0
    vertex -6.331118861690713 -8.250874739028832 20.0
    vertex -5.20000000000002 -9.00666419935815 20.0
  endloop
endfacet
facet normal -0.0 -0.0 1.0
  outer loop
    vertex -5.65685424949239 -5.656854249492367 20.0
    vertex -5.20000000000002 -9.00666419935815 20.0
    vertex -4.870091432069778 -6.34682672232987 20.0
  endloop
endfacet
facet normal -0.0 -0.0 1.0
  outer loop
    vertex -4.870091432069778 -6.34682672232987 20.0
    vertex -5.20000000000002 -9.00666419935815 20.0
    vertex -3.979907696596957 -9.608347138117374 20.0
  endloop
endfacet
facet normal -0.0 -0.0 1.0
  outer loop
    vertex -4.870091432069778 -6.34682672232987 20.0
    vertex -3.979907696596957 -9.608347138117374 20.0
    vertex -4.000000000000014 -6.928203230275498 20.0
  endloop
endfacet
facet normal -0.0 -0.0 1.0
  outer loop
    vertex -4.000000000000014 -6.928203230275498 20.0
    vertex -3.979907696596957 -9.608347138117374 20.0
    vertex -3.061467458920735 -7.391036260090285 20.0
  endloop
endfacet
facet normal -0.0 -0.0 1.0
  outer loop
    vertex -3.061467458920735 -7.391036260090285 20.0
    vertex -3.979907696596957 -9.608347138117374 20.0
    vertex -2.691718069066242 -10.045628593406304 20.0
  endloop
endfacet
facet normal -0.0 -0.0 1.0
  outer loop
    vertex -3.061467458920735 -7.391036260090285 20.0
    vertex -2.691718069066242 -10.045628593406304 20.0
    vertex -2.0705523608201855 -7.727406610312539 20.0
  endloop
endfacet
facet normal -0.0 -0.0 1.0
  outer loop
    vertex -2.0705523608201855 -7.727406610312539 20.0
    vertex -2.691718069066242 -10.045628593406304 20.0
    vertex -1.3574723990885644 -10.311026558287626 20.0
  endloop
endfacet
facet normal -0.0 -0.0 1.0
  outer loop
    vertex -2.0705523608201855 -7.727406610312539 20.0
    vertex -1.3574723990885644 -10.311026558287626 20.0
    vertex -1.044209537760434 -7.931558890990478 20.0
  endloop
endfacet
facet normal -0.0 -0.0 1.0
  outer loop
    vertex -1.044209537760434 -7.931558890990478 20.0
    vertex -1.3574723990885644 -10.311026558287626 20.0
    vertex -2.962161570131378e-14 -10.4 20.0
  endloop
endfacet
facet normal -0.0 -0.0 1.0
  outer loop
    vertex -1.044209537760434 -7.931558890990478 20.0
    vertex -2.962161570131378e-14 -10.4 20.0
    vertex -2.2785858231779824e-14 -7.999999999999998 20.0
  endloop
endfacet
facet normal -0.0 -0.0 1.0
  outer loop
    vertex -2.2785858231779824e-14 -7.999999999999998 20.0
    vertex -2.962161570131378e-14 -10.4 20.0
    vertex 1.3574723990885056 -10.311026558287633 20.0
  endloop
endfacet
facet normal -0.0 -0.0 1.0
  outer loop
    vertex -2.2785858231779824e-14 -7.999999999999998 20.0
    vertex 1.3574723990885056 -10.311026558287633 20.0
    vertex 1.0442095377603886 -7.931558890990485 20.0
  endloop
endfacet
facet normal -0.0 -0.0 1.0
  outer loop
    vertex 1.0442095377603886 -7.931558890990485 20.0
    vertex 1.3574723990885056 -10.311026558287633 20.0
    vertex 2.070552360820141 -7.727406610312551 20.0
  endloop
endfacet
facet normal -0.0 -0.0 1.0
  outer loop
    vertex 2.070552360820141 -7.727406610312551 20.0
    vertex 1.3574723990885056 -10.311026558287633 20.0
    vertex 2.6917180690661846 -10.045628593406319 20.0
  endloop
endfacet
facet normal -0.0 -0.0 1.0
  outer loop
    vertex 2.070552360820141 -7.727406610312551 20.0
    vertex 2.6917180690661846 -10.045628593406319 20.0
    vertex 3.0614674589206934 -7.391036260090303 20.0
  endloop
endfacet
facet normal -0.0 -0.0 1.0
  outer loop
    vertex 3.0614674589206934 -7.391036260090303 20.0
    vertex 2.6917180690661846 -10.045628593406319 20.0
    vertex 2.8261355707322475 -9.5 20.0
  endloop
endfacet
facet normal -0.0 -0.0 1.0
  outer loop
    vertex 3.0614674589206934 -7.391036260090303 20.0
    vertex 2.8261355707322475 -9.5 20.0
    vertex 21.9 -9.5 20.0
  endloop
endfacet
facet normal -0.0 -0.0 1.0
  outer loop
    vertex 3.0614674589206934 -7.391036260090303 20.0
    vertex 21.9 -9.5 20.0
    vertex 3.999999999999975 -6.928203230275522 20.0
  endloop
endfacet
facet normal -0.0 -0.0 1.0
  outer loop
    vertex 3.999999999999975 -6.928203230275522 20.0
    vertex 21.9 -9.5 20.0
    vertex 4.870091432069741 -6.346826722329897 20.0
  endloop
endfacet
facet normal -0.0 -0.0 1.0
  outer loop
    vertex 4.870091432069741 -6.346826722329897 20.0
    vertex 21.9 -9.5 20.0
    vertex 5.656854249492357 -5.6568542494924 20.0
  endloop
endfacet
facet normal -0.0 -0.0 1.0
  outer loop
    vertex 5.656854249492357 -5.6568542494924 20.0
    vertex 21.9 -9.5 20.0
    vertex 6.346826722329861 -4.870091432069789 20.0
  endloop
endfacet
facet normal -0.0 -0.0 1.0
  outer loop
    vertex 6.346826722329861 -4.870091432069789 20.0
    vertex 21.9 -9.5 20.0
    vertex 6.928203230275491 -4.0000000000000275 20.0
  endloop
endfacet
facet normal -0.0 -0.0 1.0
  outer loop
    vertex 6.928203230275491 -4.0000000000000275 20.0
    vertex 21.9 -9.5 20.0
    vertex 7.391036260090279 -3.0614674589207485 20.0
  endloop
endfacet
facet normal -0.0 -0.0 1.0
  outer loop
    vertex 7.391036260090279 -3.0614674589207485 20.0
    vertex 21.9 -9.5 20.0
    vertex 7.727406610312536 -2.0705523608201997 20.0
  endloop
endfacet
facet normal -0.0 -0.0 1.0
  outer loop
    vertex 7.727406610312536 -2.0705523608201997 20.0
    vertex 21.9 -9.5 20.0
    vertex 7.931558890990477 -1.0442095377604486 20.0
  endloop
endfacet
facet normal -0.0 -0.0 1.0
  outer loop
    vertex 7.931558890990477 -1.0442095377604486 20.0
    vertex 21.9 -9.5 20.0
    vertex 7.999999999999998 0.0 20.0
  endloop
endfacet
facet normal -0.0 -0.0 1.0
  outer loop
    vertex -8.250874739028845 6.3311188616906975 20.0
    vertex -7.93155889099048 1.0442095377604192 20.0
    vertex -7.353910524340093 7.353910524340095 20.0
  endloop
endfacet
facet normal -0.0 -0.0 1.0
  outer loop
    vertex -7.93155889099048 1.0442095377604192 20.0
    vertex -8.250874739028845 6.3311188616906975 20.0
    vertex -7.999999999999998 8.085144796918883e-15 20.0
  endloop
endfacet
facet normal -0.0 -0.0 1.0
  outer loop
    vertex -7.353910524340093 7.353910524340095 20.0
    vertex -7.93155889099048 1.0442095377604192 20.0
    vertex -7.727406610312543 2.0705523608201712 20.0
  endloop
endfacet
facet normal -0.0 -0.0 1.0
  outer loop
    vertex -7.353910524340093 7.353910524340095 20.0
    vertex -7.727406610312543 2.0705523608201712 20.0
    vertex -7.39103626009029 3.0614674589207214 20.0
  endloop
endfacet
facet normal -0.0 -0.0 1.0
  outer loop
    vertex -7.353910524340093 7.353910524340095 20.0
    vertex -7.39103626009029 3.0614674589207214 20.0
    vertex -6.928203230275506 4.000000000000002 20.0
  endloop
endfacet
facet normal -0.0 -0.0 1.0
  outer loop
    vertex -7.353910524340093 7.353910524340095 20.0
    vertex -6.928203230275506 4.000000000000002 20.0
    vertex -6.331118861690696 8.250874739028847 20.0
  endloop
endfacet
facet normal -0.0 -0.0 1.0
  outer loop
    vertex -6.331118861690696 8.250874739028847 20.0
    vertex -6.928203230275506 4.000000000000002 20.0
    vertex -6.346826722329879 4.870091432069765 20.0
  endloop
endfacet
facet normal -0.0 -0.0 1.0
  outer loop
    vertex -6.331118861690696 8.250874739028847 20.0
    vertex -6.346826722329879 4.870091432069765 20.0
    vertex -5.656854249492378 5.65685424949238 20.0
  endloop
endfacet
facet normal -0.0 -0.0 1.0
  outer loop
    vertex -6.331118861690696 8.250874739028847 20.0
    vertex -5.656854249492378 5.65685424949238 20.0
    vertex -5.200000000000003 9.00666419935816 20.0
  endloop
endfacet
facet normal -0.0 -0.0 1.0
  outer loop
    vertex -5.200000000000003 9.00666419935816 20.0
    vertex -5.656854249492378 5.65685424949238 20.0
    vertex -4.870091432069764 6.3468267223298795 20.0
  endloop
endfacet
facet normal -0.0 -0.0 1.0
  outer loop
    vertex -5.200000000000003 9.00666419935816 20.0
    vertex -4.870091432069764 6.3468267223298795 20.0
    vertex -3.9799076965969373 9.60834713811738 20.0
  endloop
endfacet
facet normal -0.0 -0.0 1.0
  outer loop
    vertex -3.9799076965969373 9.60834713811738 20.0
    vertex -4.870091432069764 6.3468267223298795 20.0
    vertex -4.000000000000001 6.928203230275508 20.0
  endloop
endfacet
facet normal -0.0 -0.0 1.0
  outer loop
    vertex -3.9799076965969373 9.60834713811738 20.0
    vertex -4.000000000000001 6.928203230275508 20.0
    vertex -3.06146745892072 7.39103626009029 20.0
  endloop
endfacet
facet normal -0.0 -0.0 1.0
  outer loop
    vertex -3.9799076965969373 9.60834713811738 20.0
    vertex -3.06146745892072 7.39103626009029 20.0
    vertex -2.6917180690662192 10.04562859340631 20.0
  endloop
endfacet
facet normal -0.0 -0.0 1.0
  outer loop
    vertex -2.6917180690662192 10.04562859340631 20.0
    vertex -3.06146745892072 7.39103626009029 20.0
    vertex -2.070552360820168 7.727406610312544 20.0
  endloop
endfacet
facet normal -0.0 -0.0 1.0
  outer loop
    vertex -2.6917180690662192 10.04562859340631 20.0
    vertex -2.070552360820168 7.727406610312544 20.0
    vertex -1.3574723990885391 10.311026558287628 20.0
  endloop
endfacet
facet normal -0.0 -0.0 1.0
  outer loop
    vertex -1.3574723990885391 10.311026558287628 20.0
    vertex -2.070552360820168 7.727406610312544 20.0
    vertex -1.0442095377604144 7.93155889099048 20.0
  endloop
endfacet
facet normal -0.0 -0.0 1.0
  outer loop
    vertex -1.3574723990885391 10.311026558287628 20.0
    vertex -1.0442095377604144 7.93155889099048 20.0
    vertex -1.6724475556637022e-15 10.4 20.0
  endloop
endfacet
facet normal -0.0 -0.0 1.0
  outer loop
    vertex -1.6724475556637022e-15 10.4 20.0
    vertex -1.0442095377604144 7.93155889099048 20.0
    vertex -1.2864981197413089e-15 7.999999999999998 20.0
  endloop
endfacet
facet normal -0.0 -0.0 1.0
  outer loop
    vertex -1.6724475556637022e-15 10.4 20.0
    vertex -1.2864981197413089e-15 7.999999999999998 20.0
    vertex 1.3574723990885356 10.311026558287628 20.0
  endloop
endfacet
facet normal -0.0 -0.0 1.0
  outer loop
    vertex 1.3574723990885356 10.311026558287628 20.0
    vertex -1.2864981197413089e-15 7.999999999999998 20.0
    vertex 1.0442095377604117 7.93155889099048 20.0
  endloop
endfacet
facet normal -0.0 -0.0 1.0
  outer loop
    vertex 1.3574723990885356 10.311026558287628 20.0
    vertex 1.0442095377604117 7.93155889099048 20.0
    vertex 2.0705523608201655 7.727406610312544 20.0
  endloop
endfacet
facet normal -0.0 -0.0 1.0
  outer loop
    vertex 1.3574723990885356 10.311026558287628 20.0
    vertex 2.0705523608201655 7.727406610312544 20.0
    vertex 2.691718069066216 10.045628593406311 20.0
  endloop
endfacet
facet normal -0.0 -0.0 1.0
  outer loop
    vertex 2.691718069066216 10.045628593406311 20.0
    vertex 2.0705523608201655 7.727406610312544 20.0
    vertex 3.061467458920718 7.391036260090292 20.0
  endloop
endfacet
facet normal -0.0 -0.0 1.0
  outer loop
    vertex 2.691718069066216 10.045628593406311 20.0
    vertex 3.061467458920718 7.391036260090292 20.0
    vertex 2.8261355707322546 9.5 20.0
  endloop
endfacet
facet normal -0.0 -0.0 1.0
  outer loop
    vertex 2.691718069066216 10.045628593406311 20.0
    vertex 2.8261355707322546 9.5 20.0
    vertex 2.826135570732252 10.000000000000002 20.0
  endloop
endfacet
facet normal -0.0 -0.0 1.0
  outer loop
    vertex 2.8261355707322546 9.5 20.0
    vertex 3.061467458920718 7.391036260090292 20.0
    vertex 21.9 9.5 20.0
  endloop
endfacet
facet normal -0.0 -0.0 1.0
  outer loop
    vertex 21.9 9.5 20.0
    vertex 3.061467458920718 7.391036260090292 20.0
    vertex 3.9999999999999996 6.928203230275508 20.0
  endloop
endfacet
facet normal -0.0 -0.0 1.0
  outer loop
    vertex 21.9 9.5 20.0
    vertex 3.9999999999999996 6.928203230275508 20.0
    vertex 4.870091432069765 6.346826722329879 20.0
  endloop
endfacet
facet normal -0.0 -0.0 1.0
  outer loop
    vertex 21.9 9.5 20.0
    vertex 4.870091432069765 6.346826722329879 20.0
    vertex 5.656854249492381 5.656854249492378 20.0
  endloop
endfacet
facet normal -0.0 -0.0 1.0
  outer loop
    vertex 21.9 9.5 20.0
    vertex 5.656854249492381 5.656854249492378 20.0
    vertex 6.34682672232988 4.8700914320697635 20.0
  endloop
endfacet
facet normal -0.0 -0.0 1.0
  outer loop
    vertex 21.9 9.5 20.0
    vertex 6.34682672232988 4.8700914320697635 20.0
    vertex 6.928203230275508 3.9999999999999982 20.0
  endloop
endfacet
facet normal -0.0 -0.0 1.0
  outer loop
    vertex 21.9 9.5 20.0
    vertex 6.928203230275508 3.9999999999999982 20.0
    vertex 7.391036260090292 3.0614674589207174 20.0
  endloop
endfacet
facet normal -0.0 -0.0 1.0
  outer loop
    vertex 21.9 9.5 20.0
    vertex 7.391036260090292 3.0614674589207174 20.0
    vertex 7.727406610312544 2.0705523608201655 20.0
  endloop
endfacet
facet normal -0.0 -0.0 1.0
  outer loop
    vertex 21.9 9.5 20.0
    vertex 7.727406610312544 2.0705523608201655 20.0
    vertex 7.93155889099048 1.0442095377604124 20.0
  endloop
endfacet
facet normal -0.0 -0.0 1.0
  outer loop
    vertex 21.9 9.5 20.0
    vertex 7.93155889099048 1.0442095377604124 20.0
    vertex 7.999999999999998 0.0 20.0
  endloop
endfacet
facet normal -0.0 -0.0 1.0
  outer loop
    vertex 21.9 9.5 20.0
    vertex 7.999999999999998 0.0 20.0
    vertex 21.9 -9.5 20.0
  endloop
endfacet
facet normal 0.32143946530316125 -0.9469301294951058 -1.503152140292571e-17
  outer loop
    vertex 2.8261355707322475 -10.0 19.5
    vertex 2.6917180690661846 -10.045628593406319 0.0
    vertex 2.8261355707322484 -9.999999999999998 0.0
  endloop
endfacet
facet normal 0.32143946530316125 -0.9469301294951058 -1.503152140292571e-17
  outer loop
    vertex 2.6917180690661846 -10.045628593406319 0.0
    vertex 2.8261355707322475 -10.0 19.5
    vertex 2.6917180690661846 -10.045628593406319 20.0
  endloop
endfacet
facet normal 0.32143946530316125 -0.9469301294951058 -1.503152140292571e-17
  outer loop
    vertex 2.6917180690661846 -10.045628593406319 20.0
    vertex 2.8261355707322475 -10.0 19.5
    vertex 2.8261355707322484 -9.999999999999998 20.0
  endloop
endfacet
facet normal 0.19509032201612503 -0.9807852804032312 0.0
  outer loop
    vertex 2.6917180690661846 -10.045628593406319 20.0
    vertex 1.3574723990885056 -10.311026558287633 0.0
    vertex 2.6917180690661846 -10.045628593406319 0.0
  endloop
endfacet
facet normal 0.19509032201612503 -0.9807852804032312 0.0
  outer loop
    vertex 1.3574723990885056 -10.311026558287633 0.0
    vertex 2.6917180690661846 -10.045628593406319 20.0
    vertex 1.3574723990885056 -10.311026558287633 20.0
  endloop
endfacet
facet normal 0.06540312923014045 -0.9978589232386037 0.0
  outer loop
    vertex 1.3574723990885056 -10.311026558287633 20.0
    vertex -2.962161570131378e-14 -10.4 0.0
    vertex 1.3574723990885056 -10.311026558287633 0.0
  endloop
endfacet
facet normal 0.06540312923014045 -0.9978589232386037 0.0
  outer loop
    vertex -2.962161570131378e-14 -10.4 0.0
    vertex 1.3574723990885056 -10.311026558287633 20.0
    vertex -2.962161570131378e-14 -10.4 20.0
  endloop
endfacet
facet normal -0.06540312923014563 -0.9978589232386035 -0.0
  outer loop
    vertex -2.962161570131378e-14 -10.4 20.0
    vertex -1.3574723990885644 -10.311026558287626 0.0
    vertex -2.962161570131378e-14 -10.4 0.0
  endloop
endfacet
facet normal -0.06540312923014563 -0.9978589232386035 -0.0
  outer loop
    vertex -1.3574723990885644 -10.311026558287626 0.0
    vertex -2.962161570131378e-14 -10.4 20.0
    vertex -1.3574723990885644 -10.311026558287626 20.0
  endloop
endfacet
facet normal -0.19509032201613125 -0.98078528040323 -0.0
  outer loop
    vertex -1.3574723990885644 -10.311026558287626 20.0
    vertex -2.691718069066242 -10.045628593406304 0.0
    vertex -1.3574723990885644 -10.311026558287626 0.0
  endloop
endfacet
facet normal -0.19509032201613125 -0.98078528040323 -0.0
  outer loop
    vertex -2.691718069066242 -10.045628593406304 0.0
    vertex -1.3574723990885644 -10.311026558287626 20.0
    vertex -2.691718069066242 -10.045628593406304 20.0
  endloop
endfacet
facet normal -0.3214394653031635 -0.9469301294951051 -0.0
  outer loop
    vertex -2.691718069066242 -10.045628593406304 20.0
    vertex -3.979907696596957 -9.608347138117374 0.0
    vertex -2.691718069066242 -10.045628593406304 0.0
  endloop
endfacet
facet normal -0.3214394653031635 -0.9469301294951051 -0.0
  outer loop
    vertex -3.979907696596957 -9.608347138117374 0.0
    vertex -2.691718069066242 -10.045628593406304 20.0
    vertex -3.979907696596957 -9.608347138117374 20.0
  endloop
endfacet
facet normal -0.44228869021900424 -0.8968727415326869 -0.0
  outer loop
    vertex -3.979907696596957 -9.608347138117374 20.0
    vertex -5.20000000000002 -9.00666419935815 0.0
    vertex -3.979907696596957 -9.608347138117374 0.0
  endloop
endfacet
facet normal -0.44228869021900424 -0.8968727415326869 -0.0
  outer loop
    vertex -5.20000000000002 -9.00666419935815 0.0
    vertex -3.979907696596957 -9.608347138117374 20.0
    vertex -5.20000000000002 -9.00666419935815 20.0
  endloop
endfacet
facet normal -0.5555702330196034 -0.8314696123025446 -0.0
  outer loop
    vertex -5.20000000000002 -9.00666419935815 20.0
    vertex -6.331118861690713 -8.250874739028832 0.0
    vertex -5.20000000000002 -9.00666419935815 0.0
  endloop
endfacet
facet normal -0.5555702330196034 -0.8314696123025446 -0.0
  outer loop
    vertex -6.331118861690713 -8.250874739028832 0.0
    vertex -5.20000000000002 -9.00666419935815 20.0
    vertex -6.331118861690713 -8.250874739028832 20.0
  endloop
endfacet
facet normal -0.6593458151000705 -0.751839807478976 -0.0
  outer loop
    vertex -6.331118861690713 -8.250874739028832 20.0
    vertex -7.353910524340109 -7.353910524340081 0.0
    vertex -6.331118861690713 -8.250874739028832 0.0
  endloop
endfacet
facet normal -0.6593458151000705 -0.751839807478976 -0.0
  outer loop
    vertex -7.353910524340109 -7.353910524340081 0.0
    vertex -6.331118861690713 -8.250874739028832 20.0
    vertex -7.353910524340109 -7.353910524340081 20.0
  endloop
endfacet
facet normal -0.751839807478979 -0.6593458151000672 -0.0
  outer loop
    vertex -8.250874739028857 -6.33111886169068 20.0
    vertex -7.353910524340109 -7.353910524340081 0.0
    vertex -7.353910524340109 -7.353910524340081 20.0
  endloop
endfacet
facet normal -0.751839807478979 -0.6593458151000672 -0.0
  outer loop
    vertex -7.353910524340109 -7.353910524340081 0.0
    vertex -8.250874739028857 -6.33111886169068 20.0
    vertex -8.250874739028857 -6.33111886169068 0.0
  endloop
endfacet
facet normal -0.8968727415326894 -0.4422886902189992 -0.0
  outer loop
    vertex -9.608347138117388 -3.9799076965969196 20.0
    vertex -9.006664199358172 -5.199999999999986 0.0
    vertex -9.006664199358172 -5.199999999999986 20.0
  endloop
endfacet
facet normal -0.8968727415326894 -0.4422886902189992 -0.0
  outer loop
    vertex -9.006664199358172 -5.199999999999986 0.0
    vertex -9.608347138117388 -3.9799076965969196 20.0
    vertex -9.608347138117388 -3.9799076965969196 0.0
  endloop
endfacet
facet normal -0.9978589232386037 -0.0654031292301415 -0.0
  outer loop
    vertex -10.4 1.0510688235994551e-14 20.0
    vertex -10.311026558287631 -1.3574723990885247 0.0
    vertex -10.311026558287631 -1.3574723990885247 20.0
  endloop
endfacet
facet normal -0.9978589232386037 -0.0654031292301415 -0.0
  outer loop
    vertex -10.311026558287631 -1.3574723990885247 0.0
    vertex -10.4 1.0510688235994551e-14 20.0
    vertex -10.4 1.0510688235994551e-14 0.0
  endloop
endfacet
facet normal -0.9807852804032307 -0.19509032201612714 -0.0
  outer loop
    vertex -10.311026558287631 -1.3574723990885247 20.0
    vertex -10.045628593406315 -2.6917180690662024 0.0
    vertex -10.045628593406315 -2.6917180690662024 20.0
  endloop
endfacet
facet normal -0.9807852804032307 -0.19509032201612714 -0.0
  outer loop
    vertex -10.045628593406315 -2.6917180690662024 0.0
    vertex -10.311026558287631 -1.3574723990885247 20.0
    vertex -10.311026558287631 -1.3574723990885247 0.0
  endloop
endfacet
facet normal -0.946930129495106 -0.32143946530316114 -0.0
  outer loop
    vertex -10.045628593406315 -2.6917180690662024 20.0
    vertex -9.608347138117388 -3.9799076965969196 0.0
    vertex -9.608347138117388 -3.9799076965969196 20.0
  endloop
endfacet
facet normal -0.946930129495106 -0.32143946530316114 -0.0
  outer loop
    vertex -9.608347138117388 -3.9799076965969196 0.0
    vertex -10.045628593406315 -2.6917180690662024 20.0
    vertex -10.045628593406315 -2.6917180690662024 0.0
  endloop
endfacet
facet normal -0.8314696123025459 -0.5555702330196012 -0.0
  outer loop
    vertex -9.006664199358172 -5.199999999999986 20.0
    vertex -8.250874739028857 -6.33111886169068 0.0
    vertex -8.250874739028857 -6.33111886169068 20.0
  endloop
endfacet
facet normal -0.8314696123025459 -0.5555702330196012 -0.0
  outer loop
    vertex -8.250874739028857 -6.33111886169068 0.0
    vertex -9.006664199358172 -5.199999999999986 20.0
    vertex -9.006664199358172 -5.199999999999986 0.0
  endloop
endfacet
facet normal -0.9978589232386035 0.0654031292301446 0.0
  outer loop
    vertex -10.311026558287628 1.3574723990885453 20.0
    vertex -10.4 1.0510688235994551e-14 0.0
    vertex -10.4 1.0510688235994551e-14 20.0
  endloop
endfacet
facet normal -0.9978589232386035 0.0654031292301446 0.0
  outer loop
    vertex -10.4 1.0510688235994551e-14 0.0
    vertex -10.311026558287628 1.3574723990885453 20.0
    vertex -10.311026558287628 1.3574723990885453 0.0
  endloop
endfacet
facet normal -0.9807852804032307 0.1950903220161282 0.0
  outer loop
    vertex -10.04562859340631 2.6917180690662232 20.0
    vertex -10.311026558287628 1.3574723990885453 0.0
    vertex -10.311026558287628 1.3574723990885453 20.0
  endloop
endfacet
facet normal -0.9807852804032307 0.1950903220161282 0.0
  outer loop
    vertex -10.311026558287628 1.3574723990885453 0.0
    vertex -10.04562859340631 2.6917180690662232 20.0
    vertex -10.04562859340631 2.6917180690662232 0.0
  endloop
endfacet
facet normal -0.9469301294951056 0.3214394653031623 0.0
  outer loop
    vertex -9.60834713811738 3.979907696596939 20.0
    vertex -10.04562859340631 2.6917180690662232 0.0
    vertex -10.04562859340631 2.6917180690662232 20.0
  endloop
endfacet
facet normal -0.9469301294951056 0.3214394653031623 0.0
  outer loop
    vertex -10.04562859340631 2.6917180690662232 0.0
    vertex -9.60834713811738 3.979907696596939 20.0
    vertex -9.60834713811738 3.979907696596939 0.0
  endloop
endfacet
facet normal -0.8968727415326885 0.4422886902190014 0.0
  outer loop
    vertex -9.00666419935816 5.200000000000004 20.0
    vertex -9.60834713811738 3.979907696596939 0.0
    vertex -9.60834713811738 3.979907696596939 20.0
  endloop
endfacet
facet normal -0.8968727415326885 0.4422886902190014 0.0
  outer loop
    vertex -9.60834713811738 3.979907696596939 0.0
    vertex -9.00666419935816 5.200000000000004 20.0
    vertex -9.00666419935816 5.200000000000004 0.0
  endloop
endfacet
facet normal -0.8314696123025448 0.5555702330196028 0.0
  outer loop
    vertex -8.250874739028845 6.3311188616906975 20.0
    vertex -9.00666419935816 5.200000000000004 0.0
    vertex -9.00666419935816 5.200000000000004 20.0
  endloop
endfacet
facet normal -0.8314696123025448 0.5555702330196028 0.0
  outer loop
    vertex -9.00666419935816 5.200000000000004 0.0
    vertex -8.250874739028845 6.3311188616906975 20.0
    vertex -8.250874739028845 6.3311188616906975 0.0
  endloop
endfacet
facet normal -0.7518398074789769 0.6593458151000696 0.0
  outer loop
    vertex -7.353910524340093 7.353910524340095 20.0
    vertex -8.250874739028845 6.3311188616906975 0.0
    vertex -8.250874739028845 6.3311188616906975 20.0
  endloop
endfacet
facet normal -0.7518398074789769 0.6593458151000696 0.0
  outer loop
    vertex -8.250874739028845 6.3311188616906975 0.0
    vertex -7.353910524340093 7.353910524340095 20.0
    vertex -7.353910524340093 7.353910524340095 0.0
  endloop
endfacet
facet normal -0.6593458151000694 0.7518398074789772 0.0
  outer loop
    vertex -7.353910524340093 7.353910524340095 20.0
    vertex -6.331118861690696 8.250874739028847 0.0
    vertex -7.353910524340093 7.353910524340095 0.0
  endloop
endfacet
facet normal -0.6593458151000694 0.7518398074789772 0.0
  outer loop
    vertex -6.331118861690696 8.250874739028847 0.0
    vertex -7.353910524340093 7.353910524340095 20.0
    vertex -6.331118861690696 8.250874739028847 20.0
  endloop
endfacet
facet normal -0.5555702330196024 0.831469612302545 0.0
  outer loop
    vertex -6.331118861690696 8.250874739028847 20.0
    vertex -5.200000000000003 9.00666419935816 0.0
    vertex -6.331118861690696 8.250874739028847 0.0
  endloop
endfacet
facet normal -0.5555702330196024 0.831469612302545 0.0
  outer loop
    vertex -5.200000000000003 9.00666419935816 0.0
    vertex -6.331118861690696 8.250874739028847 20.0
    vertex -5.200000000000003 9.00666419935816 20.0
  endloop
endfacet
facet normal -0.44228869021900113 0.8968727415326885 0.0
  outer loop
    vertex -5.200000000000003 9.00666419935816 20.0
    vertex -3.9799076965969373 9.60834713811738 0.0
    vertex -5.200000000000003 9.00666419935816 0.0
  endloop
endfacet
facet normal -0.44228869021900113 0.8968727415326885 0.0
  outer loop
    vertex -3.9799076965969373 9.60834713811738 0.0
    vertex -5.200000000000003 9.00666419935816 20.0
    vertex -3.9799076965969373 9.60834713811738 20.0
  endloop
endfacet
facet normal -0.3214394653031619 0.9469301294951056 0.0
  outer loop
    vertex -3.9799076965969373 9.60834713811738 20.0
    vertex -2.6917180690662192 10.04562859340631 0.0
    vertex -3.9799076965969373 9.60834713811738 0.0
  endloop
endfacet
facet normal -0.3214394653031619 0.9469301294951056 0.0
  outer loop
    vertex -2.6917180690662192 10.04562859340631 0.0
    vertex -3.9799076965969373 9.60834713811738 20.0
    vertex -2.6917180690662192 10.04562859340631 20.0
  endloop
endfacet
facet normal -0.1950903220161288 0.9807852804032303 0.0
  outer loop
    vertex -2.6917180690662192 10.04562859340631 20.0
    vertex -1.3574723990885391 10.311026558287628 0.0
    vertex -2.6917180690662192 10.04562859340631 0.0
  endloop
endfacet
facet normal -0.1950903220161288 0.9807852804032303 0.0
  outer loop
    vertex -1.3574723990885391 10.311026558287628 0.0
    vertex -2.6917180690662192 10.04562859340631 20.0
    vertex -1.3574723990885391 10.311026558287628 20.0
  endloop
endfacet
facet normal -0.06540312923014344 0.9978589232386035 0.0
  outer loop
    vertex -1.3574723990885391 10.311026558287628 20.0
    vertex -1.6724475556637022e-15 10.4 0.0
    vertex -1.3574723990885391 10.311026558287628 0.0
  endloop
endfacet
facet normal -0.06540312923014344 0.9978589232386035 0.0
  outer loop
    vertex -1.6724475556637022e-15 10.4 0.0
    vertex -1.3574723990885391 10.311026558287628 20.0
    vertex -1.6724475556637022e-15 10.4 20.0
  endloop
endfacet
facet normal 0.06540312923014346 0.9978589232386036 0.0
  outer loop
    vertex -1.6724475556637022e-15 10.4 20.0
    vertex 1.3574723990885356 10.311026558287628 0.0
    vertex -1.6724475556637022e-15 10.4 0.0
  endloop
endfacet
facet normal 0.06540312923014346 0.9978589232386036 0.0
  outer loop
    vertex 1.3574723990885356 10.311026558287628 0.0
    vertex -1.6724475556637022e-15 10.4 20.0
    vertex 1.3574723990885356 10.311026558287628 20.0
  endloop
endfacet
facet normal 0.1950903220161278 0.9807852804032305 0.0
  outer loop
    vertex 1.3574723990885356 10.311026558287628 20.0
    vertex 2.691718069066216 10.045628593406311 0.0
    vertex 1.3574723990885356 10.311026558287628 0.0
  endloop
endfacet
facet normal 0.1950903220161278 0.9807852804032305 0.0
  outer loop
    vertex 2.691718069066216 10.045628593406311 0.0
    vertex 1.3574723990885356 10.311026558287628 20.0
    vertex 2.691718069066216 10.045628593406311 20.0
  endloop
endfacet
facet normal 0.32143946530315276 0.9469301294951088 5.881899679408079e-18
  outer loop
    vertex 2.691718069066216 10.045628593406311 20.0
    vertex 2.826135570732252 10.000000000000002 0.0
    vertex 2.691718069066216 10.045628593406311 0.0
  endloop
endfacet
facet normal 0.32143946530315276 0.9469301294951088 5.881899679408079e-18
  outer loop
    vertex 2.826135570732252 10.000000000000002 0.0
    vertex 2.691718069066216 10.045628593406311 20.0
    vertex 2.8261355707322546 10.0 19.5
  endloop
endfacet
facet normal 0.32143946530315276 0.9469301294951088 5.881899679408079e-18
  outer loop
    vertex 2.8261355707322546 10.0 19.5
    vertex 2.691718069066216 10.045628593406311 20.0
    vertex 2.826135570732252 10.000000000000002 20.0
  endloop
endfacet
facet normal 1.0 -0.0 -0.0
  outer loop
    vertex 13.4 10.0 0.49999999999999994
    vertex 13.4 -10.0 16.3
    vertex 13.4 -10.0 0.49999999999999994
  endloop
endfacet
facet normal 1.0 -0.0 -0.0
  outer loop
    vertex 13.4 -10.0 16.3
    vertex 13.4 10.0 0.49999999999999994
    vertex 13.4 9.999999999999996 16.3
  endloop
endfacet
facet normal -0.9978589232386036 -0.06540312923014371 -0.0
  outer loop
    vertex 7.93155889099048 1.0442095377604124 20.0
    vertex 7.999999999999998 0.0 0.0
    vertex 7.999999999999998 0.0 20.0
  endloop
endfacet
facet normal -0.9978589232386036 -0.06540312923014371 -0.0
  outer loop
    vertex 7.999999999999998 0.0 0.0
    vertex 7.93155889099048 1.0442095377604124 20.0
    vertex 7.93155889099048 1.0442095377604124 0.0
  endloop
endfacet
facet normal -0.9807852804032305 -0.19509032201612797 -0.0
  outer loop
    vertex 7.727406610312544 2.0705523608201655 20.0
    vertex 7.93155889099048 1.0442095377604124 0.0
    vertex 7.93155889099048 1.0442095377604124 20.0
  endloop
endfacet
facet normal -0.9807852804032305 -0.19509032201612797 -0.0
  outer loop
    vertex 7.93155889099048 1.0442095377604124 0.0
    vertex 7.727406610312544 2.0705523608201655 20.0
    vertex 7.727406610312544 2.0705523608201655 0.0
  endloop
endfacet
facet normal -0.9469301294951059 -0.32143946530316153 -0.0
  outer loop
    vertex 7.391036260090292 3.0614674589207174 20.0
    vertex 7.727406610312544 2.0705523608201655 0.0
    vertex 7.727406610312544 2.0705523608201655 20.0
  endloop
endfacet
facet normal -0.9469301294951059 -0.32143946530316153 -0.0
  outer loop
    vertex 7.727406610312544 2.0705523608201655 0.0
    vertex 7.391036260090292 3.0614674589207174 20.0
    vertex 7.391036260090292 3.0614674589207174 0.0
  endloop
endfacet
facet normal -0.8968727415326884 -0.4422886902190012 -0.0
  outer loop
    vertex 6.928203230275508 3.9999999999999982 20.0
    vertex 7.391036260090292 3.0614674589207174 0.0
    vertex 7.391036260090292 3.0614674589207174 20.0
  endloop
endfacet
facet normal -0.8968727415326884 -0.4422886902190012 -0.0
  outer loop
    vertex 7.391036260090292 3.0614674589207174 0.0
    vertex 6.928203230275508 3.9999999999999982 20.0
    vertex 6.928203230275508 3.9999999999999982 0.0
  endloop
endfacet
facet normal -0.8314696123025455 -0.555570233019602 -0.0
  outer loop
    vertex 6.34682672232988 4.8700914320697635 20.0
    vertex 6.928203230275508 3.9999999999999982 0.0
    vertex 6.928203230275508 3.9999999999999982 20.0
  endloop
endfacet
facet normal -0.8314696123025455 -0.555570233019602 -0.0
  outer loop
    vertex 6.928203230275508 3.9999999999999982 0.0
    vertex 6.34682672232988 4.8700914320697635 20.0
    vertex 6.34682672232988 4.8700914320697635 0.0
  endloop
endfacet
facet normal -0.7518398074789777 -0.6593458151000686 -0.0
  outer loop
    vertex 5.656854249492381 5.656854249492378 20.0
    vertex 6.34682672232988 4.8700914320697635 0.0
    vertex 6.34682672232988 4.8700914320697635 20.0
  endloop
endfacet
facet normal -0.7518398074789777 -0.6593458151000686 -0.0
  outer loop
    vertex 6.34682672232988 4.8700914320697635 0.0
    vertex 5.656854249492381 5.656854249492378 20.0
    vertex 5.656854249492381 5.656854249492378 0.0
  endloop
endfacet
facet normal -0.6593458151000686 -0.7518398074789776 -0.0
  outer loop
    vertex 5.656854249492381 5.656854249492378 20.0
    vertex 4.870091432069765 6.346826722329879 0.0
    vertex 5.656854249492381 5.656854249492378 0.0
  endloop
endfacet
facet normal -0.6593458151000686 -0.7518398074789776 -0.0
  outer loop
    vertex 4.870091432069765 6.346826722329879 0.0
    vertex 5.656854249492381 5.656854249492378 20.0
    vertex 4.870091432069765 6.346826722329879 20.0
  endloop
endfacet
facet normal -0.5555702330196028 -0.8314696123025448 -0.0
  outer loop
    vertex 4.870091432069765 6.346826722329879 20.0
    vertex 3.9999999999999996 6.928203230275508 0.0
    vertex 4.870091432069765 6.346826722329879 0.0
  endloop
endfacet
facet normal -0.5555702330196028 -0.8314696123025448 -0.0
  outer loop
    vertex 3.9999999999999996 6.928203230275508 0.0
    vertex 4.870091432069765 6.346826722329879 20.0
    vertex 3.9999999999999996 6.928203230275508 20.0
  endloop
endfacet
endsolid 14028 - drzak hadice
