solid model
facet normal 0.0 -4.163336342344337e-17 1.0
outer loop
vertex 0.48586859037582286 -6.818531549131705 53.68633284864553
vertex -7.740563409624177 88.26989918691156 53.68633284864551
vertex -7.740563409624177 -6.818531549131705 53.68633284864553
endloop
endfacet
facet normal 0.0 -4.163336342344337e-17 1.0
outer loop
vertex -7.740563409624177 88.26989918691156 53.68633284864551
vertex 0.48586859037582286 -6.818531549131705 53.68633284864553
vertex 0.0 -0.15226881308838539 53.68633284864553
endloop
endfacet
facet normal 0.0 -4.163336342344337e-17 1.0
outer loop
vertex 0.0 -0.15226881308838539 53.68633284864553
vertex 0.48586859037582286 -6.818531549131705 53.68633284864553
vertex 18.51411322844834 2.5328842509846012 53.686332848645506
endloop
endfacet
facet normal 0.0 -4.163336342344337e-17 1.0
outer loop
vertex 18.51411322844834 2.5328842509846012 53.686332848645506
vertex 0.48586859037582286 -6.818531549131705 53.68633284864553
vertex 84.9451427831914 5.430830658491901 53.68633284864551
endloop
endfacet
facet normal 0.0 -4.163336342344337e-17 1.0
outer loop
vertex 18.51411322844834 2.5328842509846012 53.686332848645506
vertex 84.9451427831914 5.430830658491901 53.68633284864551
vertex 37.02822645689668 5.218037315057585 53.68633284864551
endloop
endfacet
facet normal 0.0 -4.163336342344337e-17 1.0
outer loop
vertex 37.02822645689668 5.218037315057585 53.68633284864551
vertex 84.9451427831914 5.430830658491901 53.68633284864551
vertex 59.27925958781907 8.445166211432658 53.686332848645506
endloop
endfacet
facet normal 0.0 -4.163336342344337e-17 1.0
outer loop
vertex 59.27925958781907 8.445166211432658 53.686332848645506
vertex 84.9451427831914 5.430830658491901 53.68633284864551
vertex 84.9451427831914 12.167560260438355 53.686332848645534
endloop
endfacet
facet normal 0.0 -4.163336342344337e-17 1.0
outer loop
vertex 84.9451427831914 12.167560260438355 53.686332848645534
vertex 84.9451427831914 5.430830658491901 53.68633284864551
vertex 176.8453293378421 -50.44354716708529 53.68633284864553
endloop
endfacet
facet normal 0.0 -4.163336342344337e-17 1.0
outer loop
vertex 84.9451427831914 12.167560260438355 53.686332848645534
vertex 176.8453293378421 -50.44354716708529 53.68633284864553
vertex 108.94331596497099 -2.034936755543547 53.68633284864551
endloop
endfacet
facet normal 0.0 -4.163336342344337e-17 1.0
outer loop
vertex 108.94331596497099 -2.034936755543547 53.68633284864551
vertex 176.8453293378421 -50.44354716708529 53.68633284864553
vertex 132.94148914675063 -16.237433771525417 53.686332848645506
endloop
endfacet
facet normal 0.0 -4.163336342344337e-17 1.0
outer loop
vertex 132.94148914675063 -16.237433771525417 53.686332848645506
vertex 176.8453293378421 -50.44354716708529 53.68633284864553
vertex 154.832582262484 -29.192927604232597 53.68633284864553
endloop
endfacet
facet normal 0.0 -4.163336342344337e-17 1.0
outer loop
vertex 154.832582262484 -29.192927604232597 53.68633284864553
vertex 176.8453293378421 -50.44354716708529 53.68633284864553
vertex 176.8453293378421 -42.22041816708527 53.68633284864555
endloop
endfacet
facet normal 0.0 -4.163336342344337e-17 1.0
outer loop
vertex 176.8453293378421 -42.22041816708527 53.68633284864555
vertex 176.8453293378421 -50.44354716708529 53.68633284864553
vertex 185.20785333784207 -50.44354716708529 53.68633284864553
endloop
endfacet
facet normal 0.0 -4.163336342344337e-17 1.0
outer loop
vertex 176.8453293378421 -42.22041816708527 53.68633284864555
vertex 185.20785333784207 -50.44354716708529 53.68633284864553
vertex 176.8453293378421 33.70238940163002 53.686332848645506
endloop
endfacet
facet normal 0.0 -4.163336342344337e-17 1.0
outer loop
vertex -7.740563409624177 88.26989918691156 53.68633284864551
vertex 0.0 79.99728818691158 53.68633284864555
vertex 84.9451427831914 88.26989918691156 53.68633284864551
endloop
endfacet
facet normal 0.0 -4.163336342344337e-17 1.0
outer loop
vertex 0.0 79.99728818691158 53.68633284864555
vertex -7.740563409624177 88.26989918691156 53.68633284864551
vertex 0.0 -0.15226881308838539 53.68633284864553
endloop
endfacet
facet normal 0.0 -4.163336342344337e-17 1.0
outer loop
vertex 84.9451427831914 88.26989918691156 53.68633284864551
vertex 0.0 79.99728818691158 53.68633284864555
vertex 18.51411322844834 79.99728818691158 53.68633284864555
endloop
endfacet
facet normal 0.0 -4.163336342344337e-17 1.0
outer loop
vertex 84.9451427831914 88.26989918691156 53.68633284864551
vertex 18.51411322844834 79.99728818691158 53.68633284864555
vertex 37.02822645689668 79.99728818691158 53.68633284864555
endloop
endfacet
facet normal 0.0 -4.163336342344337e-17 1.0
outer loop
vertex 84.9451427831914 88.26989918691156 53.68633284864551
vertex 37.02822645689668 79.99728818691158 53.68633284864555
vertex 59.279259587819055 79.99728818691158 53.68633284864555
endloop
endfacet
facet normal 0.0 -4.163336342344337e-17 1.0
outer loop
vertex 84.9451427831914 88.26989918691156 53.68633284864551
vertex 59.279259587819055 79.99728818691158 53.68633284864555
vertex 84.9451427831914 79.99728818691158 53.68633284864555
endloop
endfacet
facet normal 0.0 -4.163336342344337e-17 1.0
outer loop
vertex 84.9451427831914 88.26989918691156 53.68633284864551
vertex 84.9451427831914 79.99728818691158 53.68633284864555
vertex 108.94331596497099 67.90816149268592 53.68633284864553
endloop
endfacet
facet normal 0.0 -4.163336342344337e-17 1.0
outer loop
vertex 84.9451427831914 88.26989918691156 53.68633284864551
vertex 108.94331596497099 67.90816149268592 53.68633284864553
vertex 185.20785333784207 33.70238940163002 53.686332848645506
endloop
endfacet
facet normal 0.0 -4.163336342344337e-17 1.0
outer loop
vertex 185.20785333784207 33.70238940163002 53.686332848645506
vertex 108.94331596497099 67.90816149268592 53.68633284864553
vertex 132.94148914675063 55.81903479846025 53.686332848645534
endloop
endfacet
facet normal 0.0 -4.163336342344337e-17 1.0
outer loop
vertex 185.20785333784207 33.70238940163002 53.686332848645506
vertex 132.94148914675063 55.81903479846025 53.686332848645534
vertex 154.832582262484 44.79135381013739 53.68633284864555
endloop
endfacet
facet normal 0.0 -4.163336342344337e-17 1.0
outer loop
vertex 185.20785333784207 33.70238940163002 53.686332848645506
vertex 154.832582262484 44.79135381013739 53.68633284864555
vertex 176.8453293378421 33.70238940163002 53.686332848645506
endloop
endfacet
facet normal 0.0 -4.163336342344337e-17 1.0
outer loop
vertex 185.20785333784207 33.70238940163002 53.686332848645506
vertex 176.8453293378421 33.70238940163002 53.686332848645506
vertex 185.20785333784207 -50.44354716708529 53.68633284864553
endloop
endfacet
facet normal 0.0 4.163336342344337e-17 -1.0
outer loop
vertex -7.740563409624177 88.26989918691153 1.2506478486455566
vertex 0.0 79.9972881869116 1.2506478486455699
vertex -7.740563409624177 -6.818531549131699 1.2506478486455115
endloop
endfacet
facet normal 0.0 4.163336342344337e-17 -1.0
outer loop
vertex 0.0 79.9972881869116 1.2506478486455699
vertex -7.740563409624177 88.26989918691153 1.2506478486455566
vertex 84.9451427831914 88.26989918691153 1.2506478486455566
endloop
endfacet
facet normal 0.0 4.163336342344337e-17 -1.0
outer loop
vertex 0.0 79.9972881869116 1.2506478486455699
vertex 84.9451427831914 88.26989918691153 1.2506478486455566
vertex 15.258054921937797 79.9972881869116 1.2506478486455699
endloop
endfacet
facet normal 0.0 4.163336342344337e-17 -1.0
outer loop
vertex 15.258054921937797 79.9972881869116 1.2506478486455699
vertex 84.9451427831914 88.26989918691153 1.2506478486455566
vertex 18.51411322844834 79.9972881869116 1.2506478486455699
endloop
endfacet
facet normal 0.0 4.163336342344337e-17 -1.0
outer loop
vertex 18.51411322844834 79.9972881869116 1.2506478486455699
vertex 84.9451427831914 88.26989918691153 1.2506478486455566
vertex 21.77017153495888 79.9972881869116 1.2506478486455699
endloop
endfacet
facet normal 0.0 4.163336342344337e-17 -1.0
outer loop
vertex 21.77017153495888 79.9972881869116 1.2506478486455699
vertex 84.9451427831914 88.26989918691153 1.2506478486455566
vertex 33.68410237641251 79.9972881869116 1.2506478486455699
endloop
endfacet
facet normal 0.0 4.163336342344337e-17 -1.0
outer loop
vertex 33.68410237641251 79.9972881869116 1.2506478486455699
vertex 84.9451427831914 88.26989918691153 1.2506478486455566
vertex 37.02822645689668 79.9972881869116 1.2506478486455699
endloop
endfacet
facet normal 0.0 4.163336342344337e-17 -1.0
outer loop
vertex 37.02822645689668 79.9972881869116 1.2506478486455699
vertex 84.9451427831914 88.26989918691153 1.2506478486455566
vertex 40.37235053738084 79.9972881869116 1.2506478486455699
endloop
endfacet
facet normal 0.0 4.163336342344337e-17 -1.0
outer loop
vertex 40.37235053738084 79.9972881869116 1.2506478486455699
vertex 84.9451427831914 88.26989918691153 1.2506478486455566
vertex 56.40475386264819 79.9972881869116 1.2506478486455699
endloop
endfacet
facet normal 0.0 4.163336342344337e-17 -1.0
outer loop
vertex 56.40475386264819 79.9972881869116 1.2506478486455699
vertex 84.9451427831914 88.26989918691153 1.2506478486455566
vertex 59.279259587819055 79.9972881869116 1.2506478486455699
endloop
endfacet
facet normal 0.0 4.163336342344337e-17 -1.0
outer loop
vertex 59.279259587819055 79.9972881869116 1.2506478486455699
vertex 84.9451427831914 88.26989918691153 1.2506478486455566
vertex 62.15376531298992 79.9972881869116 1.2506478486455699
endloop
endfacet
facet normal 0.0 4.163336342344337e-17 -1.0
outer loop
vertex 62.15376531298992 79.9972881869116 1.2506478486455699
vertex 84.9451427831914 88.26989918691153 1.2506478486455566
vertex 80.63099778319139 79.9972881869116 1.2506478486455699
endloop
endfacet
facet normal 0.0 4.163336342344337e-17 -1.0
outer loop
vertex 80.63099778319139 79.9972881869116 1.2506478486455699
vertex 84.9451427831914 88.26989918691153 1.2506478486455566
vertex 84.9451427831914 79.9972881869116 1.2506478486455699
endloop
endfacet
facet normal 0.0 4.163336342344337e-17 -1.0
outer loop
vertex 84.9451427831914 79.9972881869116 1.2506478486455699
vertex 84.9451427831914 88.26989918691153 1.2506478486455566
vertex 185.20785333784207 33.70238940163007 1.250647848645553
endloop
endfacet
facet normal 0.0 4.163336342344337e-17 -1.0
outer loop
vertex 84.9451427831914 79.9972881869116 1.2506478486455699
vertex 185.20785333784207 33.70238940163007 1.250647848645553
vertex 87.84888943022426 78.53452013210959 1.2506478486455763
endloop
endfacet
facet normal 0.0 4.163336342344337e-17 -1.0
outer loop
vertex 87.84888943022426 78.53452013210959 1.2506478486455763
vertex 185.20785333784207 33.70238940163007 1.250647848645553
vertex 105.98825989539348 69.3967767694848 1.2506478486455974
endloop
endfacet
facet normal 0.0 4.163336342344337e-17 -1.0
outer loop
vertex 105.98825989539348 69.3967767694848 1.2506478486455974
vertex 185.20785333784207 33.70238940163007 1.250647848645553
vertex 108.94331596497099 67.90816149268596 1.2506478486455566
endloop
endfacet
facet normal 0.0 4.163336342344337e-17 -1.0
outer loop
vertex 108.94331596497099 67.90816149268596 1.2506478486455566
vertex 185.20785333784207 33.70238940163007 1.250647848645553
vertex 111.89837203454852 66.41954621588704 1.2506478486455186
endloop
endfacet
facet normal 0.0 4.163336342344337e-17 -1.0
outer loop
vertex 111.89837203454852 66.41954621588704 1.2506478486455186
vertex 185.20785333784207 33.70238940163007 1.250647848645553
vertex 129.67756411140843 57.463243421084236 1.2506478486455495
endloop
endfacet
facet normal 0.0 4.163336342344337e-17 -1.0
outer loop
vertex 129.67756411140843 57.463243421084236 1.2506478486455495
vertex 185.20785333784207 33.70238940163007 1.250647848645553
vertex 132.94148914675063 55.81903479846034 1.2506478486455228
endloop
endfacet
facet normal 0.0 4.163336342344337e-17 -1.0
outer loop
vertex 132.94148914675063 55.81903479846034 1.2506478486455228
vertex 185.20785333784207 33.70238940163007 1.250647848645553
vertex 136.20541418209282 54.174826175836266 1.2506478486455446
endloop
endfacet
facet normal 0.0 4.163336342344337e-17 -1.0
outer loop
vertex 136.20541418209282 54.174826175836266 1.2506478486455446
vertex 185.20785333784207 33.70238940163007 1.250647848645553
vertex 152.84181781258388 45.79420529682787 1.2506478486455306
endloop
endfacet
facet normal 0.0 4.163336342344337e-17 -1.0
outer loop
vertex 152.84181781258388 45.79420529682787 1.2506478486455306
vertex 185.20785333784207 33.70238940163007 1.250647848645553
vertex 156.82334671238414 43.788502323446885 1.250647848645572
endloop
endfacet
facet normal 0.0 4.163336342344337e-17 -1.0
outer loop
vertex 156.82334671238414 43.788502323446885 1.250647848645572
vertex 185.20785333784207 33.70238940163007 1.250647848645553
vertex 176.8453293378421 33.70238940163007 1.250647848645553
endloop
endfacet
facet normal 0.0 4.163336342344337e-17 -1.0
outer loop
vertex 176.8453293378421 33.70238940163007 1.250647848645553
vertex 185.20785333784207 33.70238940163007 1.250647848645553
vertex 176.8453293378421 -42.220418167085214 1.2506478486456039
endloop
endfacet
facet normal 0.0 4.163336342344337e-17 -1.0
outer loop
vertex 176.8453293378421 -42.220418167085214 1.2506478486456039
vertex 185.20785333784207 33.70238940163007 1.250647848645553
vertex 176.8453293378421 -50.443547167085164 1.2506478486455948
endloop
endfacet
facet normal 0.0 4.163336342344337e-17 -1.0
outer loop
vertex 176.8453293378421 -50.443547167085164 1.2506478486455948
vertex 185.20785333784207 33.70238940163007 1.250647848645553
vertex 185.20785333784207 -50.443547167085164 1.2506478486455948
endloop
endfacet
facet normal 0.0 4.163336342344337e-17 -1.0
outer loop
vertex -7.740563409624177 -6.818531549131699 1.2506478486455115
vertex 0.0 -0.15226881308840512 1.2506478486455241
vertex 0.48586859037582286 -6.818531549131699 1.2506478486455115
endloop
endfacet
facet normal 0.0 4.163336342344337e-17 -1.0
outer loop
vertex 0.0 -0.15226881308840512 1.2506478486455241
vertex -7.740563409624177 -6.818531549131699 1.2506478486455115
vertex 0.0 79.9972881869116 1.2506478486455699
endloop
endfacet
facet normal 0.0 4.163336342344337e-17 -1.0
outer loop
vertex 0.48586859037582286 -6.818531549131699 1.2506478486455115
vertex 0.0 -0.15226881308840512 1.2506478486455241
vertex 15.2580549219378 2.0606491063333006 1.2506478486455432
endloop
endfacet
facet normal 0.0 4.163336342344337e-17 -1.0
outer loop
vertex 0.48586859037582286 -6.818531549131699 1.2506478486455115
vertex 15.2580549219378 2.0606491063333006 1.2506478486455432
vertex 84.9451427831914 5.430830658491912 1.2506478486455461
endloop
endfacet
facet normal 0.0 4.163336342344337e-17 -1.0
outer loop
vertex 84.9451427831914 5.430830658491912 1.2506478486455461
vertex 15.2580549219378 2.0606491063333006 1.2506478486455432
vertex 18.51411322844834 2.53288425098461 1.250647848645556
endloop
endfacet
facet normal 0.0 4.163336342344337e-17 -1.0
outer loop
vertex 84.9451427831914 5.430830658491912 1.2506478486455461
vertex 18.51411322844834 2.53288425098461 1.250647848645556
vertex 21.77017153495888 3.0051193956359135 1.2506478486455341
endloop
endfacet
facet normal 0.0 4.163336342344337e-17 -1.0
outer loop
vertex 84.9451427831914 5.430830658491912 1.2506478486455461
vertex 21.77017153495888 3.0051193956359135 1.2506478486455341
vertex 33.68410237641251 4.733029747557425 1.2506478486455714
endloop
endfacet
facet normal 0.0 4.163336342344337e-17 -1.0
outer loop
vertex 84.9451427831914 5.430830658491912 1.2506478486455461
vertex 33.68410237641251 4.733029747557425 1.2506478486455714
vertex 37.02822645689668 5.21803731505759 1.2506478486455601
endloop
endfacet
facet normal 0.0 4.163336342344337e-17 -1.0
outer loop
vertex 84.9451427831914 5.430830658491912 1.2506478486455461
vertex 37.02822645689668 5.21803731505759 1.2506478486455601
vertex 40.37235053738084 5.703044882557723 1.2506478486455213
endloop
endfacet
facet normal 0.0 4.163336342344337e-17 -1.0
outer loop
vertex 84.9451427831914 5.430830658491912 1.2506478486455461
vertex 40.37235053738084 5.703044882557723 1.2506478486455213
vertex 56.40475386264819 8.028268693285403 1.2506478486455588
endloop
endfacet
facet normal 0.0 4.163336342344337e-17 -1.0
outer loop
vertex 84.9451427831914 5.430830658491912 1.2506478486455461
vertex 56.40475386264819 8.028268693285403 1.2506478486455588
vertex 59.27925958781907 8.445166211432674 1.2506478486455384
endloop
endfacet
facet normal 0.0 4.163336342344337e-17 -1.0
outer loop
vertex 84.9451427831914 5.430830658491912 1.2506478486455461
vertex 59.27925958781907 8.445166211432674 1.2506478486455384
vertex 62.15376531298992 8.862063729579951 1.2506478486455523
endloop
endfacet
facet normal 0.0 4.163336342344337e-17 -1.0
outer loop
vertex 84.9451427831914 5.430830658491912 1.2506478486455461
vertex 62.15376531298992 8.862063729579951 1.2506478486455523
vertex 80.6309977831914 11.541867875247299 1.250647848645517
endloop
endfacet
facet normal 0.0 4.163336342344337e-17 -1.0
outer loop
vertex 84.9451427831914 5.430830658491912 1.2506478486455461
vertex 80.6309977831914 11.541867875247299 1.250647848645517
vertex 84.9451427831914 12.167560260438345 1.2506478486455468
endloop
endfacet
facet normal 0.0 4.163336342344337e-17 -1.0
outer loop
vertex 84.9451427831914 5.430830658491912 1.2506478486455461
vertex 84.9451427831914 12.167560260438345 1.2506478486455468
vertex 87.84888943022426 10.44907724186579 1.2506478486455284
endloop
endfacet
facet normal 0.0 4.163336342344337e-17 -1.0
outer loop
vertex 84.9451427831914 5.430830658491912 1.2506478486455461
vertex 87.84888943022426 10.44907724186579 1.2506478486455284
vertex 176.8453293378421 -50.443547167085164 1.2506478486455948
endloop
endfacet
facet normal 0.0 4.163336342344337e-17 -1.0
outer loop
vertex 176.8453293378421 -50.443547167085164 1.2506478486455948
vertex 87.84888943022426 10.44907724186579 1.2506478486455284
vertex 105.98825989539348 -0.2860880122525489 1.250647848645584
endloop
endfacet
facet normal 0.0 4.163336342344337e-17 -1.0
outer loop
vertex 176.8453293378421 -50.443547167085164 1.2506478486455948
vertex 105.98825989539348 -0.2860880122525489 1.250647848645584
vertex 108.94331596497099 -2.034936755543512 1.2506478486455384
endloop
endfacet
facet normal 0.0 4.163336342344337e-17 -1.0
outer loop
vertex 176.8453293378421 -50.443547167085164 1.2506478486455948
vertex 108.94331596497099 -2.034936755543512 1.2506478486455384
vertex 111.89837203454852 -3.783785498834506 1.2506478486455552
endloop
endfacet
facet normal 0.0 4.163336342344337e-17 -1.0
outer loop
vertex 176.8453293378421 -50.443547167085164 1.2506478486455948
vertex 111.89837203454852 -3.783785498834506 1.2506478486455552
vertex 129.67756411140843 -14.305791507603821 1.250647848645541
endloop
endfacet
facet normal 0.0 4.163336342344337e-17 -1.0
outer loop
vertex 176.8453293378421 -50.443547167085164 1.2506478486455948
vertex 129.67756411140843 -14.305791507603821 1.250647848645541
vertex 132.94148914675063 -16.237433771525417 1.2506478486455552
endloop
endfacet
facet normal 0.0 4.163336342344337e-17 -1.0
outer loop
vertex 176.8453293378421 -50.443547167085164 1.2506478486455948
vertex 132.94148914675063 -16.237433771525417 1.2506478486455552
vertex 136.20541418209282 -18.16907603544703 1.2506478486456032
endloop
endfacet
facet normal 0.0 4.163336342344337e-17 -1.0
outer loop
vertex 176.8453293378421 -50.443547167085164 1.2506478486455948
vertex 136.20541418209282 -18.16907603544703 1.2506478486456032
vertex 152.84181781258388 -28.014761835319206 1.2506478486455221
endloop
endfacet
facet normal 0.0 4.163336342344337e-17 -1.0
outer loop
vertex 176.8453293378421 -50.443547167085164 1.2506478486455948
vertex 152.84181781258388 -28.014761835319206 1.2506478486455221
vertex 154.832582262484 -29.1929276042326 1.2506478486455144
endloop
endfacet
facet normal 0.0 4.163336342344337e-17 -1.0
outer loop
vertex 176.8453293378421 -50.443547167085164 1.2506478486455948
vertex 154.832582262484 -29.1929276042326 1.2506478486455144
vertex 156.82334671238414 -30.371093373146067 1.250647848645556
endloop
endfacet
facet normal 0.0 4.163336342344337e-17 -1.0
outer loop
vertex 176.8453293378421 -50.443547167085164 1.2506478486455948
vertex 156.82334671238414 -30.371093373146067 1.250647848645556
vertex 176.8453293378421 -42.220418167085214 1.2506478486456039
endloop
endfacet
facet normal 0.0 -1.0 -4.163336342344337e-17
outer loop
vertex 0.48586859037582286 -6.818531549131705 53.68633284864553
vertex -7.740563409624177 -6.818531549131699 1.2506478486455115
vertex 0.48586859037582286 -6.818531549131699 1.2506478486455115
endloop
endfacet
facet normal 0.0 -1.0 -4.163336342344337e-17
outer loop
vertex -7.740563409624177 -6.818531549131699 1.2506478486455115
vertex 0.48586859037582286 -6.818531549131705 53.68633284864553
vertex -7.740563409624177 -6.818531549131705 53.68633284864553
endloop
endfacet
facet normal 0.14353107004988616 -0.989645811353908 1.942890293094024e-16
outer loop
vertex 84.9451427831914 5.430830658491912 1.2506478486455461
vertex 0.48586859037582286 -6.818531549131705 53.68633284864553
vertex 0.48586859037582286 -6.818531549131699 1.2506478486455115
endloop
endfacet
facet normal 0.14353107004988616 -0.989645811353908 1.942890293094024e-16
outer loop
vertex 0.48586859037582286 -6.818531549131705 53.68633284864553
vertex 84.9451427831914 5.430830658491912 1.2506478486455461
vertex 84.9451427831914 5.430830658491901 53.68633284864551
endloop
endfacet
facet normal -0.5195068153260803 -0.854466306433293 -1.3877787807814457e-16
outer loop
vertex 176.8453293378421 -50.443547167085164 1.2506478486455948
vertex 84.9451427831914 5.430830658491901 53.68633284864551
vertex 84.9451427831914 5.430830658491912 1.2506478486455461
endloop
endfacet
facet normal -0.5195068153260803 -0.854466306433293 -1.3877787807814457e-16
outer loop
vertex 84.9451427831914 5.430830658491901 53.68633284864551
vertex 176.8453293378421 -50.443547167085164 1.2506478486455948
vertex 176.8453293378421 -50.44354716708529 53.68633284864553
endloop
endfacet
facet normal 0.0 -1.0 -4.163336342344337e-17
outer loop
vertex 185.20785333784207 -50.44354716708529 53.68633284864553
vertex 176.8453293378421 -50.443547167085164 1.2506478486455948
vertex 185.20785333784207 -50.443547167085164 1.2506478486455948
endloop
endfacet
facet normal 0.0 -1.0 -4.163336342344337e-17
outer loop
vertex 176.8453293378421 -50.443547167085164 1.2506478486455948
vertex 185.20785333784207 -50.44354716708529 53.68633284864553
vertex 176.8453293378421 -50.44354716708529 53.68633284864553
endloop
endfacet
facet normal 1.0 0.0 0.0
outer loop
vertex 185.20785333784207 -50.443547167085164 1.2506478486455948
vertex 185.20785333784207 33.70238940163002 53.686332848645506
vertex 185.20785333784207 -50.44354716708529 53.68633284864553
endloop
endfacet
facet normal 1.0 0.0 0.0
outer loop
vertex 185.20785333784207 33.70238940163002 53.686332848645506
vertex 185.20785333784207 -50.443547167085164 1.2506478486455948
vertex 185.20785333784207 33.70238940163007 1.250647848645553
endloop
endfacet
facet normal 0.4780333431181883 0.8783416891319964 5.551115123125783e-17
outer loop
vertex 84.9451427831914 88.26989918691153 1.2506478486455566
vertex 185.20785333784207 33.70238940163002 53.686332848645506
vertex 185.20785333784207 33.70238940163007 1.250647848645553
endloop
endfacet
facet normal 0.4780333431181883 0.8783416891319964 5.551115123125783e-17
outer loop
vertex 185.20785333784207 33.70238940163002 53.686332848645506
vertex 84.9451427831914 88.26989918691153 1.2506478486455566
vertex 84.9451427831914 88.26989918691156 53.68633284864551
endloop
endfacet
facet normal 0.0 1.0 4.163336342344337e-17
outer loop
vertex -7.740563409624177 88.26989918691156 53.68633284864551
vertex 84.9451427831914 88.26989918691153 1.2506478486455566
vertex -7.740563409624177 88.26989918691153 1.2506478486455566
endloop
endfacet
facet normal 0.0 1.0 4.163336342344337e-17
outer loop
vertex 84.9451427831914 88.26989918691153 1.2506478486455566
vertex -7.740563409624177 88.26989918691156 53.68633284864551
vertex 84.9451427831914 88.26989918691156 53.68633284864551
endloop
endfacet
facet normal -1.0 0.0 0.0
outer loop
vertex -7.740563409624177 88.26989918691156 53.68633284864551
vertex -7.740563409624177 -6.818531549131699 1.2506478486455115
vertex -7.740563409624177 -6.818531549131705 53.68633284864553
endloop
endfacet
facet normal -1.0 0.0 0.0
outer loop
vertex -7.740563409624177 -6.818531549131699 1.2506478486455115
vertex -7.740563409624177 88.26989918691156 53.68633284864551
vertex -7.740563409624177 88.26989918691153 1.2506478486455566
endloop
endfacet
facet normal -0.14353107004988383 0.9896458113539084 8.326672684688677e-17
outer loop
vertex 18.51411322844834 2.5328842509846012 53.686332848645506
vertex 18.51411322844834 2.53288425098461 1.250647848645556
vertex 15.2580549219378 2.0606491063333006 1.2506478486455432
endloop
endfacet
facet normal 1.0 0.0 0.0
outer loop
vertex 0.0 79.9972881869116 1.2506478486455699
vertex 0.0 -0.15226881308838539 53.68633284864553
vertex 0.0 -0.15226881308840512 1.2506478486455241
endloop
endfacet
facet normal 1.0 0.0 0.0
outer loop
vertex 0.0 -0.15226881308838539 53.68633284864553
vertex 0.0 79.9972881869116 1.2506478486455699
vertex 0.0 79.99728818691158 53.68633284864555
endloop
endfacet
facet normal 0.0 -1.0 -4.163336342344337e-17
outer loop
vertex 18.51411322844834 79.99728818691158 53.68633284864555
vertex 15.258054921937797 79.9972881869116 1.2506478486455699
vertex 18.51411322844834 79.9972881869116 1.2506478486455699
endloop
endfacet
facet normal 0.0 -1.0 -4.163336342344337e-17
outer loop
vertex 37.02822645689668 79.99728818691158 53.68633284864555
vertex 33.68410237641251 79.9972881869116 1.2506478486455699
vertex 37.02822645689668 79.9972881869116 1.2506478486455699
endloop
endfacet
facet normal 0.0 -1.0 -4.163336342344337e-17
outer loop
vertex 37.02822645689668 79.99728818691158 53.68633284864555
vertex 37.02822645689668 79.9972881869116 1.2506478486455699
vertex 40.37235053738084 79.9972881869116 1.2506478486455699
endloop
endfacet
facet normal 0.0 -1.0 -4.163336342344337e-17
outer loop
vertex 84.9451427831914 79.99728818691158 53.68633284864555
vertex 80.63099778319139 79.9972881869116 1.2506478486455699
vertex 84.9451427831914 79.9972881869116 1.2506478486455699
endloop
endfacet
facet normal -0.44989223343453916 -0.8930828507452612 1.5265566588595902e-16
outer loop
vertex 108.94331596497099 67.90816149268592 53.68633284864553
vertex 105.98825989539348 69.3967767694848 1.2506478486455974
vertex 108.94331596497099 67.90816149268596 1.2506478486455566
endloop
endfacet
facet normal -0.4498922334345388 -0.8930828507452612 -4.163336342344337e-17
outer loop
vertex 132.94148914675063 55.81903479846025 53.686332848645534
vertex 129.67756411140843 57.463243421084236 1.2506478486455495
vertex 132.94148914675063 55.81903479846034 1.2506478486455228
endloop
endfacet
facet normal -0.44989223343453916 -0.8930828507452612 1.5265566588595902e-16
outer loop
vertex 154.832582262484 44.79135381013739 53.68633284864555
vertex 152.84181781258388 45.79420529682787 1.2506478486455306
vertex 156.82334671238414 43.788502323446885 1.250647848645572
endloop
endfacet
facet normal -1.0 0.0 0.0
outer loop
vertex 176.8453293378421 33.70238940163002 53.686332848645506
vertex 176.8453293378421 -42.220418167085214 1.2506478486456039
vertex 176.8453293378421 -42.22041816708527 53.68633284864555
endloop
endfacet
facet normal -1.0 0.0 0.0
outer loop
vertex 176.8453293378421 -42.220418167085214 1.2506478486456039
vertex 176.8453293378421 33.70238940163002 53.686332848645506
vertex 176.8453293378421 33.70238940163007 1.250647848645553
endloop
endfacet
facet normal 0.5093075235596222 0.8605845957519602 4.579669976578771e-16
outer loop
vertex 154.832582262484 -29.192927604232597 53.68633284864553
vertex 156.82334671238414 -30.371093373146067 1.250647848645556
vertex 154.832582262484 -29.1929276042326 1.2506478486455144
endloop
endfacet
facet normal 0.509307523559626 0.8605845957519581 1.5265566588595902e-16
outer loop
vertex 132.94148914675063 -16.237433771525417 53.686332848645506
vertex 136.20541418209282 -18.16907603544703 1.2506478486456032
vertex 132.94148914675063 -16.237433771525417 1.2506478486455552
endloop
endfacet
facet normal 0.5093075235596237 0.8605845957519596 1.6653345369377348e-16
outer loop
vertex 132.94148914675063 -16.237433771525417 53.686332848645506
vertex 132.94148914675063 -16.237433771525417 1.2506478486455552
vertex 129.67756411140843 -14.305791507603821 1.250647848645541
endloop
endfacet
facet normal 0.5093075235596257 0.8605845957519582 8.326672684688674e-17
outer loop
vertex 108.94331596497099 -2.034936755543547 53.68633284864551
vertex 108.94331596497099 -2.034936755543512 1.2506478486455384
vertex 105.98825989539348 -0.2860880122525489 1.250647848645584
endloop
endfacet
facet normal -0.14353107004988544 0.9896458113539082 -1.1102230246251568e-16
outer loop
vertex 84.9451427831914 12.167560260438355 53.686332848645534
vertex 84.9451427831914 12.167560260438345 1.2506478486455468
vertex 80.6309977831914 11.541867875247299 1.250647848645517
endloop
endfacet
facet normal -0.14353107004988436 0.9896458113539082 2.7755575615628914e-17
outer loop
vertex 59.27925958781907 8.445166211432658 53.686332848645506
vertex 59.27925958781907 8.445166211432674 1.2506478486455384
vertex 56.40475386264819 8.028268693285403 1.2506478486455588
endloop
endfacet
facet normal -0.14353107004988577 0.989645811353908 -1.6653345369377348e-16
outer loop
vertex 37.02822645689668 5.218037315057585 53.68633284864551
vertex 37.02822645689668 5.21803731505759 1.2506478486455601
vertex 33.68410237641251 4.733029747557425 1.2506478486455714
endloop
endfacet
facet normal -0.44989223343453905 -0.8930828507452611 2.7755575615628914e-17
outer loop
vertex 176.8453293378421 33.70238940163002 53.686332848645506
vertex 156.82334671238414 43.788502323446885 1.250647848645572
vertex 176.8453293378421 33.70238940163007 1.250647848645553
endloop
endfacet
facet normal -0.44989223343453905 -0.8930828507452611 2.7755575615628914e-17
outer loop
vertex 156.82334671238414 43.788502323446885 1.250647848645572
vertex 176.8453293378421 33.70238940163002 53.686332848645506
vertex 154.832582262484 44.79135381013739 53.68633284864555
endloop
endfacet
facet normal -0.4498922334345393 -0.8930828507452611 -2.7755575615628914e-17
outer loop
vertex 132.94148914675063 55.81903479846025 53.686332848645534
vertex 132.94148914675063 55.81903479846034 1.2506478486455228
vertex 136.20541418209282 54.174826175836266 1.2506478486455446
endloop
endfacet
facet normal 0.0 4.163336342344337e-17 -1.0
outer loop
vertex 156.82334671238414 43.788502323446885 1.250647848645572
vertex 152.84181781258388 -28.014761835319206 1.2506478486455221
vertex 152.84181781258388 45.79420529682787 1.2506478486455306
endloop
endfacet
facet normal 0.0 4.163336342344337e-17 -1.0
outer loop
vertex 152.84181781258388 -28.014761835319206 1.2506478486455221
vertex 156.82334671238414 43.788502323446885 1.250647848645572
vertex 154.832582262484 -29.1929276042326 1.2506478486455144
endloop
endfacet
facet normal 0.0 4.163336342344337e-17 -1.0
outer loop
vertex 154.832582262484 -29.1929276042326 1.2506478486455144
vertex 156.82334671238414 43.788502323446885 1.250647848645572
vertex 156.82334671238414 -30.371093373146067 1.250647848645556
endloop
endfacet
facet normal 0.5093075235596222 0.8605845957519602 4.579669976578771e-16
outer loop
vertex 154.832582262484 -29.192927604232597 53.68633284864553
vertex 154.832582262484 -29.1929276042326 1.2506478486455144
vertex 152.84181781258388 -28.014761835319206 1.2506478486455221
endloop
endfacet
facet normal -0.9992800759524684 -8.673617379884035e-19 0.03793850029230437
outer loop
vertex 154.832582262484 44.79135381013739 53.68633284864555
vertex 152.84181781258388 -28.014761835319206 1.2506478486455221
vertex 154.832582262484 -29.192927604232597 53.68633284864553
endloop
endfacet
facet normal -0.9992800759524684 -8.673617379884035e-19 0.03793850029230437
outer loop
vertex 152.84181781258388 -28.014761835319206 1.2506478486455221
vertex 154.832582262484 44.79135381013739 53.68633284864555
vertex 152.84181781258388 45.79420529682787 1.2506478486455306
endloop
endfacet
facet normal 0.5093075235596254 0.8605845957519583 1.5265566588595902e-16
outer loop
vertex 154.832582262484 -29.192927604232597 53.68633284864553
vertex 176.8453293378421 -42.220418167085214 1.2506478486456039
vertex 156.82334671238414 -30.371093373146067 1.250647848645556
endloop
endfacet
facet normal 0.5093075235596254 0.8605845957519583 1.5265566588595902e-16
outer loop
vertex 176.8453293378421 -42.220418167085214 1.2506478486456039
vertex 154.832582262484 -29.192927604232597 53.68633284864553
vertex 176.8453293378421 -42.22041816708527 53.68633284864555
endloop
endfacet
facet normal 0.9992800759524684 5.204170427930421e-18 0.037938500292304375
outer loop
vertex 156.82334671238414 43.788502323446885 1.250647848645572
vertex 154.832582262484 -29.192927604232597 53.68633284864553
vertex 156.82334671238414 -30.371093373146067 1.250647848645556
endloop
endfacet
facet normal 0.9992800759524684 5.204170427930421e-18 0.037938500292304375
outer loop
vertex 154.832582262484 -29.192927604232597 53.68633284864553
vertex 156.82334671238414 43.788502323446885 1.250647848645572
vertex 154.832582262484 44.79135381013739 53.68633284864555
endloop
endfacet
facet normal -0.44989223343453894 -0.8930828507452612 2.3592239273284576e-16
outer loop
vertex 154.832582262484 44.79135381013739 53.68633284864555
vertex 136.20541418209282 54.174826175836266 1.2506478486455446
vertex 152.84181781258388 45.79420529682787 1.2506478486455306
endloop
endfacet
facet normal -0.44989223343453894 -0.8930828507452612 2.3592239273284576e-16
outer loop
vertex 136.20541418209282 54.174826175836266 1.2506478486455446
vertex 154.832582262484 44.79135381013739 53.68633284864555
vertex 132.94148914675063 55.81903479846025 53.686332848645534
endloop
endfacet
facet normal -0.4498922334345385 -0.8930828507452614 -1.3877787807814457e-17
outer loop
vertex 129.67756411140843 57.463243421084236 1.2506478486455495
vertex 108.94331596497099 67.90816149268592 53.68633284864553
vertex 111.89837203454852 66.41954621588704 1.2506478486455186
endloop
endfacet
facet normal -0.4498922334345385 -0.8930828507452614 -1.3877787807814457e-17
outer loop
vertex 108.94331596497099 67.90816149268592 53.68633284864553
vertex 129.67756411140843 57.463243421084236 1.2506478486455495
vertex 132.94148914675063 55.81903479846025 53.686332848645534
endloop
endfacet
facet normal -0.4498922334345397 -0.8930828507452608 2.7755575615628914e-16
outer loop
vertex 108.94331596497099 67.90816149268592 53.68633284864553
vertex 108.94331596497099 67.90816149268596 1.2506478486455566
vertex 111.89837203454852 66.41954621588704 1.2506478486455186
endloop
endfacet
facet normal -0.44989223343453905 -0.8930828507452613 2.7755575615628914e-17
outer loop
vertex 105.98825989539348 69.3967767694848 1.2506478486455974
vertex 84.9451427831914 79.99728818691158 53.68633284864555
vertex 87.84888943022426 78.53452013210959 1.2506478486455763
endloop
endfacet
facet normal -0.44989223343453905 -0.8930828507452613 2.7755575615628914e-17
outer loop
vertex 84.9451427831914 79.99728818691158 53.68633284864555
vertex 105.98825989539348 69.3967767694848 1.2506478486455974
vertex 108.94331596497099 67.90816149268592 53.68633284864553
endloop
endfacet
facet normal -0.4498922334345383 -0.8930828507452616 -1.3877787807814457e-17
outer loop
vertex 84.9451427831914 79.99728818691158 53.68633284864555
vertex 84.9451427831914 79.9972881869116 1.2506478486455699
vertex 87.84888943022426 78.53452013210959 1.2506478486455763
endloop
endfacet
facet normal 0.0 -1.0 -4.163336342344337e-17
outer loop
vertex 84.9451427831914 79.99728818691158 53.68633284864555
vertex 62.15376531298992 79.9972881869116 1.2506478486455699
vertex 80.63099778319139 79.9972881869116 1.2506478486455699
endloop
endfacet
facet normal 0.0 -1.0 -4.163336342344337e-17
outer loop
vertex 62.15376531298992 79.9972881869116 1.2506478486455699
vertex 84.9451427831914 79.99728818691158 53.68633284864555
vertex 59.279259587819055 79.99728818691158 53.68633284864555
endloop
endfacet
facet normal 0.0 -1.0 -4.163336342344337e-17
outer loop
vertex 59.279259587819055 79.99728818691158 53.68633284864555
vertex 56.40475386264819 79.9972881869116 1.2506478486455699
vertex 59.279259587819055 79.9972881869116 1.2506478486455699
endloop
endfacet
facet normal 0.0 -1.0 -4.163336342344337e-17
outer loop
vertex 59.279259587819055 79.99728818691158 53.68633284864555
vertex 59.279259587819055 79.9972881869116 1.2506478486455699
vertex 62.15376531298992 79.9972881869116 1.2506478486455699
endloop
endfacet
facet normal 0.0 -1.0 -4.163336342344337e-17
outer loop
vertex 59.279259587819055 79.99728818691158 53.68633284864555
vertex 40.37235053738084 79.9972881869116 1.2506478486455699
vertex 56.40475386264819 79.9972881869116 1.2506478486455699
endloop
endfacet
facet normal 0.0 -1.0 -4.163336342344337e-17
outer loop
vertex 40.37235053738084 79.9972881869116 1.2506478486455699
vertex 59.279259587819055 79.99728818691158 53.68633284864555
vertex 37.02822645689668 79.99728818691158 53.68633284864555
endloop
endfacet
facet normal 0.0 -1.0 -4.163336342344337e-17
outer loop
vertex 18.51411322844834 79.99728818691158 53.68633284864555
vertex 18.51411322844834 79.9972881869116 1.2506478486455699
vertex 21.77017153495888 79.9972881869116 1.2506478486455699
endloop
endfacet
facet normal 0.0 -1.0 -4.163336342344337e-17
outer loop
vertex 37.02822645689668 79.99728818691158 53.68633284864555
vertex 21.77017153495888 79.9972881869116 1.2506478486455699
vertex 33.68410237641251 79.9972881869116 1.2506478486455699
endloop
endfacet
facet normal 0.0 -1.0 -4.163336342344337e-17
outer loop
vertex 21.77017153495888 79.9972881869116 1.2506478486455699
vertex 37.02822645689668 79.99728818691158 53.68633284864555
vertex 18.51411322844834 79.99728818691158 53.68633284864555
endloop
endfacet
facet normal 0.0 -1.0 -4.163336342344337e-17
outer loop
vertex 18.51411322844834 79.99728818691158 53.68633284864555
vertex 0.0 79.9972881869116 1.2506478486455699
vertex 15.258054921937797 79.9972881869116 1.2506478486455699
endloop
endfacet
facet normal 0.0 -1.0 -4.163336342344337e-17
outer loop
vertex 0.0 79.9972881869116 1.2506478486455699
vertex 18.51411322844834 79.99728818691158 53.68633284864555
vertex 0.0 79.99728818691158 53.68633284864555
endloop
endfacet
facet normal 0.0 4.163336342344337e-17 -1.0
outer loop
vertex 18.51411322844834 79.9972881869116 1.2506478486455699
vertex 15.2580549219378 2.0606491063333006 1.2506478486455432
vertex 15.258054921937797 79.9972881869116 1.2506478486455699
endloop
endfacet
facet normal 0.0 4.163336342344337e-17 -1.0
outer loop
vertex 15.2580549219378 2.0606491063333006 1.2506478486455432
vertex 18.51411322844834 79.9972881869116 1.2506478486455699
vertex 18.51411322844834 2.53288425098461 1.250647848645556
endloop
endfacet
facet normal 0.0 4.163336342344337e-17 -1.0
outer loop
vertex 18.51411322844834 2.53288425098461 1.250647848645556
vertex 18.51411322844834 79.9972881869116 1.2506478486455699
vertex 21.77017153495888 79.9972881869116 1.2506478486455699
endloop
endfacet
facet normal 0.0 4.163336342344337e-17 -1.0
outer loop
vertex 18.51411322844834 2.53288425098461 1.250647848645556
vertex 21.77017153495888 79.9972881869116 1.2506478486455699
vertex 21.77017153495888 3.0051193956359135 1.2506478486455341
endloop
endfacet
facet normal 0.0 4.163336342344337e-17 -1.0
outer loop
vertex 37.02822645689668 79.9972881869116 1.2506478486455699
vertex 33.68410237641251 4.733029747557425 1.2506478486455714
vertex 33.68410237641251 79.9972881869116 1.2506478486455699
endloop
endfacet
facet normal 0.0 4.163336342344337e-17 -1.0
outer loop
vertex 33.68410237641251 4.733029747557425 1.2506478486455714
vertex 37.02822645689668 79.9972881869116 1.2506478486455699
vertex 37.02822645689668 5.21803731505759 1.2506478486455601
endloop
endfacet
facet normal 0.0 4.163336342344337e-17 -1.0
outer loop
vertex 37.02822645689668 5.21803731505759 1.2506478486455601
vertex 37.02822645689668 79.9972881869116 1.2506478486455699
vertex 40.37235053738084 79.9972881869116 1.2506478486455699
endloop
endfacet
facet normal 0.0 4.163336342344337e-17 -1.0
outer loop
vertex 37.02822645689668 5.21803731505759 1.2506478486455601
vertex 40.37235053738084 79.9972881869116 1.2506478486455699
vertex 40.37235053738084 5.703044882557723 1.2506478486455213
endloop
endfacet
facet normal 0.0 4.163336342344337e-17 -1.0
outer loop
vertex 59.279259587819055 79.9972881869116 1.2506478486455699
vertex 56.40475386264819 8.028268693285403 1.2506478486455588
vertex 56.40475386264819 79.9972881869116 1.2506478486455699
endloop
endfacet
facet normal 0.0 4.163336342344337e-17 -1.0
outer loop
vertex 56.40475386264819 8.028268693285403 1.2506478486455588
vertex 59.279259587819055 79.9972881869116 1.2506478486455699
vertex 59.27925958781907 8.445166211432674 1.2506478486455384
endloop
endfacet
facet normal 0.0 4.163336342344337e-17 -1.0
outer loop
vertex 59.27925958781907 8.445166211432674 1.2506478486455384
vertex 59.279259587819055 79.9972881869116 1.2506478486455699
vertex 62.15376531298992 79.9972881869116 1.2506478486455699
endloop
endfacet
facet normal 0.0 4.163336342344337e-17 -1.0
outer loop
vertex 59.27925958781907 8.445166211432674 1.2506478486455384
vertex 62.15376531298992 79.9972881869116 1.2506478486455699
vertex 62.15376531298992 8.862063729579951 1.2506478486455523
endloop
endfacet
facet normal 0.0 4.163336342344337e-17 -1.0
outer loop
vertex 84.9451427831914 79.9972881869116 1.2506478486455699
vertex 80.6309977831914 11.541867875247299 1.250647848645517
vertex 80.63099778319139 79.9972881869116 1.2506478486455699
endloop
endfacet
facet normal 0.0 4.163336342344337e-17 -1.0
outer loop
vertex 80.6309977831914 11.541867875247299 1.250647848645517
vertex 84.9451427831914 79.9972881869116 1.2506478486455699
vertex 84.9451427831914 12.167560260438345 1.2506478486455468
endloop
endfacet
facet normal 0.0 4.163336342344337e-17 -1.0
outer loop
vertex 84.9451427831914 12.167560260438345 1.2506478486455468
vertex 84.9451427831914 79.9972881869116 1.2506478486455699
vertex 87.84888943022426 78.53452013210959 1.2506478486455763
endloop
endfacet
facet normal 0.0 4.163336342344337e-17 -1.0
outer loop
vertex 84.9451427831914 12.167560260438345 1.2506478486455468
vertex 87.84888943022426 78.53452013210959 1.2506478486455763
vertex 87.84888943022426 10.44907724186579 1.2506478486455284
endloop
endfacet
facet normal -0.14353107004988613 0.989645811353908 -1.942890293094024e-16
outer loop
vertex 18.51411322844834 2.5328842509846012 53.686332848645506
vertex 33.68410237641251 4.733029747557425 1.2506478486455714
vertex 21.77017153495888 3.0051193956359135 1.2506478486455341
endloop
endfacet
facet normal -0.14353107004988613 0.989645811353908 -1.942890293094024e-16
outer loop
vertex 33.68410237641251 4.733029747557425 1.2506478486455714
vertex 18.51411322844834 2.5328842509846012 53.686332848645506
vertex 37.02822645689668 5.218037315057585 53.68633284864551
endloop
endfacet
facet normal -0.9979725109208939 1.5612511283791264e-17 0.06364642524326339
outer loop
vertex 37.02822645689668 5.218037315057585 53.68633284864551
vertex 33.68410237641251 79.9972881869116 1.2506478486455699
vertex 33.68410237641251 4.733029747557425 1.2506478486455714
endloop
endfacet
facet normal -0.9979725109208939 1.5612511283791264e-17 0.06364642524326339
outer loop
vertex 33.68410237641251 79.9972881869116 1.2506478486455699
vertex 37.02822645689668 5.218037315057585 53.68633284864551
vertex 37.02822645689668 79.99728818691158 53.68633284864555
endloop
endfacet
facet normal -0.14353107004988652 0.989645811353908 -8.326672684688674e-17
outer loop
vertex 37.02822645689668 5.218037315057585 53.68633284864551
vertex 56.40475386264819 8.028268693285403 1.2506478486455588
vertex 40.37235053738084 5.703044882557723 1.2506478486455213
endloop
endfacet
facet normal -0.14353107004988652 0.989645811353908 -8.326672684688674e-17
outer loop
vertex 56.40475386264819 8.028268693285403 1.2506478486455588
vertex 37.02822645689668 5.218037315057585 53.68633284864551
vertex 59.27925958781907 8.445166211432658 53.686332848645506
endloop
endfacet
facet normal -0.9985007814055908 -8.586881206085195e-17 0.05473746004725511
outer loop
vertex 59.27925958781907 8.445166211432658 53.686332848645506
vertex 56.40475386264819 79.9972881869116 1.2506478486455699
vertex 56.40475386264819 8.028268693285403 1.2506478486455588
endloop
endfacet
facet normal -0.9985007814055908 -8.586881206085195e-17 0.05473746004725511
outer loop
vertex 56.40475386264819 79.9972881869116 1.2506478486455699
vertex 59.27925958781907 8.445166211432658 53.686332848645506
vertex 59.279259587819055 79.99728818691158 53.68633284864555
endloop
endfacet
facet normal -0.14353107004988633 0.989645811353908 -1.942890293094024e-16
outer loop
vertex 62.15376531298992 8.862063729579951 1.2506478486455523
vertex 84.9451427831914 12.167560260438355 53.686332848645534
vertex 80.6309977831914 11.541867875247299 1.250647848645517
endloop
endfacet
facet normal -0.14353107004988633 0.989645811353908 -1.942890293094024e-16
outer loop
vertex 84.9451427831914 12.167560260438355 53.686332848645534
vertex 62.15376531298992 8.862063729579951 1.2506478486455523
vertex 59.27925958781907 8.445166211432658 53.686332848645506
endloop
endfacet
facet normal -0.9966325005077651 -9.367506770274758e-17 0.08199792028850329
outer loop
vertex 84.9451427831914 12.167560260438355 53.686332848645534
vertex 80.63099778319139 79.9972881869116 1.2506478486455699
vertex 80.6309977831914 11.541867875247299 1.250647848645517
endloop
endfacet
facet normal -0.9966325005077651 -9.367506770274758e-17 0.08199792028850329
outer loop
vertex 80.63099778319139 79.9972881869116 1.2506478486455699
vertex 84.9451427831914 12.167560260438355 53.686332848645534
vertex 84.9451427831914 79.99728818691158 53.68633284864555
endloop
endfacet
facet normal -0.14353107004988702 0.9896458113539078 4.579669976578771e-16
outer loop
vertex 0.0 -0.15226881308838539 53.68633284864553
vertex 15.2580549219378 2.0606491063333006 1.2506478486455432
vertex 0.0 -0.15226881308840512 1.2506478486455241
endloop
endfacet
facet normal -0.14353107004988702 0.9896458113539078 4.579669976578771e-16
outer loop
vertex 15.2580549219378 2.0606491063333006 1.2506478486455432
vertex 0.0 -0.15226881308838539 53.68633284864553
vertex 18.51411322844834 2.5328842509846012 53.686332848645506
endloop
endfacet
facet normal -0.9980775869199783 -5.204170427930421e-18 0.061976854453847444
outer loop
vertex 18.51411322844834 2.5328842509846012 53.686332848645506
vertex 15.258054921937797 79.9972881869116 1.2506478486455699
vertex 15.2580549219378 2.0606491063333006 1.2506478486455432
endloop
endfacet
facet normal -0.9980775869199783 -5.204170427930421e-18 0.061976854453847444
outer loop
vertex 15.258054921937797 79.9972881869116 1.2506478486455699
vertex 18.51411322844834 2.5328842509846012 53.686332848645506
vertex 18.51411322844834 79.99728818691158 53.68633284864555
endloop
endfacet
facet normal 0.5093075235596226 0.8605845957519601 3.608224830031759e-16
outer loop
vertex 84.9451427831914 12.167560260438355 53.686332848645534
vertex 87.84888943022426 10.44907724186579 1.2506478486455284
vertex 84.9451427831914 12.167560260438345 1.2506478486455468
endloop
endfacet
facet normal 0.998470194964246 -2.7755575615628914e-17 0.055292583300660135
outer loop
vertex 87.84888943022426 78.53452013210959 1.2506478486455763
vertex 84.9451427831914 12.167560260438355 53.686332848645534
vertex 87.84888943022426 10.44907724186579 1.2506478486455284
endloop
endfacet
facet normal 0.998470194964246 -2.7755575615628914e-17 0.055292583300660135
outer loop
vertex 84.9451427831914 12.167560260438355 53.686332848645534
vertex 87.84888943022426 78.53452013210959 1.2506478486455763
vertex 84.9451427831914 79.99728818691158 53.68633284864555
endloop
endfacet
facet normal -0.14353107004988555 0.9896458113539082 -1.1102230246251568e-16
outer loop
vertex 59.27925958781907 8.445166211432658 53.686332848645506
vertex 62.15376531298992 8.862063729579951 1.2506478486455523
vertex 59.27925958781907 8.445166211432674 1.2506478486455384
endloop
endfacet
facet normal 0.9985007814055908 8.153200337090993e-17 0.05473746004725489
outer loop
vertex 62.15376531298992 8.862063729579951 1.2506478486455523
vertex 59.279259587819055 79.99728818691158 53.68633284864555
vertex 59.27925958781907 8.445166211432658 53.686332848645506
endloop
endfacet
facet normal 0.9985007814055908 8.153200337090993e-17 0.05473746004725489
outer loop
vertex 59.279259587819055 79.99728818691158 53.68633284864555
vertex 62.15376531298992 8.862063729579951 1.2506478486455523
vertex 62.15376531298992 79.9972881869116 1.2506478486455699
endloop
endfacet
facet normal -0.14353107004988602 0.989645811353908 -1.942890293094024e-16
outer loop
vertex 37.02822645689668 5.218037315057585 53.68633284864551
vertex 40.37235053738084 5.703044882557723 1.2506478486455213
vertex 37.02822645689668 5.21803731505759 1.2506478486455601
endloop
endfacet
facet normal 0.9979725109208939 -2.42861286636753e-17 0.06364642524326335
outer loop
vertex 40.37235053738084 5.703044882557723 1.2506478486455213
vertex 37.02822645689668 79.99728818691158 53.68633284864555
vertex 37.02822645689668 5.218037315057585 53.68633284864551
endloop
endfacet
facet normal 0.9979725109208939 -2.42861286636753e-17 0.06364642524326335
outer loop
vertex 37.02822645689668 79.99728818691158 53.68633284864555
vertex 40.37235053738084 5.703044882557723 1.2506478486455213
vertex 40.37235053738084 79.9972881869116 1.2506478486455699
endloop
endfacet
facet normal -0.1435310700498872 0.9896458113539077 -1.1102230246251565e-16
outer loop
vertex 18.51411322844834 2.5328842509846012 53.686332848645506
vertex 21.77017153495888 3.0051193956359135 1.2506478486455341
vertex 18.51411322844834 2.53288425098461 1.250647848645556
endloop
endfacet
facet normal 0.9980775869199783 1.6479873021779667e-17 0.06197685445384741
outer loop
vertex 21.77017153495888 3.0051193956359135 1.2506478486455341
vertex 18.51411322844834 79.99728818691158 53.68633284864555
vertex 18.51411322844834 2.5328842509846012 53.686332848645506
endloop
endfacet
facet normal 0.9980775869199783 1.6479873021779667e-17 0.06197685445384741
outer loop
vertex 18.51411322844834 79.99728818691158 53.68633284864555
vertex 21.77017153495888 3.0051193956359135 1.2506478486455341
vertex 21.77017153495888 79.9972881869116 1.2506478486455699
endloop
endfacet
facet normal 0.0 4.163336342344337e-17 -1.0
outer loop
vertex 132.94148914675063 55.81903479846034 1.2506478486455228
vertex 129.67756411140843 -14.305791507603821 1.250647848645541
vertex 129.67756411140843 57.463243421084236 1.2506478486455495
endloop
endfacet
facet normal 0.0 4.163336342344337e-17 -1.0
outer loop
vertex 129.67756411140843 -14.305791507603821 1.250647848645541
vertex 132.94148914675063 55.81903479846034 1.2506478486455228
vertex 132.94148914675063 -16.237433771525417 1.2506478486455552
endloop
endfacet
facet normal 0.0 4.163336342344337e-17 -1.0
outer loop
vertex 132.94148914675063 -16.237433771525417 1.2506478486455552
vertex 132.94148914675063 55.81903479846034 1.2506478486455228
vertex 136.20541418209282 54.174826175836266 1.2506478486455446
endloop
endfacet
facet normal 0.0 4.163336342344337e-17 -1.0
outer loop
vertex 132.94148914675063 -16.237433771525417 1.2506478486455552
vertex 136.20541418209282 54.174826175836266 1.2506478486455446
vertex 136.20541418209282 -18.16907603544703 1.2506478486456032
endloop
endfacet
facet normal 0.0 4.163336342344337e-17 -1.0
outer loop
vertex 108.94331596497099 67.90816149268596 1.2506478486455566
vertex 105.98825989539348 -0.2860880122525489 1.250647848645584
vertex 105.98825989539348 69.3967767694848 1.2506478486455974
endloop
endfacet
facet normal 0.0 4.163336342344337e-17 -1.0
outer loop
vertex 105.98825989539348 -0.2860880122525489 1.250647848645584
vertex 108.94331596497099 67.90816149268596 1.2506478486455566
vertex 108.94331596497099 -2.034936755543512 1.2506478486455384
endloop
endfacet
facet normal 0.0 4.163336342344337e-17 -1.0
outer loop
vertex 108.94331596497099 -2.034936755543512 1.2506478486455384
vertex 108.94331596497099 67.90816149268596 1.2506478486455566
vertex 111.89837203454852 66.41954621588704 1.2506478486455186
endloop
endfacet
facet normal 0.0 4.163336342344337e-17 -1.0
outer loop
vertex 108.94331596497099 -2.034936755543512 1.2506478486455384
vertex 111.89837203454852 66.41954621588704 1.2506478486455186
vertex 111.89837203454852 -3.783785498834506 1.2506478486455552
endloop
endfacet
facet normal 0.5093075235596257 0.8605845957519582 8.326672684688674e-17
outer loop
vertex 108.94331596497099 -2.034936755543547 53.68633284864551
vertex 111.89837203454852 -3.783785498834506 1.2506478486455552
vertex 108.94331596497099 -2.034936755543512 1.2506478486455384
endloop
endfacet
facet normal -0.9980683134208521 -5.204170427930421e-18 0.06212601504406926
outer loop
vertex 132.94148914675063 55.81903479846025 53.686332848645534
vertex 129.67756411140843 -14.305791507603821 1.250647848645541
vertex 132.94148914675063 -16.237433771525417 53.686332848645506
endloop
endfacet
facet normal -0.9980683134208521 -5.204170427930421e-18 0.06212601504406926
outer loop
vertex 129.67756411140843 -14.305791507603821 1.250647848645541
vertex 132.94148914675063 55.81903479846025 53.686332848645534
vertex 129.67756411140843 57.463243421084236 1.2506478486455495
endloop
endfacet
facet normal 0.509307523559625 0.8605845957519588 0.0
outer loop
vertex 84.9451427831914 12.167560260438355 53.686332848645534
vertex 105.98825989539348 -0.2860880122525489 1.250647848645584
vertex 87.84888943022426 10.44907724186579 1.2506478486455284
endloop
endfacet
facet normal 0.509307523559625 0.8605845957519588 0.0
outer loop
vertex 105.98825989539348 -0.2860880122525489 1.250647848645584
vertex 84.9451427831914 12.167560260438355 53.686332848645534
vertex 108.94331596497099 -2.034936755543547 53.68633284864551
endloop
endfacet
facet normal -0.9984157833101328 -1.214306433183765e-17 0.05626654100985993
outer loop
vertex 108.94331596497099 67.90816149268592 53.68633284864553
vertex 105.98825989539348 -0.2860880122525489 1.250647848645584
vertex 108.94331596497099 -2.034936755543547 53.68633284864551
endloop
endfacet
facet normal -0.9984157833101328 -1.214306433183765e-17 0.05626654100985993
outer loop
vertex 105.98825989539348 -0.2860880122525489 1.250647848645584
vertex 108.94331596497099 67.90816149268592 53.68633284864553
vertex 105.98825989539348 69.3967767694848 1.2506478486455974
endloop
endfacet
facet normal 0.5093075235596248 0.8605845957519589 1.3877787807814457e-16
outer loop
vertex 136.20541418209282 -18.16907603544703 1.2506478486456032
vertex 154.832582262484 -29.192927604232597 53.68633284864553
vertex 152.84181781258388 -28.014761835319206 1.2506478486455221
endloop
endfacet
facet normal 0.5093075235596248 0.8605845957519589 1.3877787807814457e-16
outer loop
vertex 154.832582262484 -29.192927604232597 53.68633284864553
vertex 136.20541418209282 -18.16907603544703 1.2506478486456032
vertex 132.94148914675063 -16.237433771525417 53.686332848645506
endloop
endfacet
facet normal 0.9980683134208521 -1.734723475976807e-18 0.06212601504406926
outer loop
vertex 136.20541418209282 54.174826175836266 1.2506478486455446
vertex 132.94148914675063 -16.237433771525417 53.686332848645506
vertex 136.20541418209282 -18.16907603544703 1.2506478486456032
endloop
endfacet
facet normal 0.9980683134208521 -1.734723475976807e-18 0.06212601504406926
outer loop
vertex 132.94148914675063 -16.237433771525417 53.686332848645506
vertex 136.20541418209282 54.174826175836266 1.2506478486455446
vertex 132.94148914675063 55.81903479846025 53.686332848645534
endloop
endfacet
facet normal 0.5093075235596247 0.8605845957519589 1.6653345369377348e-16
outer loop
vertex 111.89837203454852 -3.783785498834506 1.2506478486455552
vertex 132.94148914675063 -16.237433771525417 53.686332848645506
vertex 129.67756411140843 -14.305791507603821 1.250647848645541
endloop
endfacet
facet normal 0.5093075235596247 0.8605845957519589 1.6653345369377348e-16
outer loop
vertex 132.94148914675063 -16.237433771525417 53.686332848645506
vertex 111.89837203454852 -3.783785498834506 1.2506478486455552
vertex 108.94331596497099 -2.034936755543547 53.68633284864551
endloop
endfacet
facet normal 0.9984157833101328 -1.474514954580286e-17 0.05626654100985992
outer loop
vertex 111.89837203454852 66.41954621588704 1.2506478486455186
vertex 108.94331596497099 -2.034936755543547 53.68633284864551
vertex 111.89837203454852 -3.783785498834506 1.2506478486455552
endloop
endfacet
facet normal 0.9984157833101328 -1.474514954580286e-17 0.05626654100985992
outer loop
vertex 108.94331596497099 -2.034936755543547 53.68633284864551
vertex 111.89837203454852 66.41954621588704 1.2506478486455186
vertex 108.94331596497099 67.90816149268592 53.68633284864553
endloop
endfacet
endsolid model
