solid "Low Poly Cat"
  facet normal 0.359115034342 -0.320275723934 -0.87661844492
    outer loop
      vertex -0.148845747113 -35.9387130737 19.645816803
      vertex 0.302004694939 -28.0481567383 16.9476680756
      vertex 6.53886651993 -32.2930259705 21.0535373688
    endloop
  endfacet
  facet normal -0.3020581007 0.760334670544 -0.575023531914
    outer loop
      vertex 3.90635323524 14.1272268295 -19.1269226074
      vertex -1.99437367916 13.3422718048 -17.0652084351
      vertex 0.510381221771 19.2784786224 -10.5316991806
    endloop
  endfacet
  facet normal -0.260220676661 -0.377754688263 -0.888586878777
    outer loop
      vertex 6.6105966568 7.00480031967 -16.8909778595
      vertex -1.99437367916 13.3422718048 -17.0652084351
      vertex 3.90635323524 14.1272268295 -19.1269226074
    endloop
  endfacet
  facet normal -0.524999082088 -0.42992413044 -0.734534680843
    outer loop
      vertex 7.91542816162 12.2140674591 -20.8725814819
      vertex 6.6105966568 7.00480031967 -16.8909778595
      vertex 3.90635323524 14.1272268295 -19.1269226074
    endloop
  endfacet
  facet normal -0.638063848019 0.522715032101 -0.565370202065
    outer loop
      vertex 5.53620147705 20.5070896149 -15.0678062439
      vertex 3.90635323524 14.1272268295 -19.1269226074
      vertex 0.510381221771 19.2784786224 -10.5316991806
    endloop
  endfacet
  facet normal -0.365328937769 0.917677283287 -0.156215026975
    outer loop
      vertex 8.08640098572 22.8609828949 -7.20395040512
      vertex 5.53620147705 20.5070896149 -15.0678062439
      vertex 0.510381221771 19.2784786224 -10.5316991806
    endloop
  endfacet
  facet normal -0.256346106529 0.890739142895 -0.375327080488
    outer loop
      vertex 8.08640098572 22.8609828949 -7.20395040512
      vertex 0.510381221771 19.2784786224 -10.5316991806
      vertex -0.00629819370806 25.8829746246 5.49520969391
    endloop
  endfacet
  facet normal -0.0269645527005 -0.905377328396 0.42375087738
    outer loop
      vertex 7.09765577316 -26.517578125 36.3487319946
      vertex 7.86797142029 -24.1388683319 41.4800491333
      vertex 0.191483080387 -25.6536540985 37.7551116943
    endloop
  endfacet
  facet normal 0.424337267876 0.75693655014 0.496975779533
    outer loop
      vertex -1.30728304386 -15.4446029663 19.2477302551
      vertex 6.95317935944 -13.1277761459 8.66590213776
      vertex -0.202965512872 -10.5443572998 10.8413295746
    endloop
  endfacet
  facet normal 0.660876393318 0.435463070869 0.61123996973
    outer loop
      vertex 6.95317935944 -13.1277761459 8.66590213776
      vertex -1.30728304386 -15.4446029663 19.2477302551
      vertex 6.20502328873 -20.6839103699 14.8579969406
    endloop
  endfacet
  facet normal 0.569473326206 0.821984052658 -0.00650812126696
    outer loop
      vertex 3.28806352615 -18.5349273682 31.0375843048
      vertex 6.20502328873 -20.6839103699 14.8579969406
      vertex -1.30728304386 -15.4446029663 19.2477302551
    endloop
  endfacet
  facet normal 0.195585474372 -0.907600522041 -0.371493846178
    outer loop
      vertex 1.99778485298 10.0814399719 43.9732933044
      vertex -2.39765238762 11.766046524 37.5434875488
      vertex 0.954827308655 17.3705310822 25.6161365509
    endloop
  endfacet
  facet normal 0.97990834713 0.198118448257 0.0229937937111
    outer loop
      vertex 0.502970635891 18.8921298981 31.7621994019
      vertex 1.99778485298 10.0814399719 43.9732933044
      vertex 0.954827308655 17.3705310822 25.6161365509
    endloop
  endfacet
  facet normal -0.442875266075 -0.885567367077 -0.140113785863
    outer loop
      vertex 0.954827308655 17.3705310822 25.6161365509
      vertex -0.868021011353 19.9276275635 15.2161130905
      vertex 2.73753094673 18.648891449 11.9016513824
    endloop
  endfacet
  facet normal 0.450540423393 0.892551541328 -0.0191061794758
    outer loop
      vertex 1.09186065197 25.6157016754 18.9049835205
      vertex 4.68389463425 23.5632534027 7.72746992111
      vertex -0.00629819370806 25.8829746246 5.49520969391
    endloop
  endfacet
  facet normal 0.942780673504 0.200909167528 0.266082853079
    outer loop
      vertex 0.954827308655 17.3705310822 25.6161365509
      vertex 4.68389463425 23.5632534027 7.72746992111
      vertex 1.09186065197 25.6157016754 18.9049835205
    endloop
  endfacet
  facet normal 0.332064002752 0.566936373711 0.753867805004
    outer loop
      vertex -3.97564506531 -20.9320602417 36.0398368835
      vertex 0.191483080387 -25.6536540985 37.7551116943
      vertex 3.28806352615 -18.5349273682 31.0375843048
    endloop
  endfacet
  facet normal 0.285489052534 -0.91682690382 0.279149502516
    outer loop
      vertex -2.83758950233 9.5931892395 47.3148880005
      vertex 1.99778485298 10.0814399719 43.9732933044
      vertex 0.353228390217 12.1667118073 52.5039749146
    endloop
  endfacet
  facet normal 0.912389218807 0.376707464457 0.160116732121
    outer loop
      vertex 1.99778485298 10.0814399719 43.9732933044
      vertex 0.502970635891 18.8921298981 31.7621994019
      vertex -0.439691096544 15.5379037857 45.0252532959
    endloop
  endfacet
  facet normal -0.201588883996 0.871716380119 0.446623384953
    outer loop
      vertex 1.09186065197 25.6157016754 18.9049835205
      vertex -2.42935276031 24.2973022461 19.8888816833
      vertex 0.502970635891 18.8921298981 31.7621994019
    endloop
  endfacet
  facet normal 0.99727666378 0.03587462008 0.0644378960133
    outer loop
      vertex 0.954827308655 17.3705310822 25.6161365509
      vertex 1.09186065197 25.6157016754 18.9049835205
      vertex 0.502970635891 18.8921298981 31.7621994019
    endloop
  endfacet
  facet normal 0.930593371391 -0.271322160959 0.245724067092
    outer loop
      vertex 1.99778485298 10.0814399719 43.9732933044
      vertex 2.1741335392 18.3250541687 52.4078178406
      vertex 0.353228390217 12.1667118073 52.5039749146
    endloop
  endfacet
  facet normal 0.784160554409 0.435519933701 -0.44205725193
    outer loop
      vertex 2.1741335392 18.3250541687 52.4078178406
      vertex 1.99778485298 10.0814399719 43.9732933044
      vertex -0.439691096544 15.5379037857 45.0252532959
    endloop
  endfacet
  facet normal 0.942469954491 0.00159512541723 -0.334287047386
    outer loop
      vertex 1.13238465786 22.199640274 49.4892616272
      vertex 2.1741335392 18.3250541687 52.4078178406
      vertex -0.439691096544 15.5379037857 45.0252532959
    endloop
  endfacet
  facet normal 0.00271563464776 0.808065235615 0.589086771011
    outer loop
      vertex 1.13238465786 22.199640274 49.4892616272
      vertex -2.3827521801 22.1481895447 49.5760421753
      vertex -1.97807919979 19.0432758331 53.8332633972
    endloop
  endfacet
  facet normal -0.0286358222365 0.56109803915 -0.827253878117
    outer loop
      vertex -2.3827521801 22.1481895447 49.5760421753
      vertex 1.13238465786 22.199640274 49.4892616272
      vertex -0.439691096544 15.5379037857 45.0252532959
    endloop
  endfacet
  facet normal 0.348340749741 0.621934950352 0.701324224472
    outer loop
      vertex 2.1741335392 18.3250541687 52.4078178406
      vertex 1.13238465786 22.199640274 49.4892616272
      vertex -1.97807919979 19.0432758331 53.8332633972
    endloop
  endfacet
  facet normal 0.799544811249 -0.444850385189 0.403529733419
    outer loop
      vertex 3.81963086128 -40.575717926 24.7981758118
      vertex 1.17643296719 -36.8304290771 34.164150238
      vertex 0.511848926544 -43.9080276489 27.678609848
    endloop
  endfacet
  facet normal 0.600131690502 -0.669835865498 0.437220573425
    outer loop
      vertex 3.81963086128 -40.575717926 24.7981758118
      vertex 6.82037496567 -33.8320655823 31.0108261108
      vertex 1.17643296719 -36.8304290771 34.164150238
    endloop
  endfacet
  facet normal 0.025850025937 -0.668293297291 -0.743448615074
    outer loop
      vertex -2.77702045441 -41.7293205261 25.6057891846
      vertex 3.81963086128 -40.575717926 24.7981758118
      vertex 0.511848926544 -43.9080276489 27.678609848
    endloop
  endfacet
  facet normal 0.425266504288 -0.485070884228 -0.764103829861
    outer loop
      vertex 6.53886651993 -32.2930259705 21.0535373688
      vertex 3.81963086128 -40.575717926 24.7981758118
      vertex -0.148845747113 -35.9387130737 19.645816803
    endloop
  endfacet
  facet normal 0.441163361073 -0.744442880154 -0.501178324223
    outer loop
      vertex 6.89988231659 -28.8876590729 0.677465438843
      vertex 4.31381893158 -22.1538143158 -11.6012763977
      vertex 10.6031799316 -21.0752315521 -7.66716098785
    endloop
  endfacet
  facet normal -0.96100383997 0.275564283133 -0.023150421679
    outer loop
      vertex 4.89105415344 -18.4305305481 -22.293838501
      vertex 4.37661647797 -21.1860198975 -33.7380218506
      vertex 3.53917050362 -23.7903823853 -29.9748382568
    endloop
  endfacet
  facet normal -0.842320024967 0.531396150589 -0.0900837406516
    outer loop
      vertex 4.37661647797 -21.1860198975 -33.7380218506
      vertex 4.89105415344 -18.4305305481 -22.293838501
      vertex 6.64118003845 -16.2458553314 -25.7710266113
    endloop
  endfacet
  facet normal 0.156070053577 -0.289646148682 0.944323718548
    outer loop
      vertex 7.09765577316 -26.517578125 36.3487319946
      vertex 0.191483080387 -25.6536540985 37.7551116943
      vertex 1.17643296719 -36.8304290771 34.164150238
    endloop
  endfacet
  facet normal 0.502603054047 0.864179372787 -0.0241683330387
    outer loop
      vertex 3.28806352615 -18.5349273682 31.0375843048
      vertex 7.6474313736 -21.0323638916 32.3946418762
      vertex 6.20502328873 -20.6839103699 14.8579969406
    endloop
  endfacet
  facet normal 0.983112990856 0.165746510029 -0.0775687098503
    outer loop
      vertex 7.6474313736 -21.0323638916 32.3946418762
      vertex 7.22725820541 -23.5727882385 21.6410293579
      vertex 6.20502328873 -20.6839103699 14.8579969406
    endloop
  endfacet
  facet normal -0.801829814911 -0.392818510532 -0.450291663408
    outer loop
      vertex 4.37661647797 -21.1860198975 -33.7380218506
      vertex 5.68919038773 -25.8414020538 -32.0141181946
      vertex 3.53917050362 -23.7903823853 -29.9748382568
    endloop
  endfacet
  facet normal 0.457320362329 0.691720068455 -0.558910906315
    outer loop
      vertex 8.52409648895 -23.4371147156 -33.1304130554
      vertex 4.37661647797 -21.1860198975 -33.7380218506
      vertex 6.64118003845 -16.2458553314 -25.7710266113
    endloop
  endfacet
  facet normal -0.0598578825593 -0.361434429884 -0.930474162102
    outer loop
      vertex 8.52409648895 -23.4371147156 -33.1304130554
      vertex 5.68919038773 -25.8414020538 -32.0141181946
      vertex 4.37661647797 -21.1860198975 -33.7380218506
    endloop
  endfacet
  facet normal 0.547885656357 0.66408509016 -0.508735954762
    outer loop
      vertex 6.64118003845 -16.2458553314 -25.7710266113
      vertex 9.48817825317 -17.259185791 -24.0277023315
      vertex 8.52409648895 -23.4371147156 -33.1304130554
    endloop
  endfacet
  facet normal -0.972369253635 0.232023283839 0.0257537234575
    outer loop
      vertex 5.53620147705 20.5070896149 -15.0678062439
      vertex 6.27734375 24.4813995361 -22.8906841278
      vertex 3.90635323524 14.1272268295 -19.1269226074
    endloop
  endfacet
  facet normal -0.742157518864 -0.325090169907 -0.586104631424
    outer loop
      vertex 3.90635323524 14.1272268295 -19.1269226074
      vertex 7.31119918823 21.9106807709 -27.7555103302
      vertex 9.02758693695 17.7770328522 -27.6361160278
    endloop
  endfacet
  facet normal -0.955864429474 0.12167057395 -0.267431169748
    outer loop
      vertex 3.90635323524 14.1272268295 -19.1269226074
      vertex 6.27734375 24.4813995361 -22.8906841278
      vertex 7.31119918823 21.9106807709 -27.7555103302
    endloop
  endfacet
  facet normal 0.248511984944 0.853863835335 0.45733833313
    outer loop
      vertex 5.53620147705 20.5070896149 -15.0678062439
      vertex 9.95505714417 21.4599723816 -19.2480182648
      vertex 6.27734375 24.4813995361 -22.8906841278
    endloop
  endfacet
  facet normal 0.468632400036 0.818299174309 -0.332821518183
    outer loop
      vertex 11.5188713074 18.6510715485 -29.84516716
      vertex 7.31119918823 21.9106807709 -27.7555103302
      vertex 6.27734375 24.4813995361 -22.8906841278
    endloop
  endfacet
  facet normal 0.68432110548 0.723506689072 -0.0907892510295
    outer loop
      vertex 11.5188713074 18.6510715485 -29.84516716
      vertex 6.27734375 24.4813995361 -22.8906841278
      vertex 9.95505714417 21.4599723816 -19.2480182648
    endloop
  endfacet
  facet normal 0.729782104492 -0.435406625271 0.527104496956
    outer loop
      vertex 3.15186285973 -30.8184661865 10.713637352
      vertex 6.20502328873 -20.6839103699 14.8579969406
      vertex 0.302004694939 -28.0481567383 16.9476680756
    endloop
  endfacet
  facet normal 0.568622410297 -0.452283352613 0.687101364136
    outer loop
      vertex 3.15186285973 -30.8184661865 10.713637352
      vertex 8.43771839142 -26.5883541107 9.12370204926
      vertex 6.20502328873 -20.6839103699 14.8579969406
    endloop
  endfacet
  facet normal 0.555582284927 0.012151834555 -0.831372737885
    outer loop
      vertex 0.302004694939 -28.0481567383 16.9476680756
      vertex 7.22725820541 -23.5727882385 21.6410293579
      vertex 6.53886651993 -32.2930259705 21.0535373688
    endloop
  endfacet
  facet normal 0.668795883656 -0.642317950726 -0.374352365732
    outer loop
      vertex 0.302004694939 -28.0481567383 16.9476680756
      vertex 6.20502328873 -20.6839103699 14.8579969406
      vertex 7.22725820541 -23.5727882385 21.6410293579
    endloop
  endfacet
  facet normal 0.447366923094 0.894287288189 -0.0106346383691
    outer loop
      vertex -0.00629819370806 25.8829746246 5.49520969391
      vertex 4.68389463425 23.5632534027 7.72746992111
      vertex 10.8810691833 20.3514518738 -1.66278111935
    endloop
  endfacet
  facet normal 0.513654708862 0.848791360855 0.125347808003
    outer loop
      vertex 8.08640098572 22.8609828949 -7.20395040512
      vertex -0.00629819370806 25.8829746246 5.49520969391
      vertex 10.8810691833 20.3514518738 -1.66278111935
    endloop
  endfacet
  facet normal 0.506341397762 -0.857737541199 -0.0889082700014
    outer loop
      vertex 3.15186285973 -30.8184661865 10.713637352
      vertex -0.896171450615 -32.8144493103 6.91583633423
      vertex 0.150739237666 -31.3900623322 -0.863608896732
    endloop
  endfacet
  facet normal 0.356562107801 -0.933120667934 -0.0463597252965
    outer loop
      vertex 6.89988231659 -28.8876590729 0.677465438843
      vertex 3.15186285973 -30.8184661865 10.713637352
      vertex 0.150739237666 -31.3900623322 -0.863608896732
    endloop
  endfacet
  facet normal 0.638850569725 -0.763855218887 0.0916253179312
    outer loop
      vertex 8.43771839142 -26.5883541107 9.12370204926
      vertex 3.15186285973 -30.8184661865 10.713637352
      vertex 6.89988231659 -28.8876590729 0.677465438843
    endloop
  endfacet
  facet normal -0.27651616931 -0.764581382275 0.582197666168
    outer loop
      vertex 8.27136325836 -21.3583049774 -24.5333023071
      vertex 4.89105415344 -18.4305305481 -22.293838501
      vertex 3.53917050362 -23.7903823853 -29.9748382568
    endloop
  endfacet
  facet normal -0.231530532241 -0.797145843506 0.557630836964
    outer loop
      vertex 8.27136325836 -21.3583049774 -24.5333023071
      vertex 3.53917050362 -23.7903823853 -29.9748382568
      vertex 5.68919038773 -25.8414020538 -32.0141181946
    endloop
  endfacet
  facet normal 0.677614867687 -0.710018098354 0.191604942083
    outer loop
      vertex 5.68919038773 -25.8414020538 -32.0141181946
      vertex 8.52409648895 -23.4371147156 -33.1304130554
      vertex 8.27136325836 -21.3583049774 -24.5333023071
    endloop
  endfacet
  facet normal 0.950530529022 -0.294389903545 0.0991276577115
    outer loop
      vertex 8.27136325836 -21.3583049774 -24.5333023071
      vertex 8.52409648895 -23.4371147156 -33.1304130554
      vertex 9.48817825317 -17.259185791 -24.0277023315
    endloop
  endfacet
  facet normal 0.671497344971 0.162952408195 -0.722867786884
    outer loop
      vertex 5.15787982941 -5.9664850235 -11.1298809052
      vertex 11.3653964996 5.73948192596 -2.72468423843
      vertex 9.50346374512 -12.7999410629 -8.63354682922
    endloop
  endfacet
  facet normal 0.267066299915 -0.153798893094 0.951326191425
    outer loop
      vertex -0.202965512872 -10.5443572998 10.8413295746
      vertex 6.20939779282 4.29418468475 11.4400987625
      vertex 0.133656442165 3.96635317802 13.0927457809
    endloop
  endfacet
  facet normal 0.240388542414 -0.142626002431 0.96014124155
    outer loop
      vertex 6.20939779282 4.29418468475 11.4400987625
      vertex -0.202965512872 -10.5443572998 10.8413295746
      vertex 6.95317935944 -13.1277761459 8.66590213776
    endloop
  endfacet
  facet normal 0.806368231773 -0.0592743493617 0.58843588829
    outer loop
      vertex 10.1686677933 6.9729719162 6.28431892395
      vertex 6.20939779282 4.29418468475 11.4400987625
      vertex 6.95317935944 -13.1277761459 8.66590213776
    endloop
  endfacet
  facet normal 0.67205363512 0.163543909788 -0.722216963768
    outer loop
      vertex 9.50346374512 -12.7999410629 -8.63354682922
      vertex 4.91813421249 -17.0842208862 -13.8705530167
      vertex 5.15787982941 -5.9664850235 -11.1298809052
    endloop
  endfacet
  facet normal -0.838303208351 0.538784563541 -0.0834199488163
    outer loop
      vertex 4.89105415344 -18.4305305481 -22.293838501
      vertex 4.91813421249 -17.0842208862 -13.8705530167
      vertex 6.64118003845 -16.2458553314 -25.7710266113
    endloop
  endfacet
  facet normal -0.65613335371 0.753479838371 -0.0419191010296
    outer loop
      vertex 9.50346374512 -12.7999410629 -8.63354682922
      vertex 6.64118003845 -16.2458553314 -25.7710266113
      vertex 4.91813421249 -17.0842208862 -13.8705530167
    endloop
  endfacet
  facet normal 0.456081449986 0.854676425457 -0.248028129339
    outer loop
      vertex 6.64118003845 -16.2458553314 -25.7710266113
      vertex 9.50346374512 -12.7999410629 -8.63354682922
      vertex 9.48817825317 -17.259185791 -24.0277023315
    endloop
  endfacet
  facet normal 0.571344673634 0.387994378805 0.723205089569
    outer loop
      vertex 2.73753094673 18.648891449 11.9016513824
      vertex 7.31175374985 16.1964893341 9.60363197327
      vertex 4.68389463425 23.5632534027 7.72746992111
    endloop
  endfacet
  facet normal 0.822575628757 0.397093713284 0.407045394182
    outer loop
      vertex 7.31175374985 16.1964893341 9.60363197327
      vertex 10.8810691833 20.3514518738 -1.66278111935
      vertex 4.68389463425 23.5632534027 7.72746992111
    endloop
  endfacet
  facet normal 0.922662079334 0.159433111548 0.351106494665
    outer loop
      vertex 10.1686677933 6.9729719162 6.28431892395
      vertex 10.8810691833 20.3514518738 -1.66278111935
      vertex 7.31175374985 16.1964893341 9.60363197327
    endloop
  endfacet
  facet normal -0.923599123955 -0.38306877017 0.0149326967075
    outer loop
      vertex 9.95381355286 15.3025846481 -33.8252906799
      vertex 9.02758693695 17.7770328522 -27.6361160278
      vertex 7.31119918823 21.9106807709 -27.7555103302
    endloop
  endfacet
  facet normal -0.91394418478 -0.40505874157 0.0251692384481
    outer loop
      vertex 12.3362131119 9.97463417053 -33.0605812073
      vertex 9.02758693695 17.7770328522 -27.6361160278
      vertex 9.95381355286 15.3025846481 -33.8252906799
    endloop
  endfacet
  facet normal 0.210680708289 0.705652952194 -0.676511347294
    outer loop
      vertex 7.31119918823 21.9106807709 -27.7555103302
      vertex 11.5188713074 18.6510715485 -29.84516716
      vertex 9.95381355286 15.3025846481 -33.8252906799
    endloop
  endfacet
  facet normal 0.416298121214 0.608478426933 -0.675610721111
    outer loop
      vertex 9.95381355286 15.3025846481 -33.8252906799
      vertex 11.5188713074 18.6510715485 -29.84516716
      vertex 13.9853963852 13.0657424927 -33.3556861877
    endloop
  endfacet
  facet normal 0.895395457745 -0.390604764223 -0.213763654232
    outer loop
      vertex 3.81963086128 -40.575717926 24.7981758118
      vertex 6.53886651993 -32.2930259705 21.0535373688
      vertex 9.7973613739 -27.6551189423 26.2277202606
    endloop
  endfacet
  facet normal 0.858931422234 -0.0333788767457 -0.511001586914
    outer loop
      vertex 6.53886651993 -32.2930259705 21.0535373688
      vertex 7.22725820541 -23.5727882385 21.6410293579
      vertex 9.7973613739 -27.6551189423 26.2277202606
    endloop
  endfacet
  facet normal 0.906562030315 -0.421609342098 0.0197702813894
    outer loop
      vertex 6.82037496567 -33.8320655823 31.0108261108
      vertex 3.81963086128 -40.575717926 24.7981758118
      vertex 9.7973613739 -27.6551189423 26.2277202606
    endloop
  endfacet
  facet normal 0.931962132454 -0.236112490296 0.275131702423
    outer loop
      vertex 7.09765577316 -26.517578125 36.3487319946
      vertex 6.82037496567 -33.8320655823 31.0108261108
      vertex 9.7973613739 -27.6551189423 26.2277202606
    endloop
  endfacet
  facet normal -0.414828330278 0.713398933411 0.564782619476
    outer loop
      vertex 0.191483080387 -25.6536540985 37.7551116943
      vertex 7.86797142029 -24.1388683319 41.4800491333
      vertex 3.28806352615 -18.5349273682 31.0375843048
    endloop
  endfacet
  facet normal 0.407521724701 0.867063999176 0.286576449871
    outer loop
      vertex 3.28806352615 -18.5349273682 31.0375843048
      vertex 7.86797142029 -24.1388683319 41.4800491333
      vertex 7.6474313736 -21.0323638916 32.3946418762
    endloop
  endfacet
  facet normal 0.899394750595 0.416260182858 -0.133478701115
    outer loop
      vertex 7.22725820541 -23.5727882385 21.6410293579
      vertex 7.6474313736 -21.0323638916 32.3946418762
      vertex 9.7973613739 -27.6551189423 26.2277202606
    endloop
  endfacet
  facet normal 0.985115945339 -0.153910472989 -0.0765382274985
    outer loop
      vertex 7.09765577316 -26.517578125 36.3487319946
      vertex 7.6474313736 -21.0323638916 32.3946418762
      vertex 7.86797142029 -24.1388683319 41.4800491333
    endloop
  endfacet
  facet normal 0.965209186077 0.0821941718459 0.24822434783
    outer loop
      vertex 7.6474313736 -21.0323638916 32.3946418762
      vertex 7.09765577316 -26.517578125 36.3487319946
      vertex 9.7973613739 -27.6551189423 26.2277202606
    endloop
  endfacet
  facet normal 0.99052798748 0.124995477498 -0.0568365156651
    outer loop
      vertex 9.50346374512 -12.7999410629 -8.63354682922
      vertex 11.0306949615 -19.9200592041 2.32388997078
      vertex 10.6031799316 -21.0752315521 -7.66716098785
    endloop
  endfacet
  facet normal 0.97994941473 -0.139958947897 0.141811817884
    outer loop
      vertex 6.95317935944 -13.1277761459 8.66590213776
      vertex 9.50346374512 -12.7999410629 -8.63354682922
      vertex 10.1686677933 6.9729719162 6.28431892395
    endloop
  endfacet
  facet normal 0.901292204857 0.409749358892 0.140633478761
    outer loop
      vertex 6.95317935944 -13.1277761459 8.66590213776
      vertex 11.0306949615 -19.9200592041 2.32388997078
      vertex 9.50346374512 -12.7999410629 -8.63354682922
    endloop
  endfacet
  facet normal 0.315877526999 -0.624848484993 -0.713992834091
    outer loop
      vertex 10.9447374344 6.55148267746 -14.5767917633
      vertex 6.6105966568 7.00480031967 -16.8909778595
      vertex 7.91542816162 12.2140674591 -20.8725814819
    endloop
  endfacet
  facet normal 0.436006247997 -0.554678559303 -0.708682000637
    outer loop
      vertex 7.91542816162 12.2140674591 -20.8725814819
      vertex 12.3569602966 12.3488578796 -18.2454929352
      vertex 10.9447374344 6.55148267746 -14.5767917633
    endloop
  endfacet
  facet normal 0.919394373894 -0.344307690859 -0.190174028277
    outer loop
      vertex 14.3435220718 13.0285997391 -9.8721446991
      vertex 10.9447374344 6.55148267746 -14.5767917633
      vertex 12.3569602966 12.3488578796 -18.2454929352
    endloop
  endfacet
  facet normal 0.535037815571 -0.793734550476 0.28934404254
    outer loop
      vertex 9.02758693695 17.7770328522 -27.6361160278
      vertex 11.5188713074 18.6510715485 -29.84516716
      vertex 9.95505714417 21.4599723816 -19.2480182648
    endloop
  endfacet
  facet normal -0.993614435196 0.11186902225 -0.0146858338267
    outer loop
      vertex 4.91813421249 -17.0842208862 -13.8705530167
      vertex 4.89105415344 -18.4305305481 -22.293838501
      vertex 4.31381893158 -22.1538143158 -11.6012763977
    endloop
  endfacet
  facet normal -0.724993884563 -0.637357115746 -0.261074274778
    outer loop
      vertex 8.27136325836 -21.3583049774 -24.5333023071
      vertex 4.31381893158 -22.1538143158 -11.6012763977
      vertex 4.89105415344 -18.4305305481 -22.293838501
    endloop
  endfacet
  facet normal 0.173556149006 -0.984795689583 -0.00746659655124
    outer loop
      vertex 8.27136325836 -21.3583049774 -24.5333023071
      vertex 10.6031799316 -21.0752315521 -7.66716098785
      vertex 4.31381893158 -22.1538143158 -11.6012763977
    endloop
  endfacet
  facet normal 0.955006718636 -0.267760634422 -0.127539843321
    outer loop
      vertex 9.48817825317 -17.259185791 -24.0277023315
      vertex 10.6031799316 -21.0752315521 -7.66716098785
      vertex 8.27136325836 -21.3583049774 -24.5333023071
    endloop
  endfacet
  facet normal 0.991142392159 0.127293497324 -0.0378573946655
    outer loop
      vertex 10.6031799316 -21.0752315521 -7.66716098785
      vertex 9.48817825317 -17.259185791 -24.0277023315
      vertex 9.50346374512 -12.7999410629 -8.63354682922
    endloop
  endfacet
  facet normal -0.542446553707 -0.602875351906 -0.585058152676
    outer loop
      vertex 7.91542816162 12.2140674591 -20.8725814819
      vertex 3.90635323524 14.1272268295 -19.1269226074
      vertex 9.02758693695 17.7770328522 -27.6361160278
    endloop
  endfacet
  facet normal 0.353351861238 -0.750174343586 -0.558910489082
    outer loop
      vertex 9.02758693695 17.7770328522 -27.6361160278
      vertex 12.3569602966 12.3488578796 -18.2454929352
      vertex 7.91542816162 12.2140674591 -20.8725814819
    endloop
  endfacet
  facet normal 0.951671421528 0.228275999427 -0.205454677343
    outer loop
      vertex 9.95505714417 21.4599723816 -19.2480182648
      vertex 12.3569602966 12.3488578796 -18.2454929352
      vertex 9.02758693695 17.7770328522 -27.6361160278
    endloop
  endfacet
  facet normal 0.944430530071 0.222333461046 -0.242113292217
    outer loop
      vertex 14.3435220718 13.0285997391 -9.8721446991
      vertex 12.3569602966 12.3488578796 -18.2454929352
      vertex 9.95505714417 21.4599723816 -19.2480182648
    endloop
  endfacet
  facet normal -0.351908564568 0.921936810017 -0.161842167377
    outer loop
      vertex 5.53620147705 20.5070896149 -15.0678062439
      vertex 8.08640098572 22.8609828949 -7.20395040512
      vertex 9.95505714417 21.4599723816 -19.2480182648
    endloop
  endfacet
  facet normal 0.850154697895 0.521694421768 0.071217469871
    outer loop
      vertex 8.08640098572 22.8609828949 -7.20395040512
      vertex 14.3435220718 13.0285997391 -9.8721446991
      vertex 9.95505714417 21.4599723816 -19.2480182648
    endloop
  endfacet
  facet normal 0.81345552206 0.560155510902 -0.156575456262
    outer loop
      vertex 14.3435220718 13.0285997391 -9.8721446991
      vertex 8.08640098572 22.8609828949 -7.20395040512
      vertex 10.8810691833 20.3514518738 -1.66278111935
    endloop
  endfacet
  facet normal 0.948851406574 0.12236212194 0.291047334671
    outer loop
      vertex 14.3435220718 13.0285997391 -9.8721446991
      vertex 10.8810691833 20.3514518738 -1.66278111935
      vertex 10.1686677933 6.9729719162 6.28431892395
    endloop
  endfacet
  facet normal 0.907549262047 -0.419833451509 0.00970768369734
    outer loop
      vertex 6.89988231659 -28.8876590729 0.677465438843
      vertex 10.6031799316 -21.0752315521 -7.66716098785
      vertex 11.0306949615 -19.9200592041 2.32388997078
    endloop
  endfacet
  facet normal 0.910682141781 -0.409519791603 -0.0543281622231
    outer loop
      vertex 6.89988231659 -28.8876590729 0.677465438843
      vertex 11.0306949615 -19.9200592041 2.32388997078
      vertex 8.43771839142 -26.5883541107 9.12370204926
    endloop
  endfacet
  facet normal 0.90870141983 0.207064852118 0.362471878529
    outer loop
      vertex 11.0306949615 -19.9200592041 2.32388997078
      vertex 6.95317935944 -13.1277761459 8.66590213776
      vertex 6.20502328873 -20.6839103699 14.8579969406
    endloop
  endfacet
  facet normal 0.933141648769 0.00372622581199 0.359489619732
    outer loop
      vertex 8.43771839142 -26.5883541107 9.12370204926
      vertex 11.0306949615 -19.9200592041 2.32388997078
      vertex 6.20502328873 -20.6839103699 14.8579969406
    endloop
  endfacet
  facet normal -0.89730989933 -0.434512108564 0.0776801407337
    outer loop
      vertex 12.3362131119 9.97463417053 -33.0605812073
      vertex 11.9566545486 11.1740779877 -30.7357730865
      vertex 9.02758693695 17.7770328522 -27.6361160278
    endloop
  endfacet
  facet normal 0.672168195248 -0.0486444979906 0.738798797131
    outer loop
      vertex 9.02758693695 17.7770328522 -27.6361160278
      vertex 11.9566545486 11.1740779877 -30.7357730865
      vertex 11.5188713074 18.6510715485 -29.84516716
    endloop
  endfacet
  facet normal 0.799001991749 -0.0247829407454 0.60081744194
    outer loop
      vertex 11.5188713074 18.6510715485 -29.84516716
      vertex 11.9566545486 11.1740779877 -30.7357730865
      vertex 13.9853963852 13.0657424927 -33.3556861877
    endloop
  endfacet
  facet normal 0.958746850491 -0.235250681639 0.159566938877
    outer loop
      vertex 11.3653964996 5.73948192596 -2.72468423843
      vertex 14.3435220718 13.0285997391 -9.8721446991
      vertex 10.1686677933 6.9729719162 6.28431892395
    endloop
  endfacet
  facet normal 0.0485901981592 -0.120582550764 -0.991513431072
    outer loop
      vertex 13.9853963852 13.0657424927 -33.3556861877
      vertex 12.3362131119 9.97463417053 -33.0605812073
      vertex 9.95381355286 15.3025846481 -33.8252906799
    endloop
  endfacet
  facet normal 0.839672088623 -0.414482921362 0.350933998823
    outer loop
      vertex 11.9566545486 11.1740779877 -30.7357730865
      vertex 12.3362131119 9.97463417053 -33.0605812073
      vertex 13.9853963852 13.0657424927 -33.3556861877
    endloop
  endfacet
  facet normal 0.228225544095 -0.530583262444 -0.81632989645
    outer loop
      vertex -1.99437367916 13.3422718048 -17.0652084351
      vertex 7.12021970749 4.02578258514 -8.46163272858
      vertex -3.80728197098 5.42254161835 -12.4245300293
    endloop
  endfacet
  facet normal 0.337832093239 -0.0263351108879 -0.940837919712
    outer loop
      vertex -3.80728197098 5.42254161835 -12.4245300293
      vertex 7.12021970749 4.02578258514 -8.46163272858
      vertex -0.454480111599 -1.12474894524 -11.0373544693
    endloop
  endfacet
  facet normal -0.572155952454 -0.783530712128 -0.242316290736
    outer loop
      vertex -1.99437367916 13.3422718048 -17.0652084351
      vertex 6.6105966568 7.00480031967 -16.8909778595
      vertex 7.12021970749 4.02578258514 -8.46163272858
    endloop
  endfacet
  facet normal 0.175432816148 0.221685931087 -0.959207296371
    outer loop
      vertex 7.12021970749 4.02578258514 -8.46163272858
      vertex 5.15787982941 -5.9664850235 -11.1298809052
      vertex -0.454480111599 -1.12474894524 -11.0373544693
    endloop
  endfacet
  facet normal 0.081539131701 -0.938152909279 -0.336482584476
    outer loop
      vertex 10.9447374344 6.55148267746 -14.5767917633
      vertex 7.12021970749 4.02578258514 -8.46163272858
      vertex 6.6105966568 7.00480031967 -16.8909778595
    endloop
  endfacet
  facet normal -0.0436748191714 0.0884728357196 0.995120644569
    outer loop
      vertex 0.133656442165 3.96635317802 13.0927457809
      vertex 2.73753094673 18.648891449 11.9016513824
      vertex -4.65254354477 11.338889122 12.2272167206
    endloop
  endfacet
  facet normal 0.260726183653 0.032035715878 0.964881122112
    outer loop
      vertex 0.133656442165 3.96635317802 13.0927457809
      vertex 6.20939779282 4.29418468475 11.4400987625
      vertex 2.73753094673 18.648891449 11.9016513824
    endloop
  endfacet
  facet normal 0.39908310771 -0.765914440155 -0.504091024399
    outer loop
      vertex 6.89988231659 -28.8876590729 0.677465438843
      vertex 0.150739237666 -31.3900623322 -0.863608896732
      vertex 4.31381893158 -22.1538143158 -11.6012763977
    endloop
  endfacet
  facet normal 0.60840433836 -0.482756316662 0.62991309166
    outer loop
      vertex 1.17643296719 -36.8304290771 34.164150238
      vertex 6.82037496567 -33.8320655823 31.0108261108
      vertex 7.09765577316 -26.517578125 36.3487319946
    endloop
  endfacet
  facet normal 0.31172272563 -0.0773842185736 0.947016716003
    outer loop
      vertex 2.1741335392 18.3250541687 52.4078178406
      vertex -1.97807919979 19.0432758331 53.8332633972
      vertex 0.353228390217 12.1667118073 52.5039749146
    endloop
  endfacet
  facet normal 0.95068192482 -0.294908672571 0.0960870906711
    outer loop
      vertex 4.68389463425 23.5632534027 7.72746992111
      vertex 0.954827308655 17.3705310822 25.6161365509
      vertex 2.73753094673 18.648891449 11.9016513824
    endloop
  endfacet
  facet normal 0.460869163275 -0.884127497673 -0.0769298523664
    outer loop
      vertex 10.9447374344 6.55148267746 -14.5767917633
      vertex 11.3653964996 5.73948192596 -2.72468423843
      vertex 7.12021970749 4.02578258514 -8.46163272858
    endloop
  endfacet
  facet normal 0.90146946907 -0.428472757339 -0.0613503791392
    outer loop
      vertex 14.3435220718 13.0285997391 -9.8721446991
      vertex 11.3653964996 5.73948192596 -2.72468423843
      vertex 10.9447374344 6.55148267746 -14.5767917633
    endloop
  endfacet
  facet normal 0.803701579571 0.00105653190985 -0.595031678677
    outer loop
      vertex 5.15787982941 -5.9664850235 -11.1298809052
      vertex 7.12021970749 4.02578258514 -8.46163272858
      vertex 11.3653964996 5.73948192596 -2.72468423843
    endloop
  endfacet
  facet normal 0.977867543697 -0.145979061723 0.149884030223
    outer loop
      vertex 9.50346374512 -12.7999410629 -8.63354682922
      vertex 11.3653964996 5.73948192596 -2.72468423843
      vertex 10.1686677933 6.9729719162 6.28431892395
    endloop
  endfacet
  facet normal 0.00751439994201 -0.409295767546 -0.912370800972
    outer loop
      vertex 4.91813421249 -17.0842208862 -13.8705530167
      vertex 4.31381893158 -22.1538143158 -11.6012763977
      vertex -3.55835127831 -17.4497299194 -13.7763957977
    endloop
  endfacet
  facet normal 0.484946578741 0.089317932725 0.869970738888
    outer loop
      vertex 6.20939779282 4.29418468475 11.4400987625
      vertex 7.31175374985 16.1964893341 9.60363197327
      vertex 2.73753094673 18.648891449 11.9016513824
    endloop
  endfacet
  facet normal 0.787337601185 0.0221441015601 0.616124331951
    outer loop
      vertex 10.1686677933 6.9729719162 6.28431892395
      vertex 7.31175374985 16.1964893341 9.60363197327
      vertex 6.20939779282 4.29418468475 11.4400987625
    endloop
  endfacet
  facet normal 0.1083740592 0.144419386983 -0.983563959599
    outer loop
      vertex 5.15787982941 -5.9664850235 -11.1298809052
      vertex -3.55835127831 -17.4497299194 -13.7763957977
      vertex -0.454480111599 -1.12474894524 -11.0373544693
    endloop
  endfacet
  facet normal -0.0211186185479 0.239724203944 -0.970611333847
    outer loop
      vertex 5.15787982941 -5.9664850235 -11.1298809052
      vertex 4.91813421249 -17.0842208862 -13.8705530167
      vertex -3.55835127831 -17.4497299194 -13.7763957977
    endloop
  endfacet
  facet normal -0.473405748606 -0.26066198945 -0.841393113136
    outer loop
      vertex -7.49292373657 -26.4743595123 20.8458881378
      vertex 0.302004694939 -28.0481567383 16.9476680756
      vertex -0.148845747113 -35.9387130737 19.645816803
    endloop
  endfacet
  facet normal 0.650500893593 -0.489291697741 -0.580897808075
    outer loop
      vertex -7.07401037216 9.09473896027 -19.1757774353
      vertex -1.99437367916 13.3422718048 -17.0652084351
      vertex -3.80728197098 5.42254161835 -12.4245300293
    endloop
  endfacet
  facet normal 0.607349574566 0.4580963552 -0.649056375027
    outer loop
      vertex -3.73138308525 18.9476356506 -14.7344017029
      vertex 0.510381221771 19.2784786224 -10.5316991806
      vertex -1.99437367916 13.3422718048 -17.0652084351
    endloop
  endfacet
  facet normal 0.118599087 0.973340213299 -0.196323901415
    outer loop
      vertex 0.510381221771 19.2784786224 -10.5316991806
      vertex -3.73138308525 18.9476356506 -14.7344017029
      vertex -9.29161548615 19.8003387451 -13.8657798767
    endloop
  endfacet
  facet normal 0.520560204983 0.818238794804 0.243931055069
    outer loop
      vertex -0.439691096544 15.5379037857 45.0252532959
      vertex 0.502970635891 18.8921298981 31.7621994019
      vertex -2.42935276031 24.2973022461 19.8888816833
    endloop
  endfacet
  facet normal 0.392614901066 0.599793672562 0.697209477425
    outer loop
      vertex -3.97564506531 -20.9320602417 36.0398368835
      vertex -7.75858736038 -24.4352359772 41.1838035583
      vertex 0.191483080387 -25.6536540985 37.7551116943
    endloop
  endfacet
  facet normal 0.313681215048 -0.898541629314 -0.306964188814
    outer loop
      vertex -2.39765238762 11.766046524 37.5434875488
      vertex -5.77787971497 20.1651935577 9.5034198761
      vertex -0.868021011353 19.9276275635 15.2161130905
    endloop
  endfacet
  facet normal 0.422303795815 -0.860304296017 -0.285545200109
    outer loop
      vertex -2.39765238762 11.766046524 37.5434875488
      vertex -0.868021011353 19.9276275635 15.2161130905
      vertex 0.954827308655 17.3705310822 25.6161365509
    endloop
  endfacet
  facet normal -0.942079782486 0.272695362568 0.19525103271
    outer loop
      vertex -2.42935276031 24.2973022461 19.8888816833
      vertex -5.77787971497 20.1651935577 9.5034198761
      vertex -2.39765238762 11.766046524 37.5434875488
    endloop
  endfacet
  facet normal -0.576701819897 0.771165251732 0.269664824009
    outer loop
      vertex -7.76205873489 23.4308681488 -4.07882976532
      vertex -5.77787971497 20.1651935577 9.5034198761
      vertex -0.00629819370806 25.8829746246 5.49520969391
    endloop
  endfacet
  facet normal -0.718515396118 0.694086492062 -0.0444923788309
    outer loop
      vertex -0.00629819370806 25.8829746246 5.49520969391
      vertex -5.77787971497 20.1651935577 9.5034198761
      vertex -2.42935276031 24.2973022461 19.8888816833
    endloop
  endfacet
  facet normal -0.338848650455 0.939692139626 0.0464783720672
    outer loop
      vertex -0.00629819370806 25.8829746246 5.49520969391
      vertex -2.42935276031 24.2973022461 19.8888816833
      vertex 1.09186065197 25.6157016754 18.9049835205
    endloop
  endfacet
  facet normal -0.0529916957021 -0.974276959896 -0.219034835696
    outer loop
      vertex -2.39765238762 11.766046524 37.5434875488
      vertex 1.99778485298 10.0814399719 43.9732933044
      vertex -2.83758950233 9.5931892395 47.3148880005
    endloop
  endfacet
  facet normal -0.144740656018 -0.848130524158 0.509631991386
    outer loop
      vertex 0.353228390217 12.1667118073 52.5039749146
      vertex -3.1758184433 12.4057559967 51.8995056152
      vertex -2.83758950233 9.5931892395 47.3148880005
    endloop
  endfacet
  facet normal -0.966971099377 0.207026451826 0.148683860898
    outer loop
      vertex -2.39765238762 11.766046524 37.5434875488
      vertex -0.439691096544 15.5379037857 45.0252532959
      vertex -2.42935276031 24.2973022461 19.8888816833
    endloop
  endfacet
  facet normal 0.499608188868 -0.472752511501 0.725876510143
    outer loop
      vertex -0.868021011353 19.9276275635 15.2161130905
      vertex -4.65254354477 11.338889122 12.2272167206
      vertex 2.73753094673 18.648891449 11.9016513824
    endloop
  endfacet
  facet normal -0.752038359642 0.104926913977 0.650713920593
    outer loop
      vertex -5.77787971497 20.1651935577 9.5034198761
      vertex -4.65254354477 11.338889122 12.2272167206
      vertex -0.868021011353 19.9276275635 15.2161130905
    endloop
  endfacet
  facet normal -0.920330286026 0.388549000025 0.0449652671814
    outer loop
      vertex -2.39765238762 11.766046524 37.5434875488
      vertex -2.83758950233 9.5931892395 47.3148880005
      vertex -0.439691096544 15.5379037857 45.0252532959
    endloop
  endfacet
  facet normal -0.83872795105 -0.00728531554341 0.544501960278
    outer loop
      vertex -3.1758184433 12.4057559967 51.8995056152
      vertex -1.97807919979 19.0432758331 53.8332633972
      vertex -4.25047874451 17.8564434052 50.317073822
    endloop
  endfacet
  facet normal -0.982459187508 -0.182279869914 0.0393442325294
    outer loop
      vertex -3.1758184433 12.4057559967 51.8995056152
      vertex -4.25047874451 17.8564434052 50.317073822
      vertex -2.83758950233 9.5931892395 47.3148880005
    endloop
  endfacet
  facet normal -0.745254814625 0.215369567275 -0.63103979826
    outer loop
      vertex -0.439691096544 15.5379037857 45.0252532959
      vertex -4.25047874451 17.8564434052 50.317073822
      vertex -2.3827521801 22.1481895447 49.5760421753
    endloop
  endfacet
  facet normal -0.790453016758 0.0852204859257 -0.60656529665
    outer loop
      vertex -2.83758950233 9.5931892395 47.3148880005
      vertex -4.25047874451 17.8564434052 50.317073822
      vertex -0.439691096544 15.5379037857 45.0252532959
    endloop
  endfacet
  facet normal -0.819339036942 0.423325031996 0.386625766754
    outer loop
      vertex -4.25047874451 17.8564434052 50.317073822
      vertex -1.97807919979 19.0432758331 53.8332633972
      vertex -2.3827521801 22.1481895447 49.5760421753
    endloop
  endfacet
  facet normal -0.67161667347 -0.465282231569 0.576579093933
    outer loop
      vertex -2.77702045441 -41.7293205261 25.6057891846
      vertex 0.511848926544 -43.9080276489 27.678609848
      vertex 1.17643296719 -36.8304290771 34.164150238
    endloop
  endfacet
  facet normal -0.37310051918 -0.720366358757 0.58469504118
    outer loop
      vertex -2.77702045441 -41.7293205261 25.6057891846
      vertex 1.17643296719 -36.8304290771 34.164150238
      vertex -4.51537752151 -34.0823326111 33.9179000854
    endloop
  endfacet
  facet normal 0.0429181419313 -0.725956022739 -0.686400711536
    outer loop
      vertex -0.148845747113 -35.9387130737 19.645816803
      vertex 3.81963086128 -40.575717926 24.7981758118
      vertex -2.77702045441 -41.7293205261 25.6057891846
    endloop
  endfacet
  facet normal -0.479711025953 -0.514106571674 -0.71103566885
    outer loop
      vertex -0.148845747113 -35.9387130737 19.645816803
      vertex -2.77702045441 -41.7293205261 25.6057891846
      vertex -6.90700626373 -34.1988945007 22.9473552704
    endloop
  endfacet
  facet normal -0.137657016516 -0.723890841007 -0.676041901112
    outer loop
      vertex 4.31381893158 -22.1538143158 -11.6012763977
      vertex 0.150739237666 -31.3900623322 -0.863608896732
      vertex -6.72121477127 -25.0931015015 -6.20697593689
    endloop
  endfacet
  facet normal -0.186039552093 -0.651438355446 -0.735538840294
    outer loop
      vertex -3.55835127831 -17.4497299194 -13.7763957977
      vertex 4.31381893158 -22.1538143158 -11.6012763977
      vertex -6.72121477127 -25.0931015015 -6.20697593689
    endloop
  endfacet
  facet normal 0.786835670471 0.616497039795 -0.0286533143371
    outer loop
      vertex -4.18482446671 -18.8575344086 -32.3279151917
      vertex -6.2919716835 -15.7145490646 -22.5676956177
      vertex -2.63034462929 -20.6304149628 -27.7858695984
    endloop
  endfacet
  facet normal -0.572180330753 0.736544251442 -0.360710799694
    outer loop
      vertex -8.88597297668 -17.6509990692 -22.4070262909
      vertex -6.2919716835 -15.7145490646 -22.5676956177
      vertex -4.18482446671 -18.8575344086 -32.3279151917
    endloop
  endfacet
  facet normal -0.192530423403 -0.315503418446 0.929187595844
    outer loop
      vertex -4.51537752151 -34.0823326111 33.9179000854
      vertex 1.17643296719 -36.8304290771 34.164150238
      vertex 0.191483080387 -25.6536540985 37.7551116943
    endloop
  endfacet
  facet normal -0.565701663494 0.742579400539 0.358549028635
    outer loop
      vertex -1.30728304386 -15.4446029663 19.2477302551
      vertex -0.202965512872 -10.5443572998 10.8413295746
      vertex -6.38211870193 -20.2991390228 21.2949676514
    endloop
  endfacet
  facet normal -0.695348441601 0.718389093876 -0.0201899763197
    outer loop
      vertex -1.30728304386 -15.4446029663 19.2477302551
      vertex -6.38211870193 -20.2991390228 21.2949676514
      vertex -8.33396911621 -21.9179611206 30.917131424
    endloop
  endfacet
  facet normal 0.844801068306 -0.497640877962 0.196633517742
    outer loop
      vertex -4.4948091507 -24.697052002 -30.0673866272
      vertex -3.22047138214 -24.172580719 -34.2150230408
      vertex -2.63034462929 -20.6304149628 -27.7858695984
    endloop
  endfacet
  facet normal 0.941711187363 0.250567734241 -0.224490135908
    outer loop
      vertex -3.22047138214 -24.172580719 -34.2150230408
      vertex -4.18482446671 -18.8575344086 -32.3279151917
      vertex -2.63034462929 -20.6304149628 -27.7858695984
    endloop
  endfacet
  facet normal -0.199774101377 0.295453995466 -0.934236168861
    outer loop
      vertex -4.18482446671 -18.8575344086 -32.3279151917
      vertex -3.22047138214 -24.172580719 -34.2150230408
      vertex -7.4682970047 -23.9346504211 -33.2314338684
    endloop
  endfacet
  facet normal 0.954425156116 0.298383653164 -0.00630828319117
    outer loop
      vertex -1.99437367916 13.3422718048 -17.0652084351
      vertex -5.34480333328 23.9381656647 -22.786687851
      vertex -3.73138308525 18.9476356506 -14.7344017029
    endloop
  endfacet
  facet normal 0.954922676086 0.170871302485 -0.242746129632
    outer loop
      vertex -1.99437367916 13.3422718048 -17.0652084351
      vertex -5.81936407089 21.3415203094 -26.4813346863
      vertex -5.34480333328 23.9381656647 -22.786687851
    endloop
  endfacet
  facet normal 0.633895456791 -0.443089306355 -0.633915126324
    outer loop
      vertex -7.07401037216 9.09473896027 -19.1757774353
      vertex -5.81936407089 21.3415203094 -26.4813346863
      vertex -1.99437367916 13.3422718048 -17.0652084351
    endloop
  endfacet
  facet normal -0.158440813422 0.946394562721 0.281485050917
    outer loop
      vertex -8.50743293762 24.2009220123 -25.4502735138
      vertex -9.07727909088 22.7026824951 -20.7337245941
      vertex -5.34480333328 23.9381656647 -22.786687851
    endloop
  endfacet
  facet normal 0.508792698383 0.67223161459 -0.537805378437
    outer loop
      vertex -5.81936407089 21.3415203094 -26.4813346863
      vertex -8.50743293762 24.2009220123 -25.4502735138
      vertex -5.34480333328 23.9381656647 -22.786687851
    endloop
  endfacet
  facet normal -0.144086405635 -0.983547747135 0.108962915838
    outer loop
      vertex -5.15756940842 -27.7332611084 12.5706224442
      vertex 0.302004694939 -28.0481567383 16.9476680756
      vertex -7.49292373657 -26.4743595123 20.8458881378
    endloop
  endfacet
  facet normal -0.664003252983 0.700598597527 0.261268645525
    outer loop
      vertex -0.202965512872 -10.5443572998 10.8413295746
      vertex -8.72091674805 -17.7064743042 8.39871692657
      vertex -6.38211870193 -20.2991390228 21.2949676514
    endloop
  endfacet
  facet normal -0.936973154545 0.189873799682 -0.293307393789
    outer loop
      vertex -7.49292373657 -26.4743595123 20.8458881378
      vertex -6.38211870193 -20.2991390228 21.2949676514
      vertex -5.15756940842 -27.7332611084 12.5706224442
    endloop
  endfacet
  facet normal -0.950141727924 -0.290247350931 0.113961488008
    outer loop
      vertex -8.72091674805 -17.7064743042 8.39871692657
      vertex -5.15756940842 -27.7332611084 12.5706224442
      vertex -6.38211870193 -20.2991390228 21.2949676514
    endloop
  endfacet
  facet normal 0.169086068869 0.913168489933 -0.370854765177
    outer loop
      vertex -7.76205873489 23.4308681488 -4.07882976532
      vertex -0.00629819370806 25.8829746246 5.49520969391
      vertex 0.510381221771 19.2784786224 -10.5316991806
    endloop
  endfacet
  facet normal 0.173244073987 0.914257049561 -0.366224765778
    outer loop
      vertex -9.29161548615 19.8003387451 -13.8657798767
      vertex -7.76205873489 23.4308681488 -4.07882976532
      vertex 0.510381221771 19.2784786224 -10.5316991806
    endloop
  endfacet
  facet normal 0.0482054539025 -0.904406011105 0.423941075802
    outer loop
      vertex 0.302004694939 -28.0481567383 16.9476680756
      vertex -0.896171450615 -32.8144493103 6.91583633423
      vertex 3.15186285973 -30.8184661865 10.713637352
    endloop
  endfacet
  facet normal -0.39349141717 -0.811268150806 0.432444810867
    outer loop
      vertex -5.15756940842 -27.7332611084 12.5706224442
      vertex -0.896171450615 -32.8144493103 6.91583633423
      vertex 0.302004694939 -28.0481567383 16.9476680756
    endloop
  endfacet
  facet normal -0.591432869434 -0.768330216408 0.244695410132
    outer loop
      vertex -0.896171450615 -32.8144493103 6.91583633423
      vertex -5.15756940842 -27.7332611084 12.5706224442
      vertex -5.41634607315 -30.8028430939 2.30683541298
    endloop
  endfacet
  facet normal -0.612736642361 -0.752777814865 0.240581288934
    outer loop
      vertex -5.15756940842 -27.7332611084 12.5706224442
      vertex -8.91834068298 -26.5571498871 6.6723613739
      vertex -5.41634607315 -30.8028430939 2.30683541298
    endloop
  endfacet
  facet normal -0.847702085972 -0.0832786336541 0.523894846439
    outer loop
      vertex -8.72091674805 -17.7064743042 8.39871692657
      vertex -8.91834068298 -26.5571498871 6.6723613739
      vertex -5.15756940842 -27.7332611084 12.5706224442
    endloop
  endfacet
  facet normal 0.77965170145 -0.537611544132 0.321118533611
    outer loop
      vertex -9.52702522278 -20.3684959412 -10.6027450562
      vertex -4.4948091507 -24.697052002 -30.0673866272
      vertex -2.63034462929 -20.6304149628 -27.7858695984
    endloop
  endfacet
  facet normal -0.0903745368123 -0.984205961227 -0.152220323682
    outer loop
      vertex -7.4682970047 -23.9346504211 -33.2314338684
      vertex -3.22047138214 -24.172580719 -34.2150230408
      vertex -4.4948091507 -24.697052002 -30.0673866272
    endloop
  endfacet
  facet normal -0.568834781647 -0.741451084614 0.355917513371
    outer loop
      vertex -7.4682970047 -23.9346504211 -33.2314338684
      vertex -4.4948091507 -24.697052002 -30.0673866272
      vertex -8.88597297668 -17.6509990692 -22.4070262909
    endloop
  endfacet
  facet normal -0.902171134949 -0.407088190317 -0.142710894346
    outer loop
      vertex -8.88597297668 -17.6509990692 -22.4070262909
      vertex -4.4948091507 -24.697052002 -30.0673866272
      vertex -9.52702522278 -20.3684959412 -10.6027450562
    endloop
  endfacet
  facet normal -0.729855716228 0.545363068581 -0.412176847458
    outer loop
      vertex -4.18482446671 -18.8575344086 -32.3279151917
      vertex -7.4682970047 -23.9346504211 -33.2314338684
      vertex -8.88597297668 -17.6509990692 -22.4070262909
    endloop
  endfacet
  facet normal 0.11806011945 -0.147594168782 -0.98197644949
    outer loop
      vertex -7.62346792221 -10.8321580887 -10.4402065277
      vertex -3.80728197098 5.42254161835 -12.4245300293
      vertex -0.454480111599 -1.12474894524 -11.0373544693
    endloop
  endfacet
  facet normal -0.263180822134 -0.0159754287452 0.964614272118
    outer loop
      vertex -0.202965512872 -10.5443572998 10.8413295746
      vertex -7.24661016464 -2.70223474503 9.049451828
      vertex -8.72091674805 -17.7064743042 8.39871692657
    endloop
  endfacet
  facet normal -0.605423867702 0.0249871835113 0.7955108881
    outer loop
      vertex -8.72091674805 -17.7064743042 8.39871692657
      vertex -7.24661016464 -2.70223474503 9.049451828
      vertex -10.1429405212 5.98933172226 6.57219457626
    endloop
  endfacet
  facet normal 0.743662834167 0.660913586617 -0.100791320205
    outer loop
      vertex -6.2919716835 -15.7145490646 -22.5676956177
      vertex -3.55835127831 -17.4497299194 -13.7763957977
      vertex -2.63034462929 -20.6304149628 -27.7858695984
    endloop
  endfacet
  facet normal 0.810693919659 0.568516910076 -0.139871150255
    outer loop
      vertex -3.55835127831 -17.4497299194 -13.7763957977
      vertex -6.2919716835 -15.7145490646 -22.5676956177
      vertex -7.62346792221 -10.8321580887 -10.4402065277
    endloop
  endfacet
  facet normal -0.572406470776 0.736945092678 -0.359531223774
    outer loop
      vertex -8.88597297668 -17.6509990692 -22.4070262909
      vertex -7.62346792221 -10.8321580887 -10.4402065277
      vertex -6.2919716835 -15.7145490646 -22.5676956177
    endloop
  endfacet
  facet normal -0.759948551655 0.101244591177 0.642049670219
    outer loop
      vertex -10.1429405212 5.98933172226 6.57219457626
      vertex -4.65254354477 11.338889122 12.2272167206
      vertex -5.77787971497 20.1651935577 9.5034198761
    endloop
  endfacet
  facet normal -0.905769646168 0.201861038804 0.372603654861
    outer loop
      vertex -5.77787971497 20.1651935577 9.5034198761
      vertex -12.1885089874 19.2073402405 -5.5613822937
      vertex -10.1429405212 5.98933172226 6.57219457626
    endloop
  endfacet
  facet normal 0.470846891403 0.655528485775 -0.590411365032
    outer loop
      vertex -9.08127593994 17.6670284271 -33.1624298096
      vertex -8.50743293762 24.2009220123 -25.4502735138
      vertex -5.81936407089 21.3415203094 -26.4813346863
    endloop
  endfacet
  facet normal 0.944960594177 -0.0209741033614 0.326511234045
    outer loop
      vertex -9.08127593994 17.6670284271 -33.1624298096
      vertex -10.3189659119 14.356423378 -29.7930774689
      vertex -9.23363208771 11.6820068359 -33.1059532166
    endloop
  endfacet
  facet normal 0.299195021391 -0.016619078815 -0.954047262669
    outer loop
      vertex -9.08127593994 17.6670284271 -33.1624298096
      vertex -9.23363208771 11.6820068359 -33.1059532166
      vertex -12.9937829971 12.9672517776 -34.3075485229
    endloop
  endfacet
  facet normal -0.9198782444 0.330339074135 -0.211423918605
    outer loop
      vertex -9.08127593994 17.6670284271 -33.1624298096
      vertex -10.1022090912 18.46692276 -27.4706897736
      vertex -8.50743293762 24.2009220123 -25.4502735138
    endloop
  endfacet
  facet normal -0.477410167456 -0.264196842909 -0.838021218777
    outer loop
      vertex -0.148845747113 -35.9387130737 19.645816803
      vertex -6.90700626373 -34.1988945007 22.9473552704
      vertex -7.49292373657 -26.4743595123 20.8458881378
    endloop
  endfacet
  facet normal -0.968529462814 0.186229079962 -0.165134638548
    outer loop
      vertex -8.33396911621 -21.9179611206 30.917131424
      vertex -6.38211870193 -20.2991390228 21.2949676514
      vertex -7.49292373657 -26.4743595123 20.8458881378
    endloop
  endfacet
  facet normal -0.981587350368 -0.115785181522 -0.151921138167
    outer loop
      vertex -9.15335083008 -27.6708583832 32.4860801697
      vertex -7.49292373657 -26.4743595123 20.8458881378
      vertex -6.90700626373 -34.1988945007 22.9473552704
    endloop
  endfacet
  facet normal -0.985956847668 0.105016715825 -0.1298481673
    outer loop
      vertex -9.15335083008 -27.6708583832 32.4860801697
      vertex -8.33396911621 -21.9179611206 30.917131424
      vertex -7.49292373657 -26.4743595123 20.8458881378
    endloop
  endfacet
  facet normal -0.468860894442 0.851426482201 0.23503702879
    outer loop
      vertex -8.33396911621 -21.9179611206 30.917131424
      vertex -7.75858736038 -24.4352359772 41.1838035583
      vertex -3.97564506531 -20.9320602417 36.0398368835
    endloop
  endfacet
  facet normal -0.981492042542 0.165887653828 0.0956802144647
    outer loop
      vertex -9.15335083008 -27.6708583832 32.4860801697
      vertex -7.75858736038 -24.4352359772 41.1838035583
      vertex -8.33396911621 -21.9179611206 30.917131424
    endloop
  endfacet
  facet normal -0.98059463501 0.195876508951 -0.00815965421498
    outer loop
      vertex -8.88597297668 -17.6509990692 -22.4070262909
      vertex -9.52702522278 -20.3684959412 -10.6027450562
      vertex -7.62346792221 -10.8321580887 -10.4402065277
    endloop
  endfacet
  facet normal -0.89356225729 0.185334146023 -0.408898234367
    outer loop
      vertex -9.52702522278 -20.3684959412 -10.6027450562
      vertex -10.8849821091 -6.62769460678 -1.40715956688
      vertex -7.62346792221 -10.8321580887 -10.4402065277
    endloop
  endfacet
  facet normal -0.985202014446 -0.046405326575 0.164995655417
    outer loop
      vertex -10.8849821091 -6.62769460678 -1.40715956688
      vertex -8.72091674805 -17.7064743042 8.39871692657
      vertex -10.1429405212 5.98933172226 6.57219457626
    endloop
  endfacet
  facet normal -0.988423585892 -0.138753175735 0.061371088028
    outer loop
      vertex -9.52702522278 -20.3684959412 -10.6027450562
      vertex -8.72091674805 -17.7064743042 8.39871692657
      vertex -10.8849821091 -6.62769460678 -1.40715956688
    endloop
  endfacet
  facet normal 0.0452845394611 -0.868197023869 -0.494149029255
    outer loop
      vertex -10.6296234131 6.12143373489 -14.2776603699
      vertex -7.07401037216 9.09473896027 -19.1757774353
      vertex -3.80728197098 5.42254161835 -12.4245300293
    endloop
  endfacet
  facet normal -0.30819517374 -0.697379112244 -0.647053420544
    outer loop
      vertex -7.07401037216 9.09473896027 -19.1757774353
      vertex -10.6296234131 6.12143373489 -14.2776603699
      vertex -10.8041772842 11.0486049652 -19.5049114227
    endloop
  endfacet
  facet normal -0.882197320461 -0.357000946999 -0.307047575712
    outer loop
      vertex -10.6296234131 6.12143373489 -14.2776603699
      vertex -13.2539787292 13.6726455688 -15.5171766281
      vertex -10.8041772842 11.0486049652 -19.5049114227
    endloop
  endfacet
  facet normal -0.924828827381 -0.346996247768 -0.155837073922
    outer loop
      vertex -13.2539787292 13.6726455688 -15.5171766281
      vertex -10.6296234131 6.12143373489 -14.2776603699
      vertex -13.7796430588 11.7005558014 -8.00640106201
    endloop
  endfacet
  facet normal 0.491460442543 -0.482748061419 -0.724859297276
    outer loop
      vertex -5.81936407089 21.3415203094 -26.4813346863
      vertex -7.07401037216 9.09473896027 -19.1757774353
      vertex -10.1022090912 18.46692276 -27.4706897736
    endloop
  endfacet
  facet normal 0.132139965892 -0.492866247892 0.860012710094
    outer loop
      vertex -10.3189659119 14.356423378 -29.7930774689
      vertex -5.81936407089 21.3415203094 -26.4813346863
      vertex -10.1022090912 18.46692276 -27.4706897736
    endloop
  endfacet
  facet normal 0.862424433231 -0.481461375952 -0.156265810132
    outer loop
      vertex -5.81936407089 21.3415203094 -26.4813346863
      vertex -10.3189659119 14.356423378 -29.7930774689
      vertex -9.08127593994 17.6670284271 -33.1624298096
    endloop
  endfacet
  facet normal -0.960457324982 0.277010947466 -0.0280468855053
    outer loop
      vertex -9.07727909088 22.7026824951 -20.7337245941
      vertex -8.50743293762 24.2009220123 -25.4502735138
      vertex -10.1022090912 18.46692276 -27.4706897736
    endloop
  endfacet
  facet normal 0.520954370499 -0.824302613735 0.221656829119
    outer loop
      vertex -2.63034462929 -20.6304149628 -27.7858695984
      vertex -3.55835127831 -17.4497299194 -13.7763957977
      vertex -9.52702522278 -20.3684959412 -10.6027450562
    endloop
  endfacet
  facet normal -0.0427388362586 -0.69403386116 -0.718672633171
    outer loop
      vertex -3.55835127831 -17.4497299194 -13.7763957977
      vertex -6.72121477127 -25.0931015015 -6.20697593689
      vertex -9.52702522278 -20.3684959412 -10.6027450562
    endloop
  endfacet
  facet normal -0.300073236227 -0.684750437737 -0.664133191109
    outer loop
      vertex -10.1022090912 18.46692276 -27.4706897736
      vertex -7.07401037216 9.09473896027 -19.1757774353
      vertex -10.8041772842 11.0486049652 -19.5049114227
    endloop
  endfacet
  facet normal -0.888473629951 -0.29417014122 -0.352247774601
    outer loop
      vertex -10.1022090912 18.46692276 -27.4706897736
      vertex -10.8041772842 11.0486049652 -19.5049114227
      vertex -13.2539787292 13.6726455688 -15.5171766281
    endloop
  endfacet
  facet normal -0.923169195652 0.372745662928 -0.0939114242792
    outer loop
      vertex -13.2539787292 13.6726455688 -15.5171766281
      vertex -9.07727909088 22.7026824951 -20.7337245941
      vertex -10.1022090912 18.46692276 -27.4706897736
    endloop
  endfacet
  facet normal -0.847260832787 0.498247802258 0.18411450088
    outer loop
      vertex -13.2539787292 13.6726455688 -15.5171766281
      vertex -9.29161548615 19.8003387451 -13.8657798767
      vertex -9.07727909088 22.7026824951 -20.7337245941
    endloop
  endfacet
  facet normal 0.00756926368922 0.850645899773 0.525684535503
    outer loop
      vertex -3.73138308525 18.9476356506 -14.7344017029
      vertex -5.34480333328 23.9381656647 -22.786687851
      vertex -9.07727909088 22.7026824951 -20.7337245941
    endloop
  endfacet
  facet normal 0.198527336121 0.900555610657 0.386764079332
    outer loop
      vertex -3.73138308525 18.9476356506 -14.7344017029
      vertex -9.07727909088 22.7026824951 -20.7337245941
      vertex -9.29161548615 19.8003387451 -13.8657798767
    endloop
  endfacet
  facet normal -0.648841261864 0.740894913673 -0.173435151577
    outer loop
      vertex -7.76205873489 23.4308681488 -4.07882976532
      vertex -9.29161548615 19.8003387451 -13.8657798767
      vertex -12.1885089874 19.2073402405 -5.5613822937
    endloop
  endfacet
  facet normal -0.786594212055 0.57158601284 -0.233578652143
    outer loop
      vertex -13.2539787292 13.6726455688 -15.5171766281
      vertex -12.1885089874 19.2073402405 -5.5613822937
      vertex -9.29161548615 19.8003387451 -13.8657798767
    endloop
  endfacet
  facet normal -0.977323830128 0.211356535554 -0.0129054728895
    outer loop
      vertex -13.2539787292 13.6726455688 -15.5171766281
      vertex -13.7796430588 11.7005558014 -8.00640106201
      vertex -12.1885089874 19.2073402405 -5.5613822937
    endloop
  endfacet
  facet normal -0.710729420185 0.653293907642 0.26090374589
    outer loop
      vertex -7.76205873489 23.4308681488 -4.07882976532
      vertex -12.1885089874 19.2073402405 -5.5613822937
      vertex -5.77787971497 20.1651935577 9.5034198761
    endloop
  endfacet
  facet normal -0.590819895267 -0.709039151669 -0.384961426258
    outer loop
      vertex -9.52702522278 -20.3684959412 -10.6027450562
      vertex -6.72121477127 -25.0931015015 -6.20697593689
      vertex -5.41634607315 -30.8028430939 2.30683541298
    endloop
  endfacet
  facet normal -0.835612356663 -0.525826215744 -0.158929988742
    outer loop
      vertex -9.52702522278 -20.3684959412 -10.6027450562
      vertex -5.41634607315 -30.8028430939 2.30683541298
      vertex -8.91834068298 -26.5571498871 6.6723613739
    endloop
  endfacet
  facet normal -0.999081015587 0.0144121507183 0.0403654277325
    outer loop
      vertex -8.91834068298 -26.5571498871 6.6723613739
      vertex -8.72091674805 -17.7064743042 8.39871692657
      vertex -9.52702522278 -20.3684959412 -10.6027450562
    endloop
  endfacet
  facet normal 0.368890166283 -0.660443067551 0.654014527798
    outer loop
      vertex -10.3189659119 14.356423378 -29.7930774689
      vertex -12.7574491501 10.1917066574 -32.6233291626
      vertex -9.23363208771 11.6820068359 -33.1059532166
    endloop
  endfacet
  facet normal -0.184919282794 -0.476013541222 0.859776675701
    outer loop
      vertex -10.1022090912 18.46692276 -27.4706897736
      vertex -12.7574491501 10.1917066574 -32.6233291626
      vertex -10.3189659119 14.356423378 -29.7930774689
    endloop
  endfacet
  facet normal -0.97405475378 -0.0772443786263 0.21272200346
    outer loop
      vertex -10.8849821091 -6.62769460678 -1.40715956688
      vertex -10.1429405212 5.98933172226 6.57219457626
      vertex -13.7796430588 11.7005558014 -8.00640106201
    endloop
  endfacet
  facet normal -0.953296363354 0.110505267978 0.281095415354
    outer loop
      vertex -13.7796430588 11.7005558014 -8.00640106201
      vertex -10.1429405212 5.98933172226 6.57219457626
      vertex -12.1885089874 19.2073402405 -5.5613822937
    endloop
  endfacet
  facet normal -0.39185526967 -0.36583596468 -0.84416437149
    outer loop
      vertex -9.94434165955 4.96551847458 -6.86795520782
      vertex -10.8849821091 -6.62769460678 -1.40715956688
      vertex -13.7796430588 11.7005558014 -8.00640106201
    endloop
  endfacet
  facet normal 0.0986983701587 -0.510079145432 -0.8544459939
    outer loop
      vertex -12.9937829971 12.9672517776 -34.3075485229
      vertex -9.23363208771 11.6820068359 -33.1059532166
      vertex -12.7574491501 10.1917066574 -32.6233291626
    endloop
  endfacet
  facet normal -0.722197771072 0.655220210552 -0.221623256803
    outer loop
      vertex -10.1022090912 18.46692276 -27.4706897736
      vertex -9.08127593994 17.6670284271 -33.1624298096
      vertex -12.9937829971 12.9672517776 -34.3075485229
    endloop
  endfacet
  facet normal -0.943926870823 0.108779527247 0.311719566584
    outer loop
      vertex -12.9937829971 12.9672517776 -34.3075485229
      vertex -12.7574491501 10.1917066574 -32.6233291626
      vertex -10.1022090912 18.46692276 -27.4706897736
    endloop
  endfacet
  facet normal -0.380973428488 -0.133121952415 0.914952337742
    outer loop
      vertex 0.133656442165 3.96635317802 13.0927457809
      vertex -7.24661016464 -2.70223474503 9.049451828
      vertex -0.202965512872 -10.5443572998 10.8413295746
    endloop
  endfacet
  facet normal -0.377441972494 -0.13752284646 0.915764689445
    outer loop
      vertex 0.133656442165 3.96635317802 13.0927457809
      vertex -4.65254354477 11.338889122 12.2272167206
      vertex -7.24661016464 -2.70223474503 9.049451828
    endloop
  endfacet
  facet normal -0.216862216592 -0.954653799534 -0.203977659345
    outer loop
      vertex -5.41634607315 -30.8028430939 2.30683541298
      vertex 0.150739237666 -31.3900623322 -0.863608896732
      vertex -0.896171450615 -32.8144493103 6.91583633423
    endloop
  endfacet
  facet normal -0.358536273241 -0.799798309803 -0.481429517269
    outer loop
      vertex 0.150739237666 -31.3900623322 -0.863608896732
      vertex -5.41634607315 -30.8028430939 2.30683541298
      vertex -6.72121477127 -25.0931015015 -6.20697593689
    endloop
  endfacet
  facet normal 0.00629632826895 -0.937558829784 0.347769737244
    outer loop
      vertex -9.15335083008 -27.6708583832 32.4860801697
      vertex 0.191483080387 -25.6536540985 37.7551116943
      vertex -7.75858736038 -24.4352359772 41.1838035583
    endloop
  endfacet
  facet normal -0.463282227516 -0.139696776867 0.875131070614
    outer loop
      vertex -4.51537752151 -34.0823326111 33.9179000854
      vertex 0.191483080387 -25.6536540985 37.7551116943
      vertex -9.15335083008 -27.6708583832 32.4860801697
    endloop
  endfacet
  facet normal -0.887230455875 -0.416747123003 0.197848215699
    outer loop
      vertex -2.77702045441 -41.7293205261 25.6057891846
      vertex -4.51537752151 -34.0823326111 33.9179000854
      vertex -6.90700626373 -34.1988945007 22.9473552704
    endloop
  endfacet
  facet normal -0.815473854542 -0.548898994923 0.183609053493
    outer loop
      vertex -4.51537752151 -34.0823326111 33.9179000854
      vertex -9.15335083008 -27.6708583832 32.4860801697
      vertex -6.90700626373 -34.1988945007 22.9473552704
    endloop
  endfacet
  facet normal -0.179781019688 -0.245109692216 0.952680468559
    outer loop
      vertex -3.1758184433 12.4057559967 51.8995056152
      vertex 0.353228390217 12.1667118073 52.5039749146
      vertex -1.97807919979 19.0432758331 53.8332633972
    endloop
  endfacet
  facet normal -0.266072928905 0.901953458786 0.34012517333
    outer loop
      vertex 3.28806352615 -18.5349273682 31.0375843048
      vertex -1.30728304386 -15.4446029663 19.2477302551
      vertex -8.33396911621 -21.9179611206 30.917131424
    endloop
  endfacet
  facet normal -0.279599368572 0.958631515503 0.0533837303519
    outer loop
      vertex -8.33396911621 -21.9179611206 30.917131424
      vertex -3.97564506531 -20.9320602417 36.0398368835
      vertex 3.28806352615 -18.5349273682 31.0375843048
    endloop
  endfacet
  facet normal -0.672403752804 0.0678844824433 -0.737065076828
    outer loop
      vertex -3.80728197098 5.42254161835 -12.4245300293
      vertex -7.62346792221 -10.8321580887 -10.4402065277
      vertex -9.94434165955 4.96551847458 -6.86795520782
    endloop
  endfacet
  facet normal -0.0608185194433 -0.987061917782 -0.148357078433
    outer loop
      vertex -9.94434165955 4.96551847458 -6.86795520782
      vertex -10.6296234131 6.12143373489 -14.2776603699
      vertex -3.80728197098 5.42254161835 -12.4245300293
    endloop
  endfacet
  facet normal -0.869212985039 -0.494427114725 0.00325791211799
    outer loop
      vertex -10.6296234131 6.12143373489 -14.2776603699
      vertex -9.94434165955 4.96551847458 -6.86795520782
      vertex -13.7796430588 11.7005558014 -8.00640106201
    endloop
  endfacet
  facet normal -0.948166131973 -0.0691629946232 -0.310157179832
    outer loop
      vertex -7.62346792221 -10.8321580887 -10.4402065277
      vertex -10.8849821091 -6.62769460678 -1.40715956688
      vertex -9.94434165955 4.96551847458 -6.86795520782
    endloop
  endfacet
  facet normal -0.702183783054 -0.0312555246055 0.711309373379
    outer loop
      vertex -10.1429405212 5.98933172226 6.57219457626
      vertex -7.24661016464 -2.70223474503 9.049451828
      vertex -4.65254354477 11.338889122 12.2272167206
    endloop
  endfacet
  facet normal -0.376107603312 0.222426638007 -0.899482905865
    outer loop
      vertex -7.62346792221 -10.8321580887 -10.4402065277
      vertex -0.454480111599 -1.12474894524 -11.0373544693
      vertex -3.55835127831 -17.4497299194 -13.7763957977
    endloop
  endfacet
endsolid "Low Poly Cat"
