solid cookiecutter2
facet normal 0.0 0.0 -1.0
  outer loop
    vertex 138.57686817175497 98.26204300839034 0.0
    vertex 157.8681517089067 71.34784989868594 0.0
    vertex 137.49787795942294 98.02738365502836 0.0
  endloop
endfacet
facet normal 0.0 0.0 -1.0
  outer loop
    vertex 157.8681517089067 71.34784989868594 0.0
    vertex 138.57686817175497 98.26204300839034 0.0
    vertex 159.79675472621022 70.46974691076461 0.0
  endloop
endfacet
facet normal 0.0 0.0 -1.0
  outer loop
    vertex 54.99423283535029 84.01573287583605 0.0
    vertex 87.9778961330607 72.41377533463479 0.0
    vertex 52.932075926190784 83.62552462184016 0.0
  endloop
endfacet
facet normal 0.0 0.0 -1.0
  outer loop
    vertex 87.9778961330607 72.41377533463479 0.0
    vertex 54.99423283535029 84.01573287583605 0.0
    vertex 88.73236916643474 73.2223337278394 0.0
  endloop
endfacet
facet normal 0.0 0.0 -1.0
  outer loop
    vertex 87.9778961330607 72.41377533463479 0.0
    vertex 88.73236916643474 73.2223337278394 0.0
    vertex 101.58529932815976 38.226768821378904 0.0
  endloop
endfacet
facet normal 0.0 0.0 -1.0
  outer loop
    vertex 101.58529932815976 38.226768821378904 0.0
    vertex 88.73236916643474 73.2223337278394 0.0
    vertex 101.83918390966772 40.292997059375885 0.0
  endloop
endfacet
facet normal 0.0 0.0 -1.0
  outer loop
    vertex 101.58529932815976 38.226768821378904 0.0
    vertex 101.83918390966772 40.292997059375885 0.0
    vertex 123.06899052189881 68.10907849621825 0.0
  endloop
endfacet
facet normal 0.0 0.0 -1.0
  outer loop
    vertex 123.06899052189881 68.10907849621825 0.0
    vertex 101.83918390966772 40.292997059375885 0.0
    vertex 122.53303432294287 69.07669353116763 0.0
  endloop
endfacet
facet normal 0.0 0.0 -1.0
  outer loop
    vertex 123.06899052189881 68.10907849621825 0.0
    vertex 122.53303432294287 69.07669353116763 0.0
    vertex 157.8681517089067 71.34784989868594 0.0
  endloop
endfacet
facet normal 0.0 0.0 -1.0
  outer loop
    vertex 123.06899052189881 68.10907849621825 0.0
    vertex 157.8681517089067 71.34784989868594 0.0
    vertex 159.79675472621022 70.46974691076461 0.0
  endloop
endfacet
facet normal 0.0 0.0 -1.0
  outer loop
    vertex 80.52924828192613 106.10948036997218 0.0
    vertex 54.99423283535029 84.01573287583605 0.0
    vertex 52.932075926190784 83.62552462184016 0.0
  endloop
endfacet
facet normal 0.0 0.0 -1.0
  outer loop
    vertex 54.99423283535029 84.01573287583605 0.0
    vertex 80.52924828192613 106.10948036997218 0.0
    vertex 81.52242512849999 105.62876967209162 0.0
  endloop
endfacet
facet normal 0.0 0.0 -1.0
  outer loop
    vertex 81.52242512849999 105.62876967209162 0.0
    vertex 80.52924828192613 106.10948036997218 0.0
    vertex 81.07418559958258 143.92647684286743 0.0
  endloop
endfacet
facet normal 0.0 0.0 -1.0
  outer loop
    vertex 81.52242512849999 105.62876967209162 0.0
    vertex 81.07418559958258 143.92647684286743 0.0
    vertex 82.04851160958326 142.13757528137407 0.0
  endloop
endfacet
facet normal 0.0 0.0 -1.0
  outer loop
    vertex 82.04851160958326 142.13757528137407 0.0
    vertex 81.07418559958258 143.92647684286743 0.0
    vertex 112.20092994704387 124.45777555172603 0.0
  endloop
endfacet
facet normal 0.0 0.0 -1.0
  outer loop
    vertex 82.04851160958326 142.13757528137407 0.0
    vertex 112.20092994704387 124.45777555172603 0.0
    vertex 112.06610729266554 123.36260809211039 0.0
  endloop
endfacet
facet normal 0.0 0.0 -1.0
  outer loop
    vertex 112.06610729266554 123.36260809211039 0.0
    vertex 112.20092994704387 124.45777555172603 0.0
    vertex 145.75435417077583 134.30089243614842 0.0
  endloop
endfacet
facet normal 0.0 0.0 -1.0
  outer loop
    vertex 145.75435417077583 134.30089243614842 0.0
    vertex 112.20092994704387 124.45777555172603 0.0
    vertex 147.12018929483492 135.79575906898444 0.0
  endloop
endfacet
facet normal 0.0 0.0 -1.0
  outer loop
    vertex 145.75435417077583 134.30089243614842 0.0
    vertex 138.57686817175497 98.26204300839034 0.0
    vertex 137.49787795942294 98.02738365502836 0.0
  endloop
endfacet
facet normal 0.0 0.0 -1.0
  outer loop
    vertex 138.57686817175497 98.26204300839034 0.0
    vertex 145.75435417077583 134.30089243614842 0.0
    vertex 147.12018929483492 135.79575906898444 0.0
  endloop
endfacet
facet normal -0.0 -0.0 1.0
  outer loop
    vertex 87.9778961330607 72.41377533463479 25.0
    vertex 54.99423283535029 84.01573287583605 25.0
    vertex 52.932075926190784 83.62552462184016 25.0
  endloop
endfacet
facet normal -0.0 -0.0 1.0
  outer loop
    vertex 54.99423283535029 84.01573287583605 25.0
    vertex 87.9778961330607 72.41377533463479 25.0
    vertex 88.73236916643474 73.2223337278394 25.0
  endloop
endfacet
facet normal -0.0 -0.0 1.0
  outer loop
    vertex 88.73236916643474 73.2223337278394 25.0
    vertex 87.9778961330607 72.41377533463479 25.0
    vertex 101.58529932815976 38.226768821378904 25.0
  endloop
endfacet
facet normal -0.0 -0.0 1.0
  outer loop
    vertex 88.73236916643474 73.2223337278394 25.0
    vertex 101.58529932815976 38.226768821378904 25.0
    vertex 101.83918390966772 40.292997059375885 25.0
  endloop
endfacet
facet normal -0.0 -0.0 1.0
  outer loop
    vertex 101.83918390966772 40.292997059375885 25.0
    vertex 101.58529932815976 38.226768821378904 25.0
    vertex 123.06899052189881 68.10907849621825 25.0
  endloop
endfacet
facet normal -0.0 -0.0 1.0
  outer loop
    vertex 101.83918390966772 40.292997059375885 25.0
    vertex 123.06899052189881 68.10907849621825 25.0
    vertex 122.53303432294287 69.07669353116763 25.0
  endloop
endfacet
facet normal -0.0 -0.0 1.0
  outer loop
    vertex 122.53303432294287 69.07669353116763 25.0
    vertex 123.06899052189881 68.10907849621825 25.0
    vertex 157.8681517089067 71.34784989868594 25.0
  endloop
endfacet
facet normal -0.0 -0.0 1.0
  outer loop
    vertex 157.8681517089067 71.34784989868594 25.0
    vertex 123.06899052189881 68.10907849621825 25.0
    vertex 159.79675472621022 70.46974691076461 25.0
  endloop
endfacet
facet normal -0.0 -0.0 1.0
  outer loop
    vertex 157.8681517089067 71.34784989868594 25.0
    vertex 138.57686817175497 98.26204300839034 25.0
    vertex 137.49787795942294 98.02738365502836 25.0
  endloop
endfacet
facet normal -0.0 -0.0 1.0
  outer loop
    vertex 138.57686817175497 98.26204300839034 25.0
    vertex 157.8681517089067 71.34784989868594 25.0
    vertex 159.79675472621022 70.46974691076461 25.0
  endloop
endfacet
facet normal -0.0 -0.0 1.0
  outer loop
    vertex 138.57686817175497 98.26204300839034 25.0
    vertex 145.75435417077583 134.30089243614842 25.0
    vertex 137.49787795942294 98.02738365502836 25.0
  endloop
endfacet
facet normal -0.0 -0.0 1.0
  outer loop
    vertex 145.75435417077583 134.30089243614842 25.0
    vertex 138.57686817175497 98.26204300839034 25.0
    vertex 147.12018929483492 135.79575906898444 25.0
  endloop
endfacet
facet normal -0.0 -0.0 1.0
  outer loop
    vertex 54.99423283535029 84.01573287583605 25.0
    vertex 80.52924828192613 106.10948036997218 25.0
    vertex 52.932075926190784 83.62552462184016 25.0
  endloop
endfacet
facet normal -0.0 -0.0 1.0
  outer loop
    vertex 80.52924828192613 106.10948036997218 25.0
    vertex 54.99423283535029 84.01573287583605 25.0
    vertex 81.52242512849999 105.62876967209162 25.0
  endloop
endfacet
facet normal -0.0 -0.0 1.0
  outer loop
    vertex 80.52924828192613 106.10948036997218 25.0
    vertex 81.52242512849999 105.62876967209162 25.0
    vertex 81.07418559958258 143.92647684286743 25.0
  endloop
endfacet
facet normal -0.0 -0.0 1.0
  outer loop
    vertex 81.07418559958258 143.92647684286743 25.0
    vertex 81.52242512849999 105.62876967209162 25.0
    vertex 82.04851160958326 142.13757528137407 25.0
  endloop
endfacet
facet normal -0.0 -0.0 1.0
  outer loop
    vertex 81.07418559958258 143.92647684286743 25.0
    vertex 82.04851160958326 142.13757528137407 25.0
    vertex 112.20092994704387 124.45777555172603 25.0
  endloop
endfacet
facet normal -0.0 -0.0 1.0
  outer loop
    vertex 112.20092994704387 124.45777555172603 25.0
    vertex 82.04851160958326 142.13757528137407 25.0
    vertex 112.06610729266554 123.36260809211039 25.0
  endloop
endfacet
facet normal -0.0 -0.0 1.0
  outer loop
    vertex 112.20092994704387 124.45777555172603 25.0
    vertex 112.06610729266554 123.36260809211039 25.0
    vertex 145.75435417077583 134.30089243614842 25.0
  endloop
endfacet
facet normal -0.0 -0.0 1.0
  outer loop
    vertex 112.20092994704387 124.45777555172603 25.0
    vertex 145.75435417077583 134.30089243614842 25.0
    vertex 147.12018929483492 135.79575906898444 25.0
  endloop
endfacet
facet normal 0.7948136285814846 0.606853603285944 0.0
  outer loop
    vertex 138.57686817175497 98.26204300839034 0.0
    vertex 159.79675472621022 70.46974691076461 25.0
    vertex 159.79675472621022 70.46974691076461 0.0
  endloop
endfacet
facet normal 0.7948136285814846 0.606853603285944 0.0
  outer loop
    vertex 159.79675472621022 70.46974691076461 25.0
    vertex 138.57686817175497 98.26204300839034 0.0
    vertex 138.57686817175497 98.26204300839034 25.0
  endloop
endfacet
facet normal 0.06414240758204873 -0.9979407555308974 0.0
  outer loop
    vertex 159.79675472621022 70.46974691076461 25.0
    vertex 123.06899052189881 68.10907849621825 0.0
    vertex 159.79675472621022 70.46974691076461 0.0
  endloop
endfacet
facet normal 0.06414240758204873 -0.9979407555308974 0.0
  outer loop
    vertex 123.06899052189881 68.10907849621825 0.0
    vertex 159.79675472621022 70.46974691076461 25.0
    vertex 123.06899052189881 68.10907849621825 25.0
  endloop
endfacet
facet normal 0.8119409209890535 -0.58373961731533 0.0
  outer loop
    vertex 123.06899052189881 68.10907849621825 0.0
    vertex 101.58529932815976 38.226768821378904 25.0
    vertex 101.58529932815976 38.226768821378904 0.0
  endloop
endfacet
facet normal 0.8119409209890535 -0.58373961731533 0.0
  outer loop
    vertex 101.58529932815976 38.226768821378904 25.0
    vertex 123.06899052189881 68.10907849621825 0.0
    vertex 123.06899052189881 68.10907849621825 25.0
  endloop
endfacet
facet normal -0.929106978099947 -0.36981106425576904 -0.0
  outer loop
    vertex 87.9778961330607 72.41377533463479 25.0
    vertex 101.58529932815976 38.226768821378904 0.0
    vertex 101.58529932815976 38.226768821378904 25.0
  endloop
endfacet
facet normal -0.929106978099947 -0.36981106425576904 -0.0
  outer loop
    vertex 101.58529932815976 38.226768821378904 0.0
    vertex 87.9778961330607 72.41377533463479 25.0
    vertex 87.9778961330607 72.41377533463479 0.0
  endloop
endfacet
facet normal -0.30470390835215294 -0.9524471262148481 -0.0
  outer loop
    vertex 87.9778961330607 72.41377533463479 25.0
    vertex 52.932075926190784 83.62552462184016 0.0
    vertex 87.9778961330607 72.41377533463479 0.0
  endloop
endfacet
facet normal -0.30470390835215294 -0.9524471262148481 -0.0
  outer loop
    vertex 52.932075926190784 83.62552462184016 0.0
    vertex 87.9778961330607 72.41377533463479 25.0
    vertex 52.932075926190784 83.62552462184016 25.0
  endloop
endfacet
facet normal -0.6316285618239654 0.7752711524932351 0.0
  outer loop
    vertex 52.932075926190784 83.62552462184016 25.0
    vertex 80.52924828192613 106.10948036997218 0.0
    vertex 52.932075926190784 83.62552462184016 0.0
  endloop
endfacet
facet normal -0.6316285618239654 0.7752711524932351 0.0
  outer loop
    vertex 80.52924828192613 106.10948036997218 0.0
    vertex 52.932075926190784 83.62552462184016 25.0
    vertex 80.52924828192613 106.10948036997218 25.0
  endloop
endfacet
facet normal -0.9998961942501108 0.014408356052815617 0.0
  outer loop
    vertex 81.07418559958258 143.92647684286743 25.0
    vertex 80.52924828192613 106.10948036997218 0.0
    vertex 80.52924828192613 106.10948036997218 25.0
  endloop
endfacet
facet normal -0.9998961942501108 0.014408356052815617 0.0
  outer loop
    vertex 80.52924828192613 106.10948036997218 0.0
    vertex 81.07418559958258 143.92647684286743 25.0
    vertex 81.07418559958258 143.92647684286743 0.0
  endloop
endfacet
facet normal 0.5302826441509039 0.8478209229031363 0.0
  outer loop
    vertex 81.07418559958258 143.92647684286743 25.0
    vertex 112.20092994704387 124.45777555172603 0.0
    vertex 81.07418559958258 143.92647684286743 0.0
  endloop
endfacet
facet normal 0.5302826441509039 0.8478209229031363 0.0
  outer loop
    vertex 112.20092994704387 124.45777555172603 0.0
    vertex 81.07418559958258 143.92647684286743 25.0
    vertex 112.20092994704387 124.45777555172603 25.0
  endloop
endfacet
facet normal -0.3088205930616877 0.9511203085314852 0.0
  outer loop
    vertex 112.20092994704387 124.45777555172603 25.0
    vertex 147.12018929483492 135.79575906898444 0.0
    vertex 112.20092994704387 124.45777555172603 0.0
  endloop
endfacet
facet normal -0.3088205930616877 0.9511203085314852 0.0
  outer loop
    vertex 147.12018929483492 135.79575906898444 0.0
    vertex 112.20092994704387 124.45777555172603 25.0
    vertex 147.12018929483492 135.79575906898444 25.0
  endloop
endfacet
facet normal 0.9750602061590655 -0.22194051988098268 0.0
  outer loop
    vertex 147.12018929483492 135.79575906898444 0.0
    vertex 138.57686817175497 98.26204300839034 25.0
    vertex 138.57686817175497 98.26204300839034 0.0
  endloop
endfacet
facet normal 0.9750602061590655 -0.22194051988098268 0.0
  outer loop
    vertex 138.57686817175497 98.26204300839034 25.0
    vertex 147.12018929483492 135.79575906898444 0.0
    vertex 147.12018929483492 135.79575906898444 25.0
  endloop
endfacet
facet normal -0.06414240758204856 0.9979407555308973 0.0
  outer loop
    vertex 122.53303432294287 69.07669353116763 25.0
    vertex 157.8681517089067 71.34784989868594 0.0
    vertex 122.53303432294287 69.07669353116763 0.0
  endloop
endfacet
facet normal -0.06414240758204856 0.9979407555308973 0.0
  outer loop
    vertex 157.8681517089067 71.34784989868594 0.0
    vertex 122.53303432294287 69.07669353116763 25.0
    vertex 157.8681517089067 71.34784989868594 25.0
  endloop
endfacet
facet normal -0.7948136285814849 -0.6068536032859436 -0.0
  outer loop
    vertex 137.49787795942294 98.02738365502836 25.0
    vertex 157.8681517089067 71.34784989868594 0.0
    vertex 157.8681517089067 71.34784989868594 25.0
  endloop
endfacet
facet normal -0.7948136285814849 -0.6068536032859436 -0.0
  outer loop
    vertex 157.8681517089067 71.34784989868594 0.0
    vertex 137.49787795942294 98.02738365502836 25.0
    vertex 137.49787795942294 98.02738365502836 0.0
  endloop
endfacet
facet normal -0.9750602061590655 0.2219405198809821 0.0
  outer loop
    vertex 145.75435417077583 134.30089243614842 25.0
    vertex 137.49787795942294 98.02738365502836 0.0
    vertex 137.49787795942294 98.02738365502836 25.0
  endloop
endfacet
facet normal -0.9750602061590655 0.2219405198809821 0.0
  outer loop
    vertex 137.49787795942294 98.02738365502836 0.0
    vertex 145.75435417077583 134.30089243614842 25.0
    vertex 145.75435417077583 134.30089243614842 0.0
  endloop
endfacet
facet normal 0.3088205930616875 -0.9511203085314852 0.0
  outer loop
    vertex 145.75435417077583 134.30089243614842 25.0
    vertex 112.06610729266554 123.36260809211039 0.0
    vertex 145.75435417077583 134.30089243614842 0.0
  endloop
endfacet
facet normal 0.3088205930616875 -0.9511203085314852 0.0
  outer loop
    vertex 112.06610729266554 123.36260809211039 0.0
    vertex 145.75435417077583 134.30089243614842 25.0
    vertex 112.06610729266554 123.36260809211039 25.0
  endloop
endfacet
facet normal -0.5302826441509041 -0.8478209229031362 -0.0
  outer loop
    vertex 112.06610729266554 123.36260809211039 25.0
    vertex 82.04851160958326 142.13757528137407 0.0
    vertex 112.06610729266554 123.36260809211039 0.0
  endloop
endfacet
facet normal -0.5302826441509041 -0.8478209229031362 -0.0
  outer loop
    vertex 82.04851160958326 142.13757528137407 0.0
    vertex 112.06610729266554 123.36260809211039 25.0
    vertex 82.04851160958326 142.13757528137407 25.0
  endloop
endfacet
facet normal 0.9998961942501108 -0.01440835605281588 0.0
  outer loop
    vertex 82.04851160958326 142.13757528137407 0.0
    vertex 81.52242512849999 105.62876967209162 25.0
    vertex 81.52242512849999 105.62876967209162 0.0
  endloop
endfacet
facet normal 0.9998961942501108 -0.01440835605281588 0.0
  outer loop
    vertex 81.52242512849999 105.62876967209162 25.0
    vertex 82.04851160958326 142.13757528137407 0.0
    vertex 82.04851160958326 142.13757528137407 25.0
  endloop
endfacet
facet normal 0.6316285618239653 -0.7752711524932352 0.0
  outer loop
    vertex 81.52242512849999 105.62876967209162 25.0
    vertex 54.99423283535029 84.01573287583605 0.0
    vertex 81.52242512849999 105.62876967209162 0.0
  endloop
endfacet
facet normal 0.6316285618239653 -0.7752711524932352 0.0
  outer loop
    vertex 54.99423283535029 84.01573287583605 0.0
    vertex 81.52242512849999 105.62876967209162 25.0
    vertex 54.99423283535029 84.01573287583605 25.0
  endloop
endfacet
facet normal 0.304703908352153 0.9524471262148482 0.0
  outer loop
    vertex 54.99423283535029 84.01573287583605 25.0
    vertex 88.73236916643474 73.2223337278394 0.0
    vertex 54.99423283535029 84.01573287583605 0.0
  endloop
endfacet
facet normal 0.304703908352153 0.9524471262148482 0.0
  outer loop
    vertex 88.73236916643474 73.2223337278394 0.0
    vertex 54.99423283535029 84.01573287583605 25.0
    vertex 88.73236916643474 73.2223337278394 25.0
  endloop
endfacet
facet normal 0.9291069780999469 0.3698110642557693 0.0
  outer loop
    vertex 88.73236916643474 73.2223337278394 0.0
    vertex 101.83918390966772 40.292997059375885 25.0
    vertex 101.83918390966772 40.292997059375885 0.0
  endloop
endfacet
facet normal 0.9291069780999469 0.3698110642557693 0.0
  outer loop
    vertex 101.83918390966772 40.292997059375885 25.0
    vertex 88.73236916643474 73.2223337278394 0.0
    vertex 88.73236916643474 73.2223337278394 25.0
  endloop
endfacet
facet normal -0.8119409209890533 0.5837396173153299 0.0
  outer loop
    vertex 122.53303432294287 69.07669353116763 25.0
    vertex 101.83918390966772 40.292997059375885 0.0
    vertex 101.83918390966772 40.292997059375885 25.0
  endloop
endfacet
facet normal -0.8119409209890533 0.5837396173153299 0.0
  outer loop
    vertex 101.83918390966772 40.292997059375885 0.0
    vertex 122.53303432294287 69.07669353116763 25.0
    vertex 122.53303432294287 69.07669353116763 0.0
  endloop
endfacet
endsolid cookiecutter2
