solid top_skal_ikke_done
facet normal -0.6328961908092082 -0.759276943308036 -0.15146265222819805
  outer loop
    vertex -37.108001708984375 -56.9119987487793 15.97200012207031
    vertex -40.41868216032298 -51.00174054897017 0.1779697239398985
    vertex -40.317554109426304 -51.08603595496211 0.1779697239398985
  endloop
endfacet
facet normal -0.6328961908092082 -0.759276943308036 -0.15146265222819805
  outer loop
    vertex -40.41868216032298 -51.00174054897017 0.1779697239398985
    vertex -37.108001708984375 -56.9119987487793 15.97200012207031
    vertex -46.26499938964844 -49.268001556396484 15.916000366210936
  endloop
endfacet
facet normal -0.6328965475114772 -0.7592766798260184 -0.1514624825507318
  outer loop
    vertex -37.108001708984375 -56.9119987487793 15.97200012207031
    vertex -40.317554109426304 -51.08603595496211 0.1779697239398985
    vertex -34.34629470689807 -56.06339079881367 0.1779697239398985
  endloop
endfacet
facet normal -0.34787583934898814 -0.9011831749210094 -0.2585561556732434
  outer loop
    vertex -37.108001708984375 -56.9119987487793 15.97200012207031
    vertex -20.07200050354004 -62.051998138427734 10.965999603271484
    vertex -20.368999481201172 -62.16199874877929 11.74899959564209
  endloop
endfacet
facet normal 0.968533293634866 0.14982739325131406 0.19873351844194498
  outer loop
    vertex -18.634623559852596 -57.03425276358214 0.1779697239398985
    vertex -20.224000930786133 -62.10800170898437 11.74899959564209
    vertex -20.07200050354004 -62.051998138427734 10.965999603271484
  endloop
endfacet
facet normal 0.968533667055712 0.14982585925989356 0.19873285505081892
  outer loop
    vertex -18.634623559852596 -57.03425276358214 0.1779697239398985
    vertex -20.07200050354004 -62.051998138427734 10.965999603271484
    vertex -18.60188741739925 -57.245872123573825 0.1779697239398985
  endloop
endfacet
facet normal 0.9688276036196275 0.1485942103172774 0.19822420418514666
  outer loop
    vertex -18.60188741739925 -57.245872123573825 0.1779697239398985
    vertex -20.07200050354004 -62.051998138427734 10.965999603271484
    vertex -18.232247292643592 -59.6559089458158 0.1779697239398985
  endloop
endfacet
facet normal 0.9688937278305793 0.14830676227386075 0.1981162497989707
  outer loop
    vertex -18.752420330420986 -56.26468196262536 0.1779697239398985
    vertex -20.224000930786133 -62.10800170898437 11.74899959564209
    vertex -18.634623559852596 -57.03425276358214 0.1779697239398985
  endloop
endfacet
facet normal 0.07595848555679736 -0.9962984264024052 -0.04024616776798906
  outer loop
    vertex -37.108001708984375 -56.9119987487793 15.97200012207031
    vertex -31.505084991455078 -56.04160690307617 4.999999999999999
    vertex -31.235246658325195 -56.021034240722656 4.999999999999999
  endloop
endfacet
facet normal 0.07595050837528514 -0.9962988685751176 -0.04025027643975002
  outer loop
    vertex -31.505084991455078 -56.04160690307617 4.999999999999999
    vertex -34.34629470689807 -56.06339079881367 0.1779697239398985
    vertex -34.216575002538285 -56.05350192128587 0.1779697239398985
  endloop
endfacet
facet normal 0.07595050837528514 -0.9962988685751176 -0.04025027643975002
  outer loop
    vertex -34.34629470689807 -56.06339079881367 0.1779697239398985
    vertex -31.505084991455078 -56.04160690307617 4.999999999999999
    vertex -37.108001708984375 -56.9119987487793 15.97200012207031
  endloop
endfacet
facet normal 0.07595058361049153 -0.9962988611298493 -0.04025031876384621
  outer loop
    vertex -31.505084991455078 -56.04160690307617 4.999999999999999
    vertex -34.216575002538285 -56.05350192128587 0.1779697239398985
    vertex -31.498263389892053 -55.846277601886854 0.1779697239398985
  endloop
endfacet
facet normal 0.002003662581468641 0.9144415588660586 -0.4047130103602705
  outer loop
    vertex -29.38840103149414 -24.06149101257324 4.999999999999999
    vertex -24.636017382457265 -26.20603545431405 0.1779697239398985
    vertex -30.427535027129327 -26.193345472016073 0.1779697239398985
  endloop
endfacet
facet normal 0.13402818898012595 0.9477912251339271 -0.2893583213212248
  outer loop
    vertex -28.740419387817383 -24.15348243713379 4.999999999999999
    vertex -24.460722316005906 -26.23083676369723 0.1779697239398985
    vertex -24.636017382457265 -26.20603545431405 0.1779697239398985
  endloop
endfacet
facet normal 0.13402818898012595 0.9477912251339271 -0.2893583213212248
  outer loop
    vertex -24.460722316005906 -26.23083676369723 0.1779697239398985
    vertex -28.740419387817383 -24.15348243713379 4.999999999999999
    vertex -24.40956306457519 -24.76591300964355 4.999999999999999
  endloop
endfacet
facet normal 0.13456220321261242 0.94784745459706 -0.28892597024227895
  outer loop
    vertex -28.740419387817383 -24.15348243713379 4.999999999999999
    vertex -24.636017382457265 -26.20603545431405 0.1779697239398985
    vertex -29.38840103149414 -24.06149101257324 4.999999999999999
  endloop
endfacet
facet normal -0.3480400612106864 -0.9008652971260784 -0.2594413849531417
  outer loop
    vertex -20.07200050354004 -62.051998138427734 10.965999603271484
    vertex -18.46190272871716 -59.56718407291455 0.1779697239398985
    vertex -18.232247292643592 -59.6559089458158 0.1779697239398985
  endloop
endfacet
facet normal -0.3480400612106864 -0.9008652971260784 -0.2594413849531417
  outer loop
    vertex -18.46190272871716 -59.56718407291455 0.1779697239398985
    vertex -20.07200050354004 -62.051998138427734 10.965999603271484
    vertex -25.577392578124996 -58.20689010620117 4.999999999999999
  endloop
endfacet
facet normal -0.3480400612106864 -0.9008652971260784 -0.2594413849531417
  outer loop
    vertex -25.577392578124996 -58.20689010620117 4.999999999999999
    vertex -20.07200050354004 -62.051998138427734 10.965999603271484
    vertex -37.108001708984375 -56.9119987487793 15.97200012207031
  endloop
endfacet
facet normal -0.34804010262143825 -0.9008652812871464 -0.25944138439865244
  outer loop
    vertex -25.577392578124996 -58.20689010620117 4.999999999999999
    vertex -25.5295419966728 -56.83667380994158 0.1779697239398985
    vertex -18.46190272871716 -59.56718407291455 0.1779697239398985
  endloop
endfacet
facet normal -0.3480403098987213 -0.9008651112517637 -0.25944169675468376
  outer loop
    vertex -37.108001708984375 -56.9119987487793 15.97200012207031
    vertex -31.235246658325195 -56.021034240722656 4.999999999999999
    vertex -25.577392578124996 -58.20689010620117 4.999999999999999
  endloop
endfacet
facet normal -0.5379911122803953 0.812483995689716 0.22457809299968892
  outer loop
    vertex -28.29899978637695 -20.003000259399414 20.04000091552734
    vertex -28.736000061035156 -20.04000091552734 19.12700080871582
    vertex -45.290000915527344 -30.13699913024902 15.999999999999998
  endloop
endfacet
facet normal -0.46380942578231726 0.8439128248491727 -0.2696144666195912
  outer loop
    vertex -28.736000061035156 -20.04000091552734 19.12700080871582
    vertex -28.542999267578125 -20.062999725341797 18.722999572753906
    vertex -45.290000915527344 -30.13699913024902 15.999999999999998
  endloop
endfacet
facet normal 0.8911941778102724 -0.3156675447995603 0.3257712979949126
  outer loop
    vertex -16.44400024414062 -40.74700164794921 76.4729995727539
    vertex -21.958999633789062 -41.325000762939446 90.99999999999999
    vertex -19.152000427246094 -46.998001098632805 77.8239974975586
  endloop
endfacet
facet normal 0.3133236887839534 -0.8840633680490337 0.3467855638872748
  outer loop
    vertex -21.958999633789062 -41.325000762939446 90.99999999999999
    vertex -29.781999588012695 -49.78499984741211 76.5009994506836
    vertex -24.606000900268555 -48.790000915527344 74.36100006103514
  endloop
endfacet
facet normal 0.044435473344021675 -0.9141035148953593 0.4030387732770166
  outer loop
    vertex -21.958999633789062 -41.325000762939446 90.99999999999999
    vertex -24.606000900268555 -48.790000915527344 74.36100006103514
    vertex -19.152000427246094 -46.998001098632805 77.8239974975586
  endloop
endfacet
facet normal 0.9203453923668631 0.16227139540200627 0.3558543985724647
  outer loop
    vertex -18.29599952697754 -33.08300018310547 77.76799774169922
    vertex -21.958999633789062 -41.325000762939446 90.99999999999999
    vertex -16.44400024414062 -40.74700164794921 76.4729995727539
  endloop
endfacet
facet normal -0.6603290218520429 -0.43658919863319884 0.6110281945514016
  outer loop
    vertex -21.958999633789062 -41.325000762939446 90.99999999999999
    vertex -31.176000595092773 -43.972000122070305 79.14800262451172
    vertex -29.781999588012695 -49.78499984741211 76.5009994506836
  endloop
endfacet
facet normal -0.1999823472722914 0.8555455515389893 0.47754462620922816
  outer loop
    vertex -21.958999633789062 -41.325000762939446 90.99999999999999
    vertex -18.29599952697754 -33.08300018310547 77.76799774169922
    vertex -26.298000335693356 -35.47200012207031 78.6969985961914
  endloop
endfacet
facet normal -0.7157354513262202 0.4981802675241605 0.48942740499936027
  outer loop
    vertex -26.298000335693356 -35.47200012207031 78.6969985961914
    vertex -29.902000427246094 -38.797000885009766 76.81099700927734
    vertex -21.958999633789062 -41.325000762939446 90.99999999999999
  endloop
endfacet
facet normal -0.7612912548621394 0.4131127967179989 0.4997733911066717
  outer loop
    vertex -29.902000427246094 -38.797000885009766 76.81099700927734
    vertex -31.176000595092773 -43.972000122070305 79.14800262451172
    vertex -21.958999633789062 -41.325000762939446 90.99999999999999
  endloop
endfacet
facet normal -0.86847638529814 -0.3623285751612324 0.33832938359106185
  outer loop
    vertex -31.176000595092773 -43.972000122070305 79.14800262451172
    vertex -36.39099884033203 -55.000999450683594 53.95000076293945
    vertex -29.781999588012695 -49.78499984741211 76.5009994506836
  endloop
endfacet
facet normal -0.9101663053373065 -0.27579803206738057 0.3090837137999955
  outer loop
    vertex -31.176000595092773 -43.972000122070305 79.14800262451172
    vertex -41.029998779296875 -46.22200012207031 48.12300109863281
    vertex -36.39099884033203 -55.000999450683594 53.95000076293945
  endloop
endfacet
facet normal -0.9029279618421788 0.34063989083295243 0.2620793019237557
  outer loop
    vertex -29.902000427246094 -38.797000885009766 76.81099700927734
    vertex -41.029998779296875 -46.22200012207031 48.12300109863281
    vertex -31.176000595092773 -43.972000122070305 79.14800262451172
  endloop
endfacet
facet normal -0.9214270739996594 0.25782020004626893 0.2906903709250243
  outer loop
    vertex -36.4109992980957 -31.649999618530273 49.84000015258788
    vertex -41.029998779296875 -46.22200012207031 48.12300109863281
    vertex -29.902000427246094 -38.797000885009766 76.81099700927734
  endloop
endfacet
facet normal 0.2615545901115061 0.9529085266451965 0.1534748716842043
  outer loop
    vertex -11.607000350952148 -29.579999923706055 50.797000885009766
    vertex -17.299999237060547 -22.413000106811523 15.999999999999998
    vertex -27.54400062561035 -20.07200050354004 18.923000335693356
  endloop
endfacet
facet normal 0.13402806277743493 0.9477909882533214 -0.2893591556766793
  outer loop
    vertex -24.40956306457519 -24.76591300964355 4.999999999999999
    vertex -22.435728798752248 -26.517193421455683 0.1779697239398985
    vertex -22.56033121987582 -26.499573269621003 0.1779697239398985
  endloop
endfacet
facet normal 0.13402806277743493 0.9477909882533214 -0.2893591556766793
  outer loop
    vertex -22.435728798752248 -26.517193421455683 0.1779697239398985
    vertex -24.40956306457519 -24.76591300964355 4.999999999999999
    vertex -17.299999237060547 -22.413000106811523 15.999999999999998
  endloop
endfacet
facet normal -0.47162147535662424 0.8786206044109984 -0.07482658275568466
  outer loop
    vertex -17.299999237060547 -22.413000106811523 15.999999999999998
    vertex -20.556971512228642 -25.508723691905846 0.1779697239398985
    vertex -22.435728798752248 -26.517193421455683 0.1779697239398985
  endloop
endfacet
facet normal -0.6896445447984334 0.7054996701946129 -0.16328079245598395
  outer loop
    vertex -28.542999267578125 -20.062999725341797 18.722999572753906
    vertex -28.49600028991699 -20.076999664306637 18.464000701904297
    vertex -32.378496100459685 -28.104359455047366 0.17796972393989846
  endloop
endfacet
facet normal -0.6904401299180086 0.7048273387523319 -0.16282152666680455
  outer loop
    vertex -28.49600028991699 -20.076999664306637 18.464000701904297
    vertex -29.38840103149414 -24.06149101257324 4.999999999999999
    vertex -29.91363143920898 -24.576000213623047 4.999999999999999
  endloop
endfacet
facet normal -0.6904398810993889 0.7048275594071202 -0.16282162659691213
  outer loop
    vertex -28.49600028991699 -20.076999664306637 18.464000701904297
    vertex -29.91363143920898 -24.576000213623047 4.999999999999999
    vertex -30.42370796203613 -25.075664520263672 4.999999999999999
  endloop
endfacet
facet normal 0.13454291926445178 0.9477116197137067 -0.289380180274016
  outer loop
    vertex -28.49600028991699 -20.076999664306637 18.464000701904297
    vertex -28.740419387817383 -24.15348243713379 4.999999999999999
    vertex -29.38840103149414 -24.06149101257324 4.999999999999999
  endloop
endfacet
facet normal 0.13402788587612427 0.9477910445022943 -0.2893590533728409
  outer loop
    vertex -27.54400062561035 -20.07200050354004 18.923000335693356
    vertex -17.299999237060547 -22.413000106811523 15.999999999999998
    vertex -24.40956306457519 -24.76591300964355 4.999999999999999
  endloop
endfacet
facet normal 0.6457444016299659 0.7132779729448132 -0.2724861484099612
  outer loop
    vertex -17.299999237060547 -22.413000106811523 15.999999999999998
    vertex -12.065185559660357 -33.196503884379695 0.1779697239398985
    vertex -12.206139516911142 -33.06889552938381 0.1779697239398985
  endloop
endfacet
facet normal 0.6457444016299659 0.7132779729448132 -0.2724861484099612
  outer loop
    vertex -12.065185559660357 -33.196503884379695 0.1779697239398985
    vertex -17.299999237060547 -22.413000106811523 15.999999999999998
    vertex -4.998000144958496 -33.95899963378906 14.930000305175781
  endloop
endfacet
facet normal 0.13454585144944162 0.9477112237879012 -0.2893801136294327
  outer loop
    vertex -27.54400062561035 -20.07200050354004 18.923000335693356
    vertex -28.740419387817383 -24.15348243713379 4.999999999999999
    vertex -28.49600028991699 -20.076999664306637 18.464000701904297
  endloop
endfacet
facet normal 0.13402804486325579 0.9477910340254375 -0.28935901404850894
  outer loop
    vertex -27.54400062561035 -20.07200050354004 18.923000335693356
    vertex -24.40956306457519 -24.76591300964355 4.999999999999999
    vertex -28.740419387817383 -24.15348243713379 4.999999999999999
  endloop
endfacet
facet normal 0.0739283972739203 -0.9696710687498293 0.23296482675733082
  outer loop
    vertex -31.505084991455078 -56.04160690307617 4.999999999999999
    vertex -25.728743881440003 -56.75971413546773 0.1779697239398985
    vertex -31.235246658325195 -56.021034240722656 4.999999999999999
  endloop
endfacet
facet normal 0.13402822088379443 0.9477909847870376 -0.28935909379720975
  outer loop
    vertex -24.40956306457519 -24.76591300964355 4.999999999999999
    vertex -22.56033121987582 -26.499573269621003 0.1779697239398985
    vertex -24.460722316005906 -26.23083676369723 0.1779697239398985
  endloop
endfacet
facet normal -0.6904399003423101 0.704827579051041 -0.16282145996259093
  outer loop
    vertex -29.91363143920898 -24.576000213623047 4.999999999999999
    vertex -30.463986142508613 -26.229052521252267 0.1779697239398985
    vertex -30.42370796203613 -25.075664520263672 4.999999999999999
  endloop
endfacet
facet normal -0.34800727185812175 -0.9008711566167549 -0.2594650225172131
  outer loop
    vertex -21.261999130249023 -63.60100173950195 17.94300079345703
    vertex -37.108001708984375 -56.9119987487793 15.97200012207031
    vertex -20.368999481201172 -62.16199874877929 11.74899959564209
  endloop
endfacet
facet normal 0.052345540716883396 0.9982767921385096 0.0265215128660486
  outer loop
    vertex -4.998000144958496 -33.95899963378906 14.930000305175781
    vertex -9.714887070026501 -33.319743897825674 0.1779697239398985
    vertex -12.065185559660357 -33.196503884379695 0.1779697239398985
  endloop
endfacet
facet normal 0.6457444807887416 0.7132779236892611 -0.27248608975214716
  outer loop
    vertex -17.299999237060547 -22.413000106811523 15.999999999999998
    vertex -12.206139516911142 -33.06889552938381 0.1779697239398985
    vertex -20.556971512228642 -25.508723691905846 0.1779697239398985
  endloop
endfacet
facet normal 0.949922057252992 -0.06140797950281533 -0.306393774737062
  outer loop
    vertex -9.714887070026501 -33.319743897825674 0.1779697239398985
    vertex -4.998000144958496 -33.95899963378906 14.930000305175781
    vertex -10.488290533216182 -45.28354754008761 0.1779697239398985
  endloop
endfacet
facet normal 0.949922060030237 -0.061407996504467474 -0.30639376271918145
  outer loop
    vertex -10.50195605905008 -45.49493995134441 0.1779697239398985
    vertex -4.998000144958496 -33.95899963378906 14.930000305175781
    vertex -6.032999992370605 -52.07500076293945 15.352000236511229
  endloop
endfacet
facet normal 0.949922060030237 -0.061407996504467474 -0.30639376271918145
  outer loop
    vertex -4.998000144958496 -33.95899963378906 14.930000305175781
    vertex -10.50195605905008 -45.49493995134441 0.1779697239398985
    vertex -10.488290533216182 -45.28354754008761 0.1779697239398985
  endloop
endfacet
facet normal -0.6316738902524147 -0.7554275058742499 0.17411886670315385
  outer loop
    vertex -41.029998779296875 -46.22200012207031 48.12300109863281
    vertex -46.26499938964844 -49.268001556396484 15.916000366210936
    vertex -37.108001708984375 -56.9119987487793 15.97200012207031
  endloop
endfacet
facet normal -0.8940151553983567 -0.4463065988799089 0.039336010401417765
  outer loop
    vertex -41.029998779296875 -46.22200012207031 48.12300109863281
    vertex -37.108001708984375 -56.9119987487793 15.97200012207031
    vertex -36.39099884033203 -55.000999450683594 53.95000076293945
  endloop
endfacet
facet normal -0.7693866859917063 -0.5998008799167537 -0.21973400253439973
  outer loop
    vertex -41.994326321060484 -48.98060373553258 0.1779697239398985
    vertex -40.41868216032298 -51.00174054897017 0.1779697239398985
    vertex -46.26499938964844 -49.268001556396484 15.916000366210936
  endloop
endfacet
facet normal -0.23587312021807325 0.9161206183742363 0.3241710717324992
  outer loop
    vertex -26.298000335693356 -35.47200012207031 78.6969985961914
    vertex -18.29599952697754 -33.08300018310547 77.76799774169922
    vertex -22.69499969482422 -25.180000305175778 52.23300170898437
  endloop
endfacet
facet normal 0.5573394511615326 -0.7922449841818584 -0.24843635244796322
  outer loop
    vertex -6.032999992370605 -52.07500076293945 15.352000236511229
    vertex -18.582033707834658 -56.14481607951942 0.1779697239398985
    vertex -8.865200214962659 -49.309083756722984 0.1779697239398985
  endloop
endfacet
facet normal 0.9144316930718199 0.39240822948087545 -0.09914867695279508
  outer loop
    vertex -10.50195605905008 -45.49493995134441 0.1779697239398985
    vertex -6.032999992370605 -52.07500076293945 15.352000236511229
    vertex -8.865200214962659 -49.309083756722984 0.1779697239398985
  endloop
endfacet
facet normal 0.9283254309189277 0.24360741683664708 0.2808332615118146
  outer loop
    vertex -11.607000350952148 -29.579999923706055 50.797000885009766
    vertex -16.44400024414062 -40.74700164794921 76.4729995727539
    vertex -8.50100040435791 -39.89099884033203 49.47399902343749
  endloop
endfacet
facet normal 0.9479010906600296 0.18527063009016348 0.259149215610467
  outer loop
    vertex -11.607000350952148 -29.579999923706055 50.797000885009766
    vertex -18.29599952697754 -33.08300018310547 77.76799774169922
    vertex -16.44400024414062 -40.74700164794921 76.4729995727539
  endloop
endfacet
facet normal 0.3840582576710287 0.898648818786473 0.21196592935745773
  outer loop
    vertex -18.29599952697754 -33.08300018310547 77.76799774169922
    vertex -11.607000350952148 -29.579999923706055 50.797000885009766
    vertex -22.69499969482422 -25.180000305175778 52.23300170898437
  endloop
endfacet
facet normal 0.26218402247845535 0.9527917778087885 0.1531253293775557
  outer loop
    vertex -11.607000350952148 -29.579999923706055 50.797000885009766
    vertex -27.54400062561035 -20.07200050354004 18.923000335693356
    vertex -28.176000595092773 -20.02199935913086 19.69400024414062
  endloop
endfacet
facet normal 0.3768223325157138 0.922580465184709 0.08276602549949245
  outer loop
    vertex -22.69499969482422 -25.180000305175778 52.23300170898437
    vertex -11.607000350952148 -29.579999923706055 50.797000885009766
    vertex -28.29899978637695 -20.003000259399414 20.04000091552734
  endloop
endfacet
facet normal 0.3763054210922077 0.9227611562583333 0.08310281919044535
  outer loop
    vertex -11.607000350952148 -29.579999923706055 50.797000885009766
    vertex -28.176000595092773 -20.02199935913086 19.69400024414062
    vertex -28.29899978637695 -20.003000259399414 20.04000091552734
  endloop
endfacet
facet normal -0.5379775049581634 0.812564813512899 0.2243181401486223
  outer loop
    vertex -22.69499969482422 -25.180000305175778 52.23300170898437
    vertex -28.29899978637695 -20.003000259399414 20.04000091552734
    vertex -45.290000915527344 -30.13699913024902 15.999999999999998
  endloop
endfacet
facet normal -0.44352576501735913 0.8826099698553075 0.15583496680071493
  outer loop
    vertex -22.69499969482422 -25.180000305175778 52.23300170898437
    vertex -45.290000915527344 -30.13699913024902 15.999999999999998
    vertex -36.4109992980957 -31.649999618530273 49.84000015258788
  endloop
endfacet
facet normal 0.368746240857965 -0.756475881950523 0.5401578009066408
  outer loop
    vertex -29.781999588012695 -49.78499984741211 76.5009994506836
    vertex -22.834999084472653 -58.963001251220696 58.90499877929687
    vertex -24.606000900268555 -48.790000915527344 74.36100006103514
  endloop
endfacet
facet normal -0.7276012087769929 0.5990174475310552 0.33432705325719375
  outer loop
    vertex -36.4109992980957 -31.649999618530273 49.84000015258788
    vertex -29.902000427246094 -38.797000885009766 76.81099700927734
    vertex -26.298000335693356 -35.47200012207031 78.6969985961914
  endloop
endfacet
facet normal 0.949868007979283 0.2981898438586323 -0.0939871503825585
  outer loop
    vertex -17.299999237060547 -22.413000106811523 15.999999999999998
    vertex -11.607000350952148 -29.579999923706055 50.797000885009766
    vertex -8.50100040435791 -39.89099884033203 49.47399902343749
  endloop
endfacet
facet normal 0.906313329050634 -0.33771736035515454 0.2540534079675062
  outer loop
    vertex -16.44400024414062 -40.74700164794921 76.4729995727539
    vertex -19.152000427246094 -46.998001098632805 77.8239974975586
    vertex -14.114999771118162 -52.07500076293945 53.10599899291992
  endloop
endfacet
facet normal 0.9047949739674951 -0.34077206816491795 0.25538295291926694
  outer loop
    vertex -8.50100040435791 -39.89099884033203 49.47399902343749
    vertex -16.44400024414062 -40.74700164794921 76.4729995727539
    vertex -14.114999771118162 -52.07500076293945 53.10599899291992
  endloop
endfacet
facet normal 0.7182861979497375 -0.5405191230634331 0.438068505416274
  outer loop
    vertex -24.606000900268555 -48.790000915527344 74.36100006103514
    vertex -22.834999084472653 -58.963001251220696 58.90499877929687
    vertex -14.114999771118162 -52.07500076293945 53.10599899291992
  endloop
endfacet
facet normal -0.36955330082499355 -0.8756740160223793 0.31084622486462615
  outer loop
    vertex -29.781999588012695 -49.78499984741211 76.5009994506836
    vertex -36.39099884033203 -55.000999450683594 53.95000076293945
    vertex -22.834999084472653 -58.963001251220696 58.90499877929687
  endloop
endfacet
facet normal 0.6704517481110389 -0.7279391606503656 0.1435236281818898
  outer loop
    vertex -22.834999084472653 -58.963001251220696 58.90499877929687
    vertex -6.032999992370605 -52.07500076293945 15.352000236511229
    vertex -14.114999771118162 -52.07500076293945 53.10599899291992
  endloop
endfacet
facet normal 0.6117420091552281 -0.7830662532685279 0.11215595047394902
  outer loop
    vertex -22.834999084472653 -58.963001251220696 58.90499877929687
    vertex -21.261999130249023 -63.60100173950195 17.94300079345703
    vertex -6.032999992370605 -52.07500076293945 15.352000236511229
  endloop
endfacet
facet normal -0.31113569493430576 -0.9455934841583086 0.09511856840332103
  outer loop
    vertex -22.834999084472653 -58.963001251220696 58.90499877929687
    vertex -36.39099884033203 -55.000999450683594 53.95000076293945
    vertex -21.261999130249023 -63.60100173950195 17.94300079345703
  endloop
endfacet
facet normal 0.16813182963607065 -0.9582943275623713 0.2310923400396693
  outer loop
    vertex -19.152000427246094 -46.998001098632805 77.8239974975586
    vertex -24.606000900268555 -48.790000915527344 74.36100006103514
    vertex -14.114999771118162 -52.07500076293945 53.10599899291992
  endloop
endfacet
facet normal 0.6805728755906941 0.7074802087846666 0.19050542036440468
  outer loop
    vertex -8.50100040435791 -39.89099884033203 49.47399902343749
    vertex -4.998000144958496 -33.95899963378906 14.930000305175781
    vertex -17.299999237060547 -22.413000106811523 15.999999999999998
  endloop
endfacet
facet normal 0.9765768892468633 -0.050923786741405234 0.20905584740168356
  outer loop
    vertex -4.998000144958496 -33.95899963378906 14.930000305175781
    vertex -14.114999771118162 -52.07500076293945 53.10599899291992
    vertex -6.032999992370605 -52.07500076293945 15.352000236511229
  endloop
endfacet
facet normal 0.9104250158601034 -0.41312122251388594 0.021380972961094157
  outer loop
    vertex -4.998000144958496 -33.95899963378906 14.930000305175781
    vertex -8.50100040435791 -39.89099884033203 49.47399902343749
    vertex -14.114999771118162 -52.07500076293945 53.10599899291992
  endloop
endfacet
facet normal -0.44891677759484655 0.8517628293675762 0.27013664931215936
  outer loop
    vertex -26.298000335693356 -35.47200012207031 78.6969985961914
    vertex -22.69499969482422 -25.180000305175778 52.23300170898437
    vertex -36.4109992980957 -31.649999618530273 49.84000015258788
  endloop
endfacet
facet normal -0.9497220003138465 0.28603904641096656 0.12731765803756823
  outer loop
    vertex -36.4109992980957 -31.649999618530273 49.84000015258788
    vertex -46.26499938964844 -49.268001556396484 15.916000366210936
    vertex -41.029998779296875 -46.22200012207031 48.12300109863281
  endloop
endfacet
facet normal -0.9656100160402231 0.04808977798026008 0.2555086499056525
  outer loop
    vertex -45.290000915527344 -30.13699913024902 15.999999999999998
    vertex -46.26499938964844 -49.268001556396484 15.916000366210936
    vertex -36.4109992980957 -31.649999618530273 49.84000015258788
  endloop
endfacet
facet normal 0.017221431383940174 0.9986642326279832 -0.04871522113929037
  outer loop
    vertex -28.29899978637695 -20.003000259399414 20.04000091552734
    vertex -28.176000595092773 -20.02199935913086 19.69400024414062
    vertex -28.736000061035156 -20.04000091552734 19.12700080871582
  endloop
endfacet
facet normal -0.39398946362771 -0.9175502554645742 0.053608126690305104
  outer loop
    vertex -36.39099884033203 -55.000999450683594 53.95000076293945
    vertex -37.108001708984375 -56.9119987487793 15.97200012207031
    vertex -21.261999130249023 -63.60100173950195 17.94300079345703
  endloop
endfacet
facet normal 0.5573393092823798 -0.792245133331968 -0.24843619510943246
  outer loop
    vertex -6.032999992370605 -52.07500076293945 15.352000236511229
    vertex -18.752420330420986 -56.26468196262536 0.1779697239398985
    vertex -18.582033707834658 -56.14481607951942 0.1779697239398985
  endloop
endfacet
facet normal 0.5573393092823798 -0.792245133331968 -0.24843619510943246
  outer loop
    vertex -18.752420330420986 -56.26468196262536 0.1779697239398985
    vertex -6.032999992370605 -52.07500076293945 15.352000236511229
    vertex -21.261999130249023 -63.60100173950195 17.94300079345703
  endloop
endfacet
facet normal 0.9688937784195614 0.1483065596631292 0.19811615406309754
  outer loop
    vertex -18.752420330420986 -56.26468196262536 0.1779697239398985
    vertex -21.261999130249023 -63.60100173950195 17.94300079345703
    vertex -20.224000930786133 -62.10800170898437 11.74899959564209
  endloop
endfacet
facet normal 0.34898391366516873 -0.9371284387403809 0.0007192405427633151
  outer loop
    vertex -20.368999481201172 -62.16199874877929 11.74899959564209
    vertex -20.07200050354004 -62.051998138427734 10.965999603271484
    vertex -20.224000930786133 -62.10800170898437 11.74899959564209
  endloop
endfacet
facet normal 0.3441945682833476 -0.9242675830260902 -0.16510461571788243
  outer loop
    vertex -21.261999130249023 -63.60100173950195 17.94300079345703
    vertex -20.368999481201172 -62.16199874877929 11.74899959564209
    vertex -20.224000930786133 -62.10800170898437 11.74899959564209
  endloop
endfacet
facet normal 0.019108357993982805 0.9985408568028626 -0.050507701889701356
  outer loop
    vertex -27.54400062561035 -20.07200050354004 18.923000335693356
    vertex -28.49600028991699 -20.076999664306637 18.464000701904297
    vertex -28.542999267578125 -20.062999725341797 18.722999572753906
  endloop
endfacet
facet normal 0.01860075606873356 0.9986757522641292 -0.04796617259431103
  outer loop
    vertex -28.736000061035156 -20.04000091552734 19.12700080871582
    vertex -27.54400062561035 -20.07200050354004 18.923000335693356
    vertex -28.542999267578125 -20.062999725341797 18.722999572753906
  endloop
endfacet
facet normal 0.01829009933619 0.9985932977380181 -0.049768443606187596
  outer loop
    vertex -28.176000595092773 -20.02199935913086 19.69400024414062
    vertex -27.54400062561035 -20.07200050354004 18.923000335693356
    vertex -28.736000061035156 -20.04000091552734 19.12700080871582
  endloop
endfacet
facet normal -0.15624701923131046 -0.9868996831762 -0.04019806373504225
  outer loop
    vertex -31.505084991455078 -56.04160690307617 4.999999999999999
    vertex -31.498263389892053 -55.846277601886854 0.1779697239398985
    vertex -25.728743881440003 -56.75971413546773 0.1779697239398985
  endloop
endfacet
facet normal -0.6904405248586599 0.7048270004578765 -0.16282131635154812
  outer loop
    vertex -30.42370796203613 -25.075664520263672 4.999999999999999
    vertex -30.463986142508613 -26.229052521252267 0.1779697239398985
    vertex -32.28656828830435 -28.014433292028286 0.1779697239398985
  endloop
endfacet
facet normal -0.9641090014050538 0.050279838702061694 -0.2607024572761918
  outer loop
    vertex -45.290000915527344 -30.13699913024902 15.999999999999998
    vertex -41.34373705854328 -36.50562866239353 0.1779697239398985
    vertex -46.26499938964844 -49.268001556396484 15.916000366210936
  endloop
endfacet
facet normal -0.9641090014050538 0.050279838702061694 -0.2607024572761918
  outer loop
    vertex -41.34373705854328 -36.50562866239353 0.1779697239398985
    vertex -45.290000915527344 -30.13699913024902 15.999999999999998
    vertex -41.3327236609318 -36.29444827583337 0.1779697239398985
  endloop
endfacet
facet normal -0.6904401487936593 0.7048273593346229 -0.16282135752772717
  outer loop
    vertex -29.91363143920898 -24.576000213623047 4.999999999999999
    vertex -30.427535027129327 -26.193345472016073 0.1779697239398985
    vertex -30.463986142508613 -26.229052521252267 0.1779697239398985
  endloop
endfacet
facet normal -0.6904401487936593 0.7048273593346229 -0.16282135752772717
  outer loop
    vertex -30.427535027129327 -26.193345472016073 0.1779697239398985
    vertex -29.91363143920898 -24.576000213623047 4.999999999999999
    vertex -29.38840103149414 -24.06149101257324 4.999999999999999
  endloop
endfacet
facet normal -0.8779408640571273 -0.4775798710139465 -0.03372396804836538
  outer loop
    vertex -45.290000915527344 -30.13699913024902 15.999999999999998
    vertex -42.702001034274986 -33.77728908791674 0.1779697239398985
    vertex -41.3327236609318 -36.29444827583337 0.1779697239398985
  endloop
endfacet
facet normal -0.9641089918129798 0.05027977645585596 -0.2607025047538078
  outer loop
    vertex -41.34373705854328 -36.50562866239353 0.1779697239398985
    vertex -41.994326321060484 -48.98060373553258 0.1779697239398985
    vertex -46.26499938964844 -49.268001556396484 15.916000366210936
  endloop
endfacet
facet normal -0.4637069936110711 0.843846436139726 -0.26999817830953143
  outer loop
    vertex -45.290000915527344 -30.13699913024902 15.999999999999998
    vertex -32.55650984558754 -28.202180849816795 0.1779697239398985
    vertex -42.702001034274986 -33.77728908791674 0.1779697239398985
  endloop
endfacet
facet normal -0.3480403422803533 -0.9008651950681539 -0.25944136227708925
  outer loop
    vertex -25.577392578124996 -58.20689010620117 4.999999999999999
    vertex -25.728743881440003 -56.75971413546773 0.1779697239398985
    vertex -25.5295419966728 -56.83667380994158 0.1779697239398985
  endloop
endfacet
facet normal -0.3480403422803533 -0.9008651950681539 -0.25944136227708925
  outer loop
    vertex -25.728743881440003 -56.75971413546773 0.1779697239398985
    vertex -25.577392578124996 -58.20689010620117 4.999999999999999
    vertex -31.235246658325195 -56.021034240722656 4.999999999999999
  endloop
endfacet
facet normal -0.4637070581057279 0.8438463819718813 -0.26999823683849733
  outer loop
    vertex -32.55650984558754 -28.202180849816795 0.1779697239398985
    vertex -28.542999267578125 -20.062999725341797 18.722999572753906
    vertex -32.378496100459685 -28.104359455047366 0.17796972393989846
  endloop
endfacet
facet normal -0.4637070581057279 0.8438463819718813 -0.26999823683849733
  outer loop
    vertex -28.542999267578125 -20.062999725341797 18.722999572753906
    vertex -32.55650984558754 -28.202180849816795 0.1779697239398985
    vertex -45.290000915527344 -30.13699913024902 15.999999999999998
  endloop
endfacet
facet normal -0.6904405002484456 0.7048270196652839 -0.16282133756492065
  outer loop
    vertex -28.49600028991699 -20.076999664306637 18.464000701904297
    vertex -32.28656828830435 -28.014433292028286 0.1779697239398985
    vertex -32.31777182173143 -28.044999917069333 0.1779697239398985
  endloop
endfacet
facet normal -0.6904405002484456 0.7048270196652839 -0.16282133756492065
  outer loop
    vertex -32.28656828830435 -28.014433292028286 0.1779697239398985
    vertex -28.49600028991699 -20.076999664306637 18.464000701904297
    vertex -30.42370796203613 -25.075664520263672 4.999999999999999
  endloop
endfacet
facet normal -0.6896442436097954 0.7054999240280823 -0.1632809678200234
  outer loop
    vertex -28.49600028991699 -20.076999664306637 18.464000701904297
    vertex -32.31777182173143 -28.044999917069333 0.1779697239398985
    vertex -32.378496100459685 -28.104359455047366 0.17796972393989846
  endloop
endfacet
facet normal 3.570979343555973e-20 -3.0942370747752975e-20 1.0
  outer loop
    vertex -40.41868216032298 -51.00174054897017 0.1779697239398985
    vertex -41.34373705854328 -36.50562866239353 0.1779697239398985
    vertex -41.994326321060484 -48.98060373553258 0.1779697239398985
  endloop
endfacet
facet normal 3.570979343555973e-20 -3.0942370747752975e-20 1.0
  outer loop
    vertex -41.34373705854328 -36.50562866239353 0.1779697239398985
    vertex -40.41868216032298 -51.00174054897017 0.1779697239398985
    vertex -41.3327236609318 -36.29444827583337 0.1779697239398985
  endloop
endfacet
facet normal 3.570979343555973e-20 -3.0942370747752975e-20 1.0
  outer loop
    vertex -41.3327236609318 -36.29444827583337 0.1779697239398985
    vertex -32.55650984558754 -28.202180849816795 0.1779697239398985
    vertex -42.702001034274986 -33.77728908791674 0.1779697239398985
  endloop
endfacet
facet normal 3.570979343555973e-20 -3.0942370747752975e-20 1.0
  outer loop
    vertex -32.55650984558754 -28.202180849816795 0.1779697239398985
    vertex -41.3327236609318 -36.29444827583337 0.1779697239398985
    vertex -40.41868216032298 -51.00174054897017 0.1779697239398985
  endloop
endfacet
facet normal 3.570979343555973e-20 -3.0942370747752975e-20 1.0
  outer loop
    vertex -32.55650984558754 -28.202180849816795 0.1779697239398985
    vertex -40.41868216032298 -51.00174054897017 0.1779697239398985
    vertex -40.317554109426304 -51.08603595496211 0.1779697239398985
  endloop
endfacet
facet normal 3.570979343555973e-20 -3.0942370747752975e-20 1.0
  outer loop
    vertex -32.55650984558754 -28.202180849816795 0.1779697239398985
    vertex -40.317554109426304 -51.08603595496211 0.1779697239398985
    vertex -34.34629470689807 -56.06339079881367 0.1779697239398985
  endloop
endfacet
facet normal 3.570979343555973e-20 -3.0942370747752975e-20 1.0
  outer loop
    vertex -32.55650984558754 -28.202180849816795 0.1779697239398985
    vertex -34.34629470689807 -56.06339079881367 0.1779697239398985
    vertex -34.216575002538285 -56.05350192128587 0.1779697239398985
  endloop
endfacet
facet normal 3.570979343555973e-20 -3.0942370747752975e-20 1.0
  outer loop
    vertex -32.55650984558754 -28.202180849816795 0.1779697239398985
    vertex -34.216575002538285 -56.05350192128587 0.1779697239398985
    vertex -31.498263389892053 -55.846277601886854 0.1779697239398985
  endloop
endfacet
facet normal 3.570979343555973e-20 -3.0942370747752975e-20 1.0
  outer loop
    vertex -32.55650984558754 -28.202180849816795 0.1779697239398985
    vertex -31.498263389892053 -55.846277601886854 0.1779697239398985
    vertex -32.378496100459685 -28.104359455047366 0.17796972393989846
  endloop
endfacet
facet normal 3.570979343555973e-20 -3.0942370747752975e-20 1.0
  outer loop
    vertex -32.378496100459685 -28.104359455047366 0.17796972393989846
    vertex -31.498263389892053 -55.846277601886854 0.1779697239398985
    vertex -32.31777182173143 -28.044999917069333 0.1779697239398985
  endloop
endfacet
facet normal 3.570979343555973e-20 -3.0942370747752975e-20 1.0
  outer loop
    vertex -32.31777182173143 -28.044999917069333 0.1779697239398985
    vertex -31.498263389892053 -55.846277601886854 0.1779697239398985
    vertex -32.28656828830435 -28.014433292028286 0.1779697239398985
  endloop
endfacet
facet normal 3.570979343555973e-20 -3.0942370747752975e-20 1.0
  outer loop
    vertex -32.28656828830435 -28.014433292028286 0.1779697239398985
    vertex -31.498263389892053 -55.846277601886854 0.1779697239398985
    vertex -30.463986142508613 -26.229052521252267 0.1779697239398985
  endloop
endfacet
facet normal 3.570979343555973e-20 -3.0942370747752975e-20 1.0
  outer loop
    vertex -30.463986142508613 -26.229052521252267 0.1779697239398985
    vertex -31.498263389892053 -55.846277601886854 0.1779697239398985
    vertex -25.728743881440003 -56.75971413546773 0.1779697239398985
  endloop
endfacet
facet normal 3.570979343555973e-20 -3.0942370747752975e-20 1.0
  outer loop
    vertex -30.463986142508613 -26.229052521252267 0.1779697239398985
    vertex -25.728743881440003 -56.75971413546773 0.1779697239398985
    vertex -30.427535027129327 -26.193345472016073 0.1779697239398985
  endloop
endfacet
facet normal 3.570979343555973e-20 -3.0942370747752975e-20 1.0
  outer loop
    vertex -30.427535027129327 -26.193345472016073 0.1779697239398985
    vertex -25.728743881440003 -56.75971413546773 0.1779697239398985
    vertex -24.636017382457265 -26.20603545431405 0.1779697239398985
  endloop
endfacet
facet normal 3.570979343555973e-20 -3.0942370747752975e-20 1.0
  outer loop
    vertex -24.636017382457265 -26.20603545431405 0.1779697239398985
    vertex -25.728743881440003 -56.75971413546773 0.1779697239398985
    vertex -25.5295419966728 -56.83667380994158 0.1779697239398985
  endloop
endfacet
facet normal 3.570979343555973e-20 -3.0942370747752975e-20 1.0
  outer loop
    vertex -24.636017382457265 -26.20603545431405 0.1779697239398985
    vertex -25.5295419966728 -56.83667380994158 0.1779697239398985
    vertex -18.46190272871716 -59.56718407291455 0.1779697239398985
  endloop
endfacet
facet normal 3.570979343555973e-20 -3.0942370747752975e-20 1.0
  outer loop
    vertex -24.636017382457265 -26.20603545431405 0.1779697239398985
    vertex -18.46190272871716 -59.56718407291455 0.1779697239398985
    vertex -24.460722316005906 -26.23083676369723 0.1779697239398985
  endloop
endfacet
facet normal 3.570979343555973e-20 -3.0942370747752975e-20 1.0
  outer loop
    vertex -24.460722316005906 -26.23083676369723 0.1779697239398985
    vertex -18.46190272871716 -59.56718407291455 0.1779697239398985
    vertex -22.56033121987582 -26.499573269621003 0.1779697239398985
  endloop
endfacet
facet normal 3.570979343555973e-20 -3.0942370747752975e-20 1.0
  outer loop
    vertex -22.56033121987582 -26.499573269621003 0.1779697239398985
    vertex -18.46190272871716 -59.56718407291455 0.1779697239398985
    vertex -22.435728798752248 -26.517193421455683 0.1779697239398985
  endloop
endfacet
facet normal 3.570979343555973e-20 -3.0942370747752975e-20 1.0
  outer loop
    vertex -22.435728798752248 -26.517193421455683 0.1779697239398985
    vertex -18.46190272871716 -59.56718407291455 0.1779697239398985
    vertex -18.752420330420986 -56.26468196262536 0.1779697239398985
  endloop
endfacet
facet normal 3.570979343555973e-20 -3.0942370747752975e-20 1.0
  outer loop
    vertex -22.435728798752248 -26.517193421455683 0.1779697239398985
    vertex -18.752420330420986 -56.26468196262536 0.1779697239398985
    vertex -20.556971512228642 -25.508723691905846 0.1779697239398985
  endloop
endfacet
facet normal 3.570979343555973e-20 -3.0942370747752975e-20 1.0
  outer loop
    vertex -18.752420330420986 -56.26468196262536 0.1779697239398985
    vertex -18.46190272871716 -59.56718407291455 0.1779697239398985
    vertex -18.634623559852596 -57.03425276358214 0.1779697239398985
  endloop
endfacet
facet normal 3.570979343555973e-20 -3.0942370747752975e-20 1.0
  outer loop
    vertex -18.634623559852596 -57.03425276358214 0.1779697239398985
    vertex -18.46190272871716 -59.56718407291455 0.1779697239398985
    vertex -18.60188741739925 -57.245872123573825 0.1779697239398985
  endloop
endfacet
facet normal 3.570979343555973e-20 -3.0942370747752975e-20 1.0
  outer loop
    vertex -18.60188741739925 -57.245872123573825 0.1779697239398985
    vertex -18.46190272871716 -59.56718407291455 0.1779697239398985
    vertex -18.232247292643592 -59.6559089458158 0.1779697239398985
  endloop
endfacet
facet normal 3.570979343555973e-20 -3.0942370747752975e-20 1.0
  outer loop
    vertex -18.752420330420986 -56.26468196262536 0.1779697239398985
    vertex -12.206139516911142 -33.06889552938381 0.1779697239398985
    vertex -20.556971512228642 -25.508723691905846 0.1779697239398985
  endloop
endfacet
facet normal 3.570979343555973e-20 -3.0942370747752975e-20 1.0
  outer loop
    vertex -12.206139516911142 -33.06889552938381 0.1779697239398985
    vertex -18.752420330420986 -56.26468196262536 0.1779697239398985
    vertex -18.582033707834658 -56.14481607951942 0.1779697239398985
  endloop
endfacet
facet normal 3.570979343555973e-20 -3.0942370747752975e-20 1.0
  outer loop
    vertex -12.206139516911142 -33.06889552938381 0.1779697239398985
    vertex -18.582033707834658 -56.14481607951942 0.1779697239398985
    vertex -10.50195605905008 -45.49493995134441 0.1779697239398985
  endloop
endfacet
facet normal 3.570979343555973e-20 -3.0942370747752975e-20 1.0
  outer loop
    vertex -10.50195605905008 -45.49493995134441 0.1779697239398985
    vertex -18.582033707834658 -56.14481607951942 0.1779697239398985
    vertex -8.865200214962659 -49.309083756722984 0.1779697239398985
  endloop
endfacet
facet normal 3.570979343555973e-20 -3.0942370747752975e-20 1.0
  outer loop
    vertex -12.206139516911142 -33.06889552938381 0.1779697239398985
    vertex -10.50195605905008 -45.49493995134441 0.1779697239398985
    vertex -12.065185559660357 -33.196503884379695 0.1779697239398985
  endloop
endfacet
facet normal 3.570979343555973e-20 -3.0942370747752975e-20 1.0
  outer loop
    vertex -10.50195605905008 -45.49493995134441 0.1779697239398985
    vertex -9.714887070026501 -33.319743897825674 0.1779697239398985
    vertex -12.065185559660357 -33.196503884379695 0.1779697239398985
  endloop
endfacet
facet normal 3.570979343555973e-20 -3.0942370747752975e-20 1.0
  outer loop
    vertex -9.714887070026501 -33.319743897825674 0.1779697239398985
    vertex -10.50195605905008 -45.49493995134441 0.1779697239398985
    vertex -10.488290533216182 -45.28354754008761 0.1779697239398985
  endloop
endfacet
endsolid top_skal_ikke_done
