solid ascii
  facet normal -8.660254e-001 5.000000e-001 3.076740e-015
    outer loop
      vertex   -2.373750e+001 1.835048e+001 1.600000e+001
      vertex   -2.373750e+001 1.835048e+001 1.400000e+001
      vertex   -2.622436e+001 1.404311e+001 1.600000e+001
    endloop
  endfacet
  facet normal -8.660254e-001 5.000000e-001 1.607168e-015
    outer loop
      vertex   -2.622436e+001 1.404311e+001 1.600000e+001
      vertex   -2.373750e+001 1.835048e+001 1.400000e+001
      vertex   -2.622436e+001 1.404311e+001 1.400000e+001
    endloop
  endfacet
  facet normal -3.076740e-016 1.776357e-016 -1.000000e+000
    outer loop
      vertex   -6.703877e+001 4.335048e+001 1.600000e+001
      vertex   -2.373750e+001 1.835048e+001 1.600000e+001
      vertex   -6.952564e+001 3.904311e+001 1.600000e+001
    endloop
  endfacet
  facet normal -3.076740e-016 1.776357e-016 -1.000000e+000
    outer loop
      vertex   -6.952564e+001 3.904311e+001 1.600000e+001
      vertex   -2.373750e+001 1.835048e+001 1.600000e+001
      vertex   -2.622436e+001 1.404311e+001 1.600000e+001
    endloop
  endfacet
  facet normal 8.660254e-001 -5.000000e-001 0.000000e+000
    outer loop
      vertex   -6.703877e+001 4.335048e+001 1.400000e+001
      vertex   -6.703877e+001 4.335048e+001 1.600000e+001
      vertex   -6.952564e+001 3.904311e+001 1.400000e+001
    endloop
  endfacet
  facet normal 8.660254e-001 -5.000000e-001 0.000000e+000
    outer loop
      vertex   -6.952564e+001 3.904311e+001 1.400000e+001
      vertex   -6.703877e+001 4.335048e+001 1.600000e+001
      vertex   -6.952564e+001 3.904311e+001 1.600000e+001
    endloop
  endfacet
  facet normal 3.076740e-016 -1.776357e-016 1.000000e+000
    outer loop
      vertex   -2.373750e+001 1.835048e+001 1.400000e+001
      vertex   -6.703877e+001 4.335048e+001 1.400000e+001
      vertex   -2.622436e+001 1.404311e+001 1.400000e+001
    endloop
  endfacet
  facet normal 3.076740e-016 -1.776357e-016 1.000000e+000
    outer loop
      vertex   -2.622436e+001 1.404311e+001 1.400000e+001
      vertex   -6.703877e+001 4.335048e+001 1.400000e+001
      vertex   -6.952564e+001 3.904311e+001 1.400000e+001
    endloop
  endfacet
  facet normal 8.660254e-001 5.000000e-001 0.000000e+000
    outer loop
      vertex   -6.155481e+001 6.538010e+001 2.023857e+001
      vertex   -6.155481e+001 6.538010e+001 1.823857e+001
      vertex   -6.419295e+001 6.994949e+001 2.023857e+001
    endloop
  endfacet
  facet normal 8.660254e-001 5.000000e-001 0.000000e+000
    outer loop
      vertex   -6.419295e+001 6.994949e+001 2.023857e+001
      vertex   -6.155481e+001 6.538010e+001 1.823857e+001
      vertex   -6.419295e+001 6.994949e+001 1.823857e+001
    endloop
  endfacet
  facet normal 4.307436e-016 2.486900e-016 -1.000000e+000
    outer loop
      vertex   -1.825354e+001 9.038010e+001 2.023857e+001
      vertex   -6.155481e+001 6.538010e+001 2.023857e+001
      vertex   -2.089168e+001 9.494949e+001 2.023857e+001
    endloop
  endfacet
  facet normal 4.307436e-016 2.486900e-016 -1.000000e+000
    outer loop
      vertex   -2.089168e+001 9.494949e+001 2.023857e+001
      vertex   -6.155481e+001 6.538010e+001 2.023857e+001
      vertex   -6.419295e+001 6.994949e+001 2.023857e+001
    endloop
  endfacet
  facet normal -8.660254e-001 -5.000000e-001 0.000000e+000
    outer loop
      vertex   -1.825354e+001 9.038010e+001 1.823857e+001
      vertex   -1.825354e+001 9.038010e+001 2.023857e+001
      vertex   -2.089168e+001 9.494949e+001 1.823857e+001
    endloop
  endfacet
  facet normal -8.660254e-001 -5.000000e-001 0.000000e+000
    outer loop
      vertex   -2.089168e+001 9.494949e+001 1.823857e+001
      vertex   -1.825354e+001 9.038010e+001 2.023857e+001
      vertex   -2.089168e+001 9.494949e+001 2.023857e+001
    endloop
  endfacet
  facet normal -3.692088e-016 -2.131628e-016 1.000000e+000
    outer loop
      vertex   -6.155481e+001 6.538010e+001 1.823857e+001
      vertex   -1.825354e+001 9.038010e+001 1.823857e+001
      vertex   -6.419295e+001 6.994949e+001 1.823857e+001
    endloop
  endfacet
  facet normal -3.692088e-016 -2.131628e-016 1.000000e+000
    outer loop
      vertex   -6.419295e+001 6.994949e+001 1.823857e+001
      vertex   -1.825354e+001 9.038010e+001 1.823857e+001
      vertex   -2.089168e+001 9.494949e+001 1.823857e+001
    endloop
  endfacet
  facet normal -0.000000e+000 1.000000e+000 0.000000e+000
    outer loop
      vertex   -8.375000e+000 2.732496e+001 8.545862e+000
      vertex   -8.375000e+000 2.732496e+001 1.054586e+001
      vertex   -2.125000e+000 2.732496e+001 8.545862e+000
    endloop
  endfacet
  facet normal 0.000000e+000 1.000000e+000 -0.000000e+000
    outer loop
      vertex   -2.125000e+000 2.732496e+001 8.545862e+000
      vertex   -8.375000e+000 2.732496e+001 1.054586e+001
      vertex   -2.125000e+000 2.732496e+001 1.054586e+001
    endloop
  endfacet
  facet normal 0.000000e+000 1.776357e-016 1.000000e+000
    outer loop
      vertex   -8.375000e+000 7.732496e+001 8.545862e+000
      vertex   -8.375000e+000 2.732496e+001 8.545862e+000
      vertex   -2.125000e+000 7.732496e+001 8.545862e+000
    endloop
  endfacet
  facet normal -0.000000e+000 1.776357e-016 1.000000e+000
    outer loop
      vertex   -2.125000e+000 7.732496e+001 8.545862e+000
      vertex   -8.375000e+000 2.732496e+001 8.545862e+000
      vertex   -2.125000e+000 2.732496e+001 8.545862e+000
    endloop
  endfacet
  facet normal 0.000000e+000 -1.000000e+000 0.000000e+000
    outer loop
      vertex   -8.375000e+000 7.732496e+001 1.054586e+001
      vertex   -8.375000e+000 7.732496e+001 8.545862e+000
      vertex   -2.125000e+000 7.732496e+001 1.054586e+001
    endloop
  endfacet
  facet normal 0.000000e+000 -1.000000e+000 -0.000000e+000
    outer loop
      vertex   -2.125000e+000 7.732496e+001 1.054586e+001
      vertex   -8.375000e+000 7.732496e+001 8.545862e+000
      vertex   -2.125000e+000 7.732496e+001 8.545862e+000
    endloop
  endfacet
  facet normal 0.000000e+000 -1.776357e-016 -1.000000e+000
    outer loop
      vertex   -8.375000e+000 2.732496e+001 1.054586e+001
      vertex   -8.375000e+000 7.732496e+001 1.054586e+001
      vertex   -2.125000e+000 2.732496e+001 1.054586e+001
    endloop
  endfacet
  facet normal 0.000000e+000 -1.776357e-016 -1.000000e+000
    outer loop
      vertex   -2.125000e+000 2.732496e+001 1.054586e+001
      vertex   -8.375000e+000 7.732496e+001 1.054586e+001
      vertex   -2.125000e+000 7.732496e+001 1.054586e+001
    endloop
  endfacet
  facet normal -1.000000e+000 -9.469604e-017 0.000000e+000
    outer loop
      vertex   -8.375000e+000 7.732496e+001 1.054586e+001
      vertex   -8.375000e+000 9.608348e+001 5.000000e+000
      vertex   -8.375000e+000 7.732496e+001 8.545862e+000
    endloop
  endfacet
  facet normal -1.000000e+000 -9.469604e-017 -0.000000e+000
    outer loop
      vertex   -8.375000e+000 7.732496e+001 1.054586e+001
      vertex   -8.375000e+000 9.608348e+001 5.000000e+001
      vertex   -8.375000e+000 9.608348e+001 5.000000e+000
    endloop
  endfacet
  facet normal -1.000000e+000 -4.102320e-017 -2.551881e-017
    outer loop
      vertex   -8.375000e+000 7.732496e+001 1.054586e+001
      vertex   -8.375000e+000 5.278220e+001 5.000000e+001
      vertex   -8.375000e+000 9.608348e+001 5.000000e+001
    endloop
  endfacet
  facet normal -1.000000e+000 -1.421085e-016 -8.839974e-017
    outer loop
      vertex   -8.375000e+000 7.732496e+001 1.054586e+001
      vertex   -8.375000e+000 2.732496e+001 1.054586e+001
      vertex   -8.375000e+000 5.278220e+001 5.000000e+001
    endloop
  endfacet
  facet normal -1.000000e+000 2.461392e-016 -3.389113e-016
    outer loop
      vertex   -8.375000e+000 5.278220e+001 5.000000e+001
      vertex   -8.375000e+000 2.732496e+001 1.054586e+001
      vertex   -8.375000e+000 9.480935e+000 5.000000e+001
    endloop
  endfacet
  facet normal -1.000000e+000 9.954910e-016 0.000000e+000
    outer loop
      vertex   -8.375000e+000 9.480935e+000 5.000000e+001
      vertex   -8.375000e+000 2.732496e+001 1.054586e+001
      vertex   -8.375000e+000 9.480935e+000 5.000000e+000
    endloop
  endfacet
  facet normal -1.000000e+000 9.954910e-016 0.000000e+000
    outer loop
      vertex   -8.375000e+000 9.480935e+000 5.000000e+000
      vertex   -8.375000e+000 2.732496e+001 1.054586e+001
      vertex   -8.375000e+000 2.732496e+001 8.545862e+000
    endloop
  endfacet
  facet normal -1.000000e+000 -1.421085e-016 -1.832503e-017
    outer loop
      vertex   -8.375000e+000 5.278220e+001 5.000000e+000
      vertex   -8.375000e+000 2.732496e+001 8.545862e+000
      vertex   -8.375000e+000 7.732496e+001 8.545862e+000
    endloop
  endfacet
  facet normal -1.000000e+000 -1.230696e-016 -1.501034e-016
    outer loop
      vertex   -8.375000e+000 9.608348e+001 5.000000e+000
      vertex   -8.375000e+000 5.278220e+001 5.000000e+000
      vertex   -8.375000e+000 7.732496e+001 8.545862e+000
    endloop
  endfacet
  facet normal -1.000000e+000 3.281856e-016 3.358116e-015
    outer loop
      vertex   -8.375000e+000 9.480935e+000 5.000000e+000
      vertex   -8.375000e+000 2.732496e+001 8.545862e+000
      vertex   -8.375000e+000 5.278220e+001 5.000000e+000
    endloop
  endfacet
  facet normal 5.000000e-001 -8.660254e-001 0.000000e+000
    outer loop
      vertex   -1.825354e+001 9.038010e+001 1.823857e+001
      vertex   -8.375000e+000 9.608348e+001 5.000000e+000
      vertex   -1.825354e+001 9.038010e+001 2.023857e+001
    endloop
  endfacet
  facet normal 5.000000e-001 -8.660254e-001 1.983209e-016
    outer loop
      vertex   -1.825354e+001 9.038010e+001 1.823857e+001
      vertex   -4.587500e+001 7.443284e+001 5.000000e+000
      vertex   -8.375000e+000 9.608348e+001 5.000000e+000
    endloop
  endfacet
  facet normal 5.000000e-001 -8.660254e-001 -4.293773e-016
    outer loop
      vertex   -1.825354e+001 9.038010e+001 1.823857e+001
      vertex   -6.155481e+001 6.538010e+001 1.823857e+001
      vertex   -4.587500e+001 7.443284e+001 5.000000e+000
    endloop
  endfacet
  facet normal 5.000000e-001 -8.660254e-001 -4.958022e-016
    outer loop
      vertex   -4.587500e+001 7.443284e+001 5.000000e+000
      vertex   -6.155481e+001 6.538010e+001 1.823857e+001
      vertex   -8.337500e+001 5.278220e+001 5.000000e+000
    endloop
  endfacet
  facet normal 5.000000e-001 -8.660254e-001 0.000000e+000
    outer loop
      vertex   -8.337500e+001 5.278220e+001 5.000000e+000
      vertex   -6.155481e+001 6.538010e+001 1.823857e+001
      vertex   -6.155481e+001 6.538010e+001 2.023857e+001
    endloop
  endfacet
  facet normal 5.000000e-001 -8.660254e-001 7.939594e-016
    outer loop
      vertex   -8.337500e+001 5.278220e+001 5.000000e+001
      vertex   -6.155481e+001 6.538010e+001 2.023857e+001
      vertex   -4.587500e+001 7.443284e+001 5.000000e+001
    endloop
  endfacet
  facet normal 5.000000e-001 -8.660254e-001 0.000000e+000
    outer loop
      vertex   -8.337500e+001 5.278220e+001 5.000000e+001
      vertex   -8.337500e+001 5.278220e+001 5.000000e+000
      vertex   -6.155481e+001 6.538010e+001 2.023857e+001
    endloop
  endfacet
  facet normal 5.000000e-001 -8.660254e-001 1.222380e-015
    outer loop
      vertex   -6.155481e+001 6.538010e+001 2.023857e+001
      vertex   -1.825354e+001 9.038010e+001 2.023857e+001
      vertex   -4.587500e+001 7.443284e+001 5.000000e+001
    endloop
  endfacet
  facet normal 5.000000e-001 -8.660254e-001 1.764354e-016
    outer loop
      vertex   -4.587500e+001 7.443284e+001 5.000000e+001
      vertex   -1.825354e+001 9.038010e+001 2.023857e+001
      vertex   -8.375000e+000 9.608348e+001 5.000000e+001
    endloop
  endfacet
  facet normal 5.000000e-001 -8.660254e-001 0.000000e+000
    outer loop
      vertex   -8.375000e+000 9.608348e+001 5.000000e+001
      vertex   -1.825354e+001 9.038010e+001 2.023857e+001
      vertex   -8.375000e+000 9.608348e+001 5.000000e+000
    endloop
  endfacet
  facet normal 5.000000e-001 8.660254e-001 0.000000e+000
    outer loop
      vertex   -6.703877e+001 4.335048e+001 1.400000e+001
      vertex   -8.337500e+001 5.278220e+001 5.000000e+000
      vertex   -6.703877e+001 4.335048e+001 1.600000e+001
    endloop
  endfacet
  facet normal 5.000000e-001 8.660254e-001 2.917206e-015
    outer loop
      vertex   -6.703877e+001 4.335048e+001 1.400000e+001
      vertex   -4.587500e+001 3.113157e+001 5.000000e+000
      vertex   -8.337500e+001 5.278220e+001 5.000000e+000
    endloop
  endfacet
  facet normal 5.000000e-001 8.660254e-001 2.526374e-016
    outer loop
      vertex   -6.703877e+001 4.335048e+001 1.400000e+001
      vertex   -2.373750e+001 1.835048e+001 1.400000e+001
      vertex   -4.587500e+001 3.113157e+001 5.000000e+000
    endloop
  endfacet
  facet normal 5.000000e-001 8.660254e-001 1.458603e-016
    outer loop
      vertex   -4.587500e+001 3.113157e+001 5.000000e+000
      vertex   -2.373750e+001 1.835048e+001 1.400000e+001
      vertex   -8.375000e+000 9.480935e+000 5.000000e+000
    endloop
  endfacet
  facet normal 5.000000e-001 8.660254e-001 -1.776357e-015
    outer loop
      vertex   -8.375000e+000 9.480935e+000 5.000000e+000
      vertex   -2.373750e+001 1.835048e+001 1.400000e+001
      vertex   -2.373750e+001 1.835048e+001 1.600000e+001
    endloop
  endfacet
  facet normal 5.000000e-001 8.660254e-001 1.930504e-017
    outer loop
      vertex   -8.375000e+000 9.480935e+000 5.000000e+001
      vertex   -2.373750e+001 1.835048e+001 1.600000e+001
      vertex   -4.587500e+001 3.113157e+001 5.000000e+001
    endloop
  endfacet
  facet normal 5.000000e-001 8.660254e-001 0.000000e+000
    outer loop
      vertex   -8.375000e+000 9.480935e+000 5.000000e+001
      vertex   -8.375000e+000 9.480935e+000 5.000000e+000
      vertex   -2.373750e+001 1.835048e+001 1.600000e+001
    endloop
  endfacet
  facet normal 5.000000e-001 8.660254e-001 -1.337492e-016
    outer loop
      vertex   -2.373750e+001 1.835048e+001 1.600000e+001
      vertex   -6.703877e+001 4.335048e+001 1.600000e+001
      vertex   -4.587500e+001 3.113157e+001 5.000000e+001
    endloop
  endfacet
  facet normal 5.000000e-001 8.660254e-001 -8.301166e-016
    outer loop
      vertex   -4.587500e+001 3.113157e+001 5.000000e+001
      vertex   -6.703877e+001 4.335048e+001 1.600000e+001
      vertex   -8.337500e+001 5.278220e+001 5.000000e+001
    endloop
  endfacet
  facet normal 5.000000e-001 8.660254e-001 0.000000e+000
    outer loop
      vertex   -8.337500e+001 5.278220e+001 5.000000e+001
      vertex   -6.703877e+001 4.335048e+001 1.600000e+001
      vertex   -8.337500e+001 5.278220e+001 5.000000e+000
    endloop
  endfacet
  facet normal 0.000000e+000 0.000000e+000 1.000000e+000
    outer loop
      vertex   -4.587500e+001 7.443284e+001 5.000000e+000
      vertex   -8.337500e+001 5.278220e+001 5.000000e+000
      vertex   -4.587500e+001 5.278220e+001 5.000000e+000
    endloop
  endfacet
  facet normal 0.000000e+000 0.000000e+000 1.000000e+000
    outer loop
      vertex   -8.375000e+000 5.278220e+001 5.000000e+000
      vertex   -4.587500e+001 5.278220e+001 5.000000e+000
      vertex   -4.587500e+001 3.113157e+001 5.000000e+000
    endloop
  endfacet
  facet normal 0.000000e+000 -0.000000e+000 1.000000e+000
    outer loop
      vertex   -8.375000e+000 9.480935e+000 5.000000e+000
      vertex   -8.375000e+000 5.278220e+001 5.000000e+000
      vertex   -4.587500e+001 3.113157e+001 5.000000e+000
    endloop
  endfacet
  facet normal 0.000000e+000 0.000000e+000 1.000000e+000
    outer loop
      vertex   -8.375000e+000 9.608348e+001 5.000000e+000
      vertex   -4.587500e+001 7.443284e+001 5.000000e+000
      vertex   -8.375000e+000 5.278220e+001 5.000000e+000
    endloop
  endfacet
  facet normal 0.000000e+000 0.000000e+000 1.000000e+000
    outer loop
      vertex   -8.375000e+000 5.278220e+001 5.000000e+000
      vertex   -4.587500e+001 7.443284e+001 5.000000e+000
      vertex   -4.587500e+001 5.278220e+001 5.000000e+000
    endloop
  endfacet
  facet normal 0.000000e+000 -0.000000e+000 1.000000e+000
    outer loop
      vertex   -4.587500e+001 3.113157e+001 5.000000e+000
      vertex   -4.587500e+001 5.278220e+001 5.000000e+000
      vertex   -8.337500e+001 5.278220e+001 5.000000e+000
    endloop
  endfacet
  facet normal -5.000001e-001 8.660253e-001 0.000000e+000
    outer loop
      vertex   -2.089168e+001 9.494949e+001 2.023857e+001
      vertex   -2.125000e+000 1.057844e+002 0.000000e+000
      vertex   -2.089168e+001 9.494949e+001 1.823857e+001
    endloop
  endfacet
  facet normal -5.000001e-001 8.660253e-001 0.000000e+000
    outer loop
      vertex   -2.089168e+001 9.494949e+001 2.023857e+001
      vertex   -2.125000e+000 1.057844e+002 5.000000e+001
      vertex   -2.125000e+000 1.057844e+002 0.000000e+000
    endloop
  endfacet
  facet normal -5.000000e-001 8.660254e-001 -1.134276e-007
    outer loop
      vertex   -2.089168e+001 9.494949e+001 2.023857e+001
      vertex   -4.787500e+001 7.937066e+001 5.000000e+001
      vertex   -2.125000e+000 1.057844e+002 5.000000e+001
    endloop
  endfacet
  facet normal -5.000000e-001 8.660254e-001 -1.134276e-007
    outer loop
      vertex   -2.089168e+001 9.494949e+001 2.023857e+001
      vertex   -6.419295e+001 6.994949e+001 2.023857e+001
      vertex   -4.787500e+001 7.937066e+001 5.000000e+001
    endloop
  endfacet
  facet normal -5.000000e-001 8.660254e-001 -1.134276e-007
    outer loop
      vertex   -4.787500e+001 7.937066e+001 5.000000e+001
      vertex   -6.419295e+001 6.994949e+001 2.023857e+001
      vertex   -9.362500e+001 5.295689e+001 5.000000e+001
    endloop
  endfacet
  facet normal -4.999999e-001 8.660255e-001 0.000000e+000
    outer loop
      vertex   -9.362500e+001 5.295689e+001 5.000000e+001
      vertex   -6.419295e+001 6.994949e+001 2.023857e+001
      vertex   -9.362500e+001 5.295689e+001 0.000000e+000
    endloop
  endfacet
  facet normal -4.999999e-001 8.660255e-001 0.000000e+000
    outer loop
      vertex   -9.362500e+001 5.295689e+001 0.000000e+000
      vertex   -6.419295e+001 6.994949e+001 2.023857e+001
      vertex   -6.419295e+001 6.994949e+001 1.823857e+001
    endloop
  endfacet
  facet normal -5.000000e-001 8.660254e-001 1.850894e-007
    outer loop
      vertex   -4.787500e+001 7.937066e+001 0.000000e+000
      vertex   -6.419295e+001 6.994949e+001 1.823857e+001
      vertex   -2.089168e+001 9.494949e+001 1.823857e+001
    endloop
  endfacet
  facet normal -5.000000e-001 8.660254e-001 1.850894e-007
    outer loop
      vertex   -2.125000e+000 1.057844e+002 0.000000e+000
      vertex   -4.787500e+001 7.937066e+001 0.000000e+000
      vertex   -2.089168e+001 9.494949e+001 1.823857e+001
    endloop
  endfacet
  facet normal -5.000000e-001 8.660254e-001 1.850894e-007
    outer loop
      vertex   -9.362500e+001 5.295689e+001 0.000000e+000
      vertex   -6.419295e+001 6.994949e+001 1.823857e+001
      vertex   -4.787500e+001 7.937066e+001 0.000000e+000
    endloop
  endfacet
  facet normal 1.000000e+000 3.141553e-009 0.000000e+000
    outer loop
      vertex   -2.125000e+000 7.732496e+001 8.545862e+000
      vertex   -2.125000e+000 1.057844e+002 0.000000e+000
      vertex   -2.125000e+000 7.732496e+001 1.054586e+001
    endloop
  endfacet
  facet normal 1.000000e+000 -1.681279e-016 -1.046202e-008
    outer loop
      vertex   -2.125000e+000 7.732496e+001 8.545862e+000
      vertex   -2.125000e+000 5.295689e+001 0.000000e+000
      vertex   -2.125000e+000 1.057844e+002 0.000000e+000
    endloop
  endfacet
  facet normal 1.000000e+000 -1.687539e-016 -1.046202e-008
    outer loop
      vertex   -2.125000e+000 7.732496e+001 8.545862e+000
      vertex   -2.125000e+000 2.732496e+001 8.545862e+000
      vertex   -2.125000e+000 5.295689e+001 0.000000e+000
    endloop
  endfacet
  facet normal 1.000000e+000 -1.681279e-016 -1.046202e-008
    outer loop
      vertex   -2.125000e+000 5.295689e+001 0.000000e+000
      vertex   -2.125000e+000 2.732496e+001 8.545862e+000
      vertex   -2.125000e+000 1.293378e-001 0.000000e+000
    endloop
  endfacet
  facet normal 1.000000e+000 -3.287550e-009 0.000000e+000
    outer loop
      vertex   -2.125000e+000 1.293378e-001 0.000000e+000
      vertex   -2.125000e+000 2.732496e+001 8.545862e+000
      vertex   -2.125000e+000 2.732496e+001 1.054586e+001
    endloop
  endfacet
  facet normal 1.000000e+000 -1.681279e-016 2.266098e-009
    outer loop
      vertex   -2.125000e+000 1.293378e-001 5.000000e+001
      vertex   -2.125000e+000 2.732496e+001 1.054586e+001
      vertex   -2.125000e+000 5.295689e+001 5.000000e+001
    endloop
  endfacet
  facet normal 1.000000e+000 -3.287550e-009 0.000000e+000
    outer loop
      vertex   -2.125000e+000 1.293378e-001 5.000000e+001
      vertex   -2.125000e+000 1.293378e-001 0.000000e+000
      vertex   -2.125000e+000 2.732496e+001 1.054586e+001
    endloop
  endfacet
  facet normal 1.000000e+000 -1.687539e-016 2.266098e-009
    outer loop
      vertex   -2.125000e+000 2.732496e+001 1.054586e+001
      vertex   -2.125000e+000 7.732496e+001 1.054586e+001
      vertex   -2.125000e+000 5.295689e+001 5.000000e+001
    endloop
  endfacet
  facet normal 1.000000e+000 -1.681279e-016 2.266098e-009
    outer loop
      vertex   -2.125000e+000 5.295689e+001 5.000000e+001
      vertex   -2.125000e+000 7.732496e+001 1.054586e+001
      vertex   -2.125000e+000 1.057844e+002 5.000000e+001
    endloop
  endfacet
  facet normal 1.000000e+000 3.141553e-009 0.000000e+000
    outer loop
      vertex   -2.125000e+000 1.057844e+002 5.000000e+001
      vertex   -2.125000e+000 7.732496e+001 1.054586e+001
      vertex   -2.125000e+000 1.057844e+002 0.000000e+000
    endloop
  endfacet
  facet normal -5.000000e-001 -8.660254e-001 0.000000e+000
    outer loop
      vertex   -6.952564e+001 3.904311e+001 1.600000e+001
      vertex   -9.362500e+001 5.295689e+001 0.000000e+000
      vertex   -6.952564e+001 3.904311e+001 1.400000e+001
    endloop
  endfacet
  facet normal -5.000000e-001 -8.660254e-001 -0.000000e+000
    outer loop
      vertex   -6.952564e+001 3.904311e+001 1.600000e+001
      vertex   -9.362500e+001 5.295689e+001 5.000000e+001
      vertex   -9.362500e+001 5.295689e+001 0.000000e+000
    endloop
  endfacet
  facet normal -5.000000e-001 -8.660254e-001 -1.265904e-016
    outer loop
      vertex   -6.952564e+001 3.904311e+001 1.600000e+001
      vertex   -4.787500e+001 2.654311e+001 5.000000e+001
      vertex   -9.362500e+001 5.295689e+001 5.000000e+001
    endloop
  endfacet
  facet normal -5.000000e-001 -8.660254e-001 -6.687461e-017
    outer loop
      vertex   -6.952564e+001 3.904311e+001 1.600000e+001
      vertex   -2.622436e+001 1.404311e+001 1.600000e+001
      vertex   -4.787500e+001 2.654311e+001 5.000000e+001
    endloop
  endfacet
  facet normal -5.000000e-001 -8.660254e-001 0.000000e+000
    outer loop
      vertex   -4.787500e+001 2.654311e+001 5.000000e+001
      vertex   -2.622436e+001 1.404311e+001 1.600000e+001
      vertex   -2.125000e+000 1.293378e-001 5.000000e+001
    endloop
  endfacet
  facet normal -5.000000e-001 -8.660254e-001 0.000000e+000
    outer loop
      vertex   -2.125000e+000 1.293378e-001 5.000000e+001
      vertex   -2.622436e+001 1.404311e+001 1.600000e+001
      vertex   -2.125000e+000 1.293378e-001 0.000000e+000
    endloop
  endfacet
  facet normal -5.000000e-001 -8.660254e-001 8.881784e-016
    outer loop
      vertex   -2.125000e+000 1.293378e-001 0.000000e+000
      vertex   -2.622436e+001 1.404311e+001 1.600000e+001
      vertex   -2.622436e+001 1.404311e+001 1.400000e+001
    endloop
  endfacet
  facet normal -5.000000e-001 -8.660254e-001 0.000000e+000
    outer loop
      vertex   -4.787500e+001 2.654311e+001 0.000000e+000
      vertex   -2.622436e+001 1.404311e+001 1.400000e+001
      vertex   -6.952564e+001 3.904311e+001 1.400000e+001
    endloop
  endfacet
  facet normal -5.000000e-001 -8.660254e-001 3.074338e-016
    outer loop
      vertex   -9.362500e+001 5.295689e+001 0.000000e+000
      vertex   -4.787500e+001 2.654311e+001 0.000000e+000
      vertex   -6.952564e+001 3.904311e+001 1.400000e+001
    endloop
  endfacet
  facet normal -5.000000e-001 -8.660254e-001 -7.685846e-017
    outer loop
      vertex   -2.125000e+000 1.293378e-001 0.000000e+000
      vertex   -2.622436e+001 1.404311e+001 1.400000e+001
      vertex   -4.787500e+001 2.654311e+001 0.000000e+000
    endloop
  endfacet
  facet normal 0.000000e+000 -0.000000e+000 1.000000e+000
    outer loop
      vertex   -8.375000e+000 5.278220e+001 5.000000e+001
      vertex   -2.125000e+000 5.295689e+001 5.000000e+001
      vertex   -8.375000e+000 9.608348e+001 5.000000e+001
    endloop
  endfacet
  facet normal -0.000000e+000 0.000000e+000 1.000000e+000
    outer loop
      vertex   -8.375000e+000 5.278220e+001 5.000000e+001
      vertex   -8.375000e+000 9.480935e+000 5.000000e+001
      vertex   -2.125000e+000 5.295689e+001 5.000000e+001
    endloop
  endfacet
  facet normal 0.000000e+000 0.000000e+000 1.000000e+000
    outer loop
      vertex   -2.125000e+000 5.295689e+001 5.000000e+001
      vertex   -8.375000e+000 9.480935e+000 5.000000e+001
      vertex   -2.125000e+000 1.293378e-001 5.000000e+001
    endloop
  endfacet
  facet normal 0.000000e+000 0.000000e+000 1.000000e+000
    outer loop
      vertex   -2.125000e+000 1.293378e-001 5.000000e+001
      vertex   -8.375000e+000 9.480935e+000 5.000000e+001
      vertex   -4.787500e+001 2.654311e+001 5.000000e+001
    endloop
  endfacet
  facet normal -0.000000e+000 -0.000000e+000 1.000000e+000
    outer loop
      vertex   -4.787500e+001 2.654311e+001 5.000000e+001
      vertex   -8.375000e+000 9.480935e+000 5.000000e+001
      vertex   -4.587500e+001 3.113157e+001 5.000000e+001
    endloop
  endfacet
  facet normal -0.000000e+000 0.000000e+000 1.000000e+000
    outer loop
      vertex   -8.337500e+001 5.278220e+001 5.000000e+001
      vertex   -4.787500e+001 2.654311e+001 5.000000e+001
      vertex   -4.587500e+001 3.113157e+001 5.000000e+001
    endloop
  endfacet
  facet normal 0.000000e+000 0.000000e+000 1.000000e+000
    outer loop
      vertex   -8.337500e+001 5.278220e+001 5.000000e+001
      vertex   -9.362500e+001 5.295689e+001 5.000000e+001
      vertex   -4.787500e+001 2.654311e+001 5.000000e+001
    endloop
  endfacet
  facet normal 0.000000e+000 -0.000000e+000 1.000000e+000
    outer loop
      vertex   -8.337500e+001 5.278220e+001 5.000000e+001
      vertex   -4.787500e+001 7.937066e+001 5.000000e+001
      vertex   -9.362500e+001 5.295689e+001 5.000000e+001
    endloop
  endfacet
  facet normal 0.000000e+000 -0.000000e+000 1.000000e+000
    outer loop
      vertex   -8.337500e+001 5.278220e+001 5.000000e+001
      vertex   -4.587500e+001 7.443284e+001 5.000000e+001
      vertex   -4.787500e+001 7.937066e+001 5.000000e+001
    endloop
  endfacet
  facet normal -0.000000e+000 0.000000e+000 1.000000e+000
    outer loop
      vertex   -4.787500e+001 7.937066e+001 5.000000e+001
      vertex   -4.587500e+001 7.443284e+001 5.000000e+001
      vertex   -8.375000e+000 9.608348e+001 5.000000e+001
    endloop
  endfacet
  facet normal 0.000000e+000 0.000000e+000 1.000000e+000
    outer loop
      vertex   -2.125000e+000 1.057844e+002 5.000000e+001
      vertex   -8.375000e+000 9.608348e+001 5.000000e+001
      vertex   -2.125000e+000 5.295689e+001 5.000000e+001
    endloop
  endfacet
  facet normal -0.000000e+000 0.000000e+000 1.000000e+000
    outer loop
      vertex   -2.125000e+000 1.057844e+002 5.000000e+001
      vertex   -4.787500e+001 7.937066e+001 5.000000e+001
      vertex   -8.375000e+000 9.608348e+001 5.000000e+001
    endloop
  endfacet
  facet normal -0.000000e+000 0.000000e+000 -1.000000e+000
    outer loop
      vertex   -2.125000e+000 5.295689e+001 0.000000e+000
      vertex   -2.125000e+000 1.293378e-001 0.000000e+000
      vertex   -2.500000e+001 3.975000e+001 0.000000e+000
    endloop
  endfacet
  facet normal 0.000000e+000 -0.000000e+000 -1.000000e+000
    outer loop
      vertex   -4.787500e+001 7.937066e+001 0.000000e+000
      vertex   -2.500000e+001 3.975000e+001 0.000000e+000
      vertex   -4.787500e+001 2.654311e+001 0.000000e+000
    endloop
  endfacet
  facet normal 0.000000e+000 0.000000e+000 -1.000000e+000
    outer loop
      vertex   -9.362500e+001 5.295689e+001 0.000000e+000
      vertex   -4.787500e+001 7.937066e+001 0.000000e+000
      vertex   -4.787500e+001 2.654311e+001 0.000000e+000
    endloop
  endfacet
  facet normal -0.000000e+000 0.000000e+000 -1.000000e+000
    outer loop
      vertex   -2.125000e+000 1.057844e+002 0.000000e+000
      vertex   -2.125000e+000 5.295689e+001 0.000000e+000
      vertex   -4.787500e+001 7.937066e+001 0.000000e+000
    endloop
  endfacet
  facet normal 0.000000e+000 -0.000000e+000 -1.000000e+000
    outer loop
      vertex   -4.787500e+001 7.937066e+001 0.000000e+000
      vertex   -2.125000e+000 5.295689e+001 0.000000e+000
      vertex   -2.500000e+001 3.975000e+001 0.000000e+000
    endloop
  endfacet
  facet normal 0.000000e+000 0.000000e+000 -1.000000e+000
    outer loop
      vertex   -4.787500e+001 2.654311e+001 0.000000e+000
      vertex   -2.500000e+001 3.975000e+001 0.000000e+000
      vertex   -2.125000e+000 1.293378e-001 0.000000e+000
    endloop
  endfacet
endsolid
